<?xml version="1.0" encoding="UTF-8" standalone="no"?>
<!-- Created with Inkscape (http://www.inkscape.org/) -->

<svg
   xmlns:dc="http://purl.org/dc/elements/1.1/"
   xmlns:cc="http://creativecommons.org/ns#"
   xmlns:rdf="http://www.w3.org/1999/02/22-rdf-syntax-ns#"
   xmlns:svg="http://www.w3.org/2000/svg"
   xmlns="http://www.w3.org/2000/svg"
   xmlns:sodipodi="http://sodipodi.sourceforge.net/DTD/sodipodi-0.dtd"
   xmlns:inkscape="http://www.inkscape.org/namespaces/inkscape"
   width="60px"
   height="60px"
   viewBox="0 0 60 60"
   version="1.1"
   id="SVGRoot"
   inkscape:version="0.92.4 (5da689c313, 2019-01-14)"
   sodipodi:docname="kiasili-2.svg">
  <defs
     id="defs7308">
    <inkscape:path-effect
       effect="envelope"
       id="path-effect9280"
       is_visible="true"
       lpeversion="1"
       yy="true"
       xx="true"
       bendpath1="m 94.526426,419.41073 40.114294,-1.1623"
       bendpath2="m 129.56761,416.53868 -1.17624,16.16188"
       bendpath3="m 99.408296,429.45027 28.263934,-0.0109"
       bendpath4="m 97.833935,418.02024 0.996194,15.93021"
       bendpath3-nodetypes="cc"
       bendpath1-nodetypes="cc"
       bendpath2-nodetypes="cc"
       bendpath4-nodetypes="cc" />
  </defs>
  <sodipodi:namedview
     id="base"
     pagecolor="#ffffff"
     bordercolor="#666666"
     borderopacity="1.0"
     inkscape:pageopacity="0.0"
     inkscape:pageshadow="2"
     inkscape:zoom="4.2666667"
     inkscape:cx="-3.554153"
     inkscape:cy="4.3888146"
     inkscape:document-units="px"
     inkscape:current-layer="layer1"
     showgrid="false"
     inkscape:window-width="1920"
     inkscape:window-height="1057"
     inkscape:window-x="-8"
     inkscape:window-y="-8"
     inkscape:window-maximized="1"
     inkscape:grid-bbox="true" />
  <metadata
     id="metadata7311">
    <rdf:RDF>
      <cc:Work
         rdf:about="">
        <dc:format>image/svg+xml</dc:format>
        <dc:type
           rdf:resource="http://purl.org/dc/dcmitype/StillImage" />
        <dc:title></dc:title>
      </cc:Work>
    </rdf:RDF>
  </metadata>
  <g
     inkscape:label="Layer 1"
     inkscape:groupmode="layer"
     id="layer1">
    <rect
       style="fill:#230226;fill-opacity:1;stroke:none;stroke-width:0.10035988"
       id="rect6613"
       width="58.346004"
       height="58.346004"
       x="0.82999998"
       y="0.99588704"
       inkscape:export-xdpi="96"
       inkscape:export-ydpi="96"
       inkscape:export-filename="C:\Users\joshu\Documents\kiasili logo\fin soap box\tum soap gold front.png"
       ry="29.173002"
       rx="29.173002" />
    <g
       inkscape:export-filename="C:\Users\joshu\Documents\kiasili logo\fin soap box\tum soap gold front.png"
       inkscape:export-ydpi="96"
       inkscape:export-xdpi="96"
       transform="matrix(0.63604108,0,0,0.63604105,-41.883082,-223.97106)"
       id="g12942">
      <path
         inkscape:connector-curvature="0"
         inkscape:transform-center-y="-0.19263052"
         inkscape:transform-center-x="-0.23987899"
         id="path12836"
         d="m 97.445505,406.58351 c 0,0 -2.799189,1.22583 -2.12396,3.16986 0,0 0.694559,1.44445 1.312846,0.55114 0,0 -1.274175,-1.55029 0.811114,-3.721 z"
         style="fill:#fbcb2d;fill-opacity:1;stroke:none;stroke-width:0.16497301px;stroke-linecap:butt;stroke-linejoin:miter;stroke-opacity:1" />
      <path
         inkscape:connector-curvature="0"
         id="path12838"
         d="m 103.77621,403.42636 c 0,0 -6.536662,-0.21699 -10.526711,3.92995 0,0 5.20318,-8.0074 10.526711,-3.92995 z"
         style="fill:#fbcb2d;fill-opacity:1;stroke:none;stroke-width:0.16497301px;stroke-linecap:butt;stroke-linejoin:miter;stroke-opacity:1" />
      <path
         inkscape:connector-curvature="0"
         id="path12840"
         d="m 86.843206,405.57082 c 13.281964,-9.43574 19.381864,-0.73677 19.381864,-0.73677 0,0 -0.53074,-4.83561 -8.160028,-6.02842 0,0 -4.679571,-0.93868 -11.221836,6.76519 z"
         style="fill:#fbcb2d;fill-opacity:1;stroke:none;stroke-width:0.16497301px;stroke-linecap:butt;stroke-linejoin:miter;stroke-opacity:1" />
      <path
         inkscape:connector-curvature="0"
         id="path12842"
         d="m 94.158106,404.08065 c -5.067033,2.06217 -5.008111,6.18649 -5.008111,6.18649 0,0 -1.001623,0.47136 -1.237301,-1.53189 0,0 0.235678,-3.35838 6.245412,-4.6546 z"
         style="fill:#fbcb2d;fill-opacity:1;stroke:none;stroke-width:0.16497301px;stroke-linecap:butt;stroke-linejoin:miter;stroke-opacity:1" />
      <path
         inkscape:connector-curvature="0"
         id="path12844"
         d="m 129.69801,401.52357 c -1.94433,3.7119 -6.30433,2.82811 -6.30433,2.82811 -6.77569,-0.64811 -8.42542,3.35838 -8.42542,3.35838 0,0 -0.0589,-6.06865 9.48596,-5.24378 0,0 2.18,0.35351 5.24379,-0.94271 z"
         style="fill:#fbcb2d;fill-opacity:1;stroke:none;stroke-width:0.16497301px;stroke-linecap:butt;stroke-linejoin:miter;stroke-opacity:1" />
      <path
         inkscape:connector-curvature="0"
         id="path12846"
         d="m 116.20743,408.2983 c 0,0 2.7124,-4.04645 6.79939,-2.83564 0,0 -2.50657,0.0201 -6.79939,2.83564 z"
         style="fill:#fbcb2d;fill-opacity:1;stroke:none;stroke-width:0.16497301px;stroke-linecap:butt;stroke-linejoin:miter;stroke-opacity:1" />
      <path
         inkscape:connector-curvature="0"
         id="path12848"
         d="m 125.65617,405.51826 c 0,0 3.35839,-0.11784 3.53515,2.41568 0.17675,2.53352 1.70865,2.18 1.94432,2.00325 0.23568,-0.17676 0.23568,-5.8919 -5.47947,-4.41893 z"
         style="fill:#fbcb2d;fill-opacity:1;stroke:none;stroke-width:0.16497301px;stroke-linecap:butt;stroke-linejoin:miter;stroke-opacity:1" />
      <path
         inkscape:connector-curvature="0"
         id="path12850"
         d="m 129.58018,404.62271 c 0,0 3.94757,0.64811 4.35999,3.4173 0.41244,2.7692 3.18163,3.00487 3.18163,3.00487 0,0 -2.06216,-0.53027 -2.12108,-2.94595 -0.0589,-2.41568 -2.53352,-4.71352 -5.42054,-3.47622 z"
         style="fill:#fbcb2d;fill-opacity:1;stroke:none;stroke-width:0.16497301px;stroke-linecap:butt;stroke-linejoin:miter;stroke-opacity:1" />
      <path
         inkscape:connector-curvature="0"
         id="path12852"
         d="m 91.577592,400.16843 c 0,0 -3.821676,0.38533 -5.854135,4.14648 0,0 -0.195829,-5.77104 5.854135,-4.14648 z"
         style="fill:#fbcb2d;fill-opacity:1;stroke:none;stroke-width:0.16497301px;stroke-linecap:butt;stroke-linejoin:miter;stroke-opacity:1" />
      <path
         inkscape:connector-curvature="0"
         id="path12854"
         d="m 129.51212,380.2673 c 0,0 1.16654,7.91578 -7.83245,12.41527 -8.999,4.4995 -7.74914,10.41551 -7.74914,10.41551 0,0 0.0833,-5.16609 13.1652,-11.49872 0,0 4.41617,-2.74969 2.41639,-11.33206 z"
         style="fill:#fbcb2d;fill-opacity:1;stroke:none;stroke-width:0.16497301px;stroke-linecap:butt;stroke-linejoin:miter;stroke-opacity:1" />
      <path
         inkscape:connector-curvature="0"
         id="path12856"
         d="m 116.9302,401.68157 c 0,0 6.99922,-2.49972 11.99866,-1.33319 4.99944,1.16654 -0.24998,-1.99977 -0.24998,-1.99977 0,0 -6.61691,-1.45824 -11.74868,3.33296 z"
         style="fill:#fbcb2d;fill-opacity:1;stroke:none;stroke-width:0.16497301px;stroke-linecap:butt;stroke-linejoin:miter;stroke-opacity:1" />
      <path
         inkscape:connector-curvature="0"
         id="path12858"
         d="m 127.01241,393.68246 c 0,0 6.24929,-2.99966 6.91589,-10.0822 0,0 1.24986,-2.66637 0.99989,2.83302 -0.24997,5.49938 -7.91578,7.24918 -7.91578,7.24918 z"
         style="fill:#fbcb2d;fill-opacity:1;stroke:none;stroke-width:0.16497301px;stroke-linecap:butt;stroke-linejoin:miter;stroke-opacity:1" />
      <path
         inkscape:connector-curvature="0"
         id="path12860"
         d="m 105.07746,400.68449 c 0,0 -6.094954,-4.58691 -2.07158,-11.81906 4.02339,-7.23215 0.69692,-11.55476 0.69692,-11.55476 0,0 -1.13212,-0.85542 -1.20707,2.31987 -0.0749,3.17528 0.0584,5.588 -2.545157,9.82092 -2.603485,4.23293 0.399377,8.7403 5.126887,11.23303 z"
         style="fill:#fbcb2d;fill-opacity:1;stroke:none;stroke-width:0.16497301px;stroke-linecap:butt;stroke-linejoin:miter;stroke-opacity:1" />
      <path
         inkscape:connector-curvature="0"
         id="path12862"
         d="m 99.168786,397.76199 c 0,0 -5.332716,-0.91656 -6.832551,-4.58282 -1.499829,-3.66626 -2.749688,-5.49938 -3.666257,-5.58271 0,0 0.749921,-1.41651 2.416398,0 1.666483,1.41651 2.333076,4.4995 2.333076,4.4995 0,0 0.666588,3.08298 5.749334,5.66603 z"
         style="fill:#fbcb2d;fill-opacity:1;stroke:none;stroke-width:0.16497301px;stroke-linecap:butt;stroke-linejoin:miter;stroke-opacity:1" />
      <path
         inkscape:connector-curvature="0"
         id="path12864"
         d="m 86.510427,388.4082 c 0,0 2.769192,0.47136 4.065404,4.18325 1.296218,3.7119 2.180002,4.18325 2.180002,4.18325 0,0 -6.65784,-5.06703 -6.245406,-8.3665 z"
         style="fill:#fbcb2d;fill-opacity:1;stroke:none;stroke-width:0.16497301px;stroke-linecap:butt;stroke-linejoin:miter;stroke-opacity:1" />
      <path
         inkscape:connector-curvature="0"
         id="path12866"
         d="m 86.451505,396.00875 c 0,0 -2.12108,-3.18162 0.294594,-2.65135 2.415681,0.53027 1.355141,4.24216 6.245413,4.71352 4.890273,0.47135 -4.360005,1.47297 -6.540007,-2.06217 z"
         style="fill:#fbcb2d;fill-opacity:1;stroke:none;stroke-width:0.16497301px;stroke-linecap:butt;stroke-linejoin:miter;stroke-opacity:1" />
      <path
         inkscape:connector-curvature="0"
         id="path12868"
         d="m 88.407619,399.08433 c 0,0 -2.474597,-0.35351 -3.181625,0.76594 0,0 -2.286057,-0.61274 -0.530273,-2.06216 1.755784,-1.44941 3.711898,1.29622 3.711898,1.29622 z"
         style="fill:#fbcb2d;fill-opacity:1;stroke:none;stroke-width:0.16497301px;stroke-linecap:butt;stroke-linejoin:miter;stroke-opacity:1" />
      <path
         inkscape:connector-curvature="0"
         id="path12870"
         d="m 98.541669,395.57275 c 0,0 -4.949183,-3.88864 -4.124316,-9.42703 0.824862,-5.53839 1.414061,0.58919 1.414061,0.58919 0,0 -0.235682,5.5973 2.710255,8.83784 z"
         style="fill:#fbcb2d;fill-opacity:1;stroke:none;stroke-width:0.16497301px;stroke-linecap:butt;stroke-linejoin:miter;stroke-opacity:1" />
      <path
         inkscape:connector-curvature="0"
         id="path12872"
         d="m 93.56747,387.95251 c 0,0 -1.543999,-2.08997 -0.668152,-5.15378 0,0 -0.897514,-2.33005 -2.103247,0.16356 -1.205733,2.49362 0.982662,3.34015 2.771399,4.99022 z"
         style="fill:#fbcb2d;fill-opacity:1;stroke:none;stroke-width:0.16497301px;stroke-linecap:butt;stroke-linejoin:miter;stroke-opacity:1" />
      <path
         inkscape:connector-curvature="0"
         id="path12874"
         d="m 97.893562,392.15546 c 0,0 -1.826478,-2.06217 -1.237291,-9.19136 0,0 0.353517,-2.06217 -2.121078,-5.30272 0,0 4.595663,0.64812 3.770799,7.1292 -0.824857,6.48109 -0.707017,5.95082 -0.41243,7.36488 z"
         style="fill:#fbcb2d;fill-opacity:1;stroke:none;stroke-width:0.16497301px;stroke-linecap:butt;stroke-linejoin:miter;stroke-opacity:1" />
      <path
         inkscape:connector-curvature="0"
         id="path12876"
         d="m 93.209513,378.78085 c 0,0 -0.235678,2.26838 2.798651,5.15541 0,0 0.294597,-3.18163 -2.798651,-5.15541 z"
         style="fill:#fbcb2d;fill-opacity:1;stroke:none;stroke-width:0.16497301px;stroke-linecap:butt;stroke-linejoin:miter;stroke-opacity:1" />
      <path
         inkscape:connector-curvature="0"
         id="path12878"
         d="m 112.9768,400.46303 c 0,0 -0.47135,-6.18649 6.42218,-8.54325 0,0 1.82649,-2.29784 -2.65136,-1.06054 -4.47785,1.23729 -3.77082,9.60379 -3.77082,9.60379 z"
         style="fill:#fbcb2d;fill-opacity:1;stroke:none;stroke-width:0.16497301px;stroke-linecap:butt;stroke-linejoin:miter;stroke-opacity:1" />
      <path
         inkscape:connector-curvature="0"
         id="path12880"
         d="m 111.85734,399.1079 c 0,0 -2.06216,-6.8346 1.06054,-10.42866 3.12272,-3.59406 0.53027,-12.37299 0.53027,-12.37299 0,0 -2.94594,-6.8346 -2.94594,1.53189 0,0 1.53189,3.59406 0.64811,8.54325 -0.88379,4.9492 -2.41568,5.89191 0.70702,12.72651 z"
         style="fill:#fbcb2d;fill-opacity:1;stroke:none;stroke-width:0.16497301px;stroke-linecap:butt;stroke-linejoin:miter;stroke-opacity:1" />
      <path
         inkscape:connector-curvature="0"
         id="path12882"
         d="m 109.79404,397.7927 c 0,0 -3.53985,-1.35759 -3.30436,-10.61707 0.23549,-9.25946 1.52066,2.16553 1.52066,2.16553 0,0 0.0679,2.37377 1.7837,8.45154 z"
         style="fill:#fbcb2d;fill-opacity:1;stroke:none;stroke-width:0.16497301px;stroke-linecap:butt;stroke-linejoin:miter;stroke-opacity:1" />
      <path
         inkscape:connector-curvature="0"
         id="path12884"
         d="m 105.33543,398.78142 c 0,0 -3.35493,-2.2402 -2.6029,-6.43777 0.75203,-4.19758 1.03464,0.92058 1.03464,0.92058 0,0 -0.0343,3.7642 1.56826,5.51719 z"
         style="fill:#fbcb2d;fill-opacity:1;stroke:none;stroke-width:0.16497301px;stroke-linecap:butt;stroke-linejoin:miter;stroke-opacity:1" />
      <path
         inkscape:connector-curvature="0"
         id="path12886"
         d="m 108.76444,388.05809 c 0,0 -0.74991,-9.29062 -5.62437,-12.87356 0,0 -2.45806,-4.08287 1.70815,-1.70814 4.16619,2.37473 3.91622,14.5817 3.91622,14.5817 z"
         style="fill:#fbcb2d;fill-opacity:1;stroke:none;stroke-width:0.16497301px;stroke-linecap:butt;stroke-linejoin:miter;stroke-opacity:1" />
      <path
         inkscape:connector-curvature="0"
         id="path12888"
         d="m 130.3037,388.84967 c 0,0 1.83313,-3.70792 0.58328,-8.79068 -1.24987,-5.08277 2.49971,-2.20809 1.87478,1.24986 -0.62493,3.45794 -2.45806,7.54082 -2.45806,7.54082 z"
         style="fill:#fbcb2d;fill-opacity:1;stroke:none;stroke-width:0.16497301px;stroke-linecap:butt;stroke-linejoin:miter;stroke-opacity:1" />
      <path
         inkscape:connector-curvature="0"
         id="path12890"
         d="m 112.15093,393.5865 c 0,0 1.97937,-5.6231 8.09666,-5.96049 0,0 -4.16545,-5.18751 -8.09666,5.96049 z"
         style="fill:#fbcb2d;fill-opacity:1;stroke:none;stroke-width:0.16497301px;stroke-linecap:butt;stroke-linejoin:miter;stroke-opacity:1" />
      <path
         inkscape:connector-curvature="0"
         id="path12892"
         d="m 117.93009,389.26629 c 0,0 5.58271,0.8749 7.16586,-3.91623 1.58316,-4.79113 0.0833,-7.7908 0.0833,-7.7908 0,0 -1.62482,-5.83267 2.29141,0.99989 3.91622,6.83257 -2.62471,11.957 -9.5406,10.70714 z"
         style="fill:#fbcb2d;fill-opacity:1;stroke:none;stroke-width:0.16497301px;stroke-linecap:butt;stroke-linejoin:miter;stroke-opacity:1" />
      <path
         inkscape:connector-curvature="0"
         id="path12894"
         d="m 121.13806,387.09986 c 0,0 7.70747,-5.62436 -6.49928,-11.58203 0,0 -5.0411,-3.54127 2.74971,-0.74992 7.79079,2.79135 9.45727,8.45739 3.74957,12.33195 z"
         style="fill:#fbcb2d;fill-opacity:1;stroke:none;stroke-width:0.16497301px;stroke-linecap:butt;stroke-linejoin:miter;stroke-opacity:1" />
      <path
         inkscape:connector-curvature="0"
         id="path12896"
         d="m 115.22205,385.97499 c 0,0 2.24976,-6.99922 -0.0833,-8.79068 -2.33308,-1.79147 1.2082,-0.20831 1.5415,0.16665 0.33329,0.37495 2.74969,1.91645 -1.45818,8.62403 z"
         style="fill:#fbcb2d;fill-opacity:1;stroke:none;stroke-width:0.16497301px;stroke-linecap:butt;stroke-linejoin:miter;stroke-opacity:1" />
      <path
         inkscape:connector-curvature="0"
         id="path12898"
         d="m 116.47192,385.68336 c 0,0 1.45817,-6.04099 5.08276,-3.74958 3.6246,2.29141 -0.79158,1.04155 -1.20819,1.04155 -0.41663,0 -2.66637,-0.41662 -3.87457,2.70803 z"
         style="fill:#fbcb2d;fill-opacity:1;stroke:none;stroke-width:0.16497301px;stroke-linecap:butt;stroke-linejoin:miter;stroke-opacity:1" />
      <path
         inkscape:connector-curvature="0"
         id="path12900"
         d="m 117.38848,385.93333 c 0,0 4.95778,0.70825 4.70781,-1.24986 -0.24998,-1.95811 -4.70781,1.24986 -4.70781,1.24986 z"
         style="fill:#fbcb2d;fill-opacity:1;stroke:none;stroke-width:0.16497301px;stroke-linecap:butt;stroke-linejoin:miter;stroke-opacity:1" />
      <path
         inkscape:connector-curvature="0"
         id="path12902"
         d="m 118.22172,380.93389 c 0,0 0.20831,-2.66637 1.49984,-2.12477 1.29152,0.54161 -1.49984,2.12477 -1.49984,2.12477 z"
         style="fill:#fbcb2d;fill-opacity:1;stroke:none;stroke-width:0.16497301px;stroke-linecap:butt;stroke-linejoin:miter;stroke-opacity:1" />
      <path
         inkscape:connector-curvature="0"
         id="path12904"
         d="m 124.22105,378.47583 c 0,0 -4.66614,-5.74936 -8.45738,-6.2493 -3.79125,-0.49994 0.12498,-3.62459 1.99977,-0.99989 1.87479,2.6247 5.83268,1.83313 6.45761,7.24919 z"
         style="fill:#fbcb2d;fill-opacity:1;stroke:none;stroke-width:0.16497301px;stroke-linecap:butt;stroke-linejoin:miter;stroke-opacity:1" />
      <path
         inkscape:connector-curvature="0"
         id="path12906"
         d="m 110.88921,372.89312 c 0,0 -0.95823,-2.16642 0.8749,-2.29141 1.83312,-0.12498 1.62481,0.91656 1.62481,0.91656 0,0 -0.16664,1.29153 -2.49971,1.37485 z"
         style="fill:#fbcb2d;fill-opacity:1;stroke:none;stroke-width:0.16497301px;stroke-linecap:butt;stroke-linejoin:miter;stroke-opacity:1" />
      <path
         inkscape:connector-curvature="0"
         id="path12908"
         d="m 117.63845,398.97354 c 0,0 4.45784,-5.49939 7.99911,-4.99944 3.54127,0.49994 0,1.45817 0,1.45817 0,0 -5.12443,0.79158 -7.99911,3.54127 z"
         style="fill:#fbcb2d;fill-opacity:1;stroke:none;stroke-width:0.16497301px;stroke-linecap:butt;stroke-linejoin:miter;stroke-opacity:1" />
      <path
         inkscape:connector-curvature="0"
         id="path12910"
         d="m 122.22709,397.45816 c 0,0 7.83622,-0.53027 14.84758,-9.07352 0,0 5.00811,-1.00162 0.53027,3.24054 -4.47784,4.24217 -15.37785,5.83298 -15.37785,5.83298 z"
         style="fill:#fbcb2d;fill-opacity:1;stroke:none;stroke-width:0.16497301px;stroke-linecap:butt;stroke-linejoin:miter;stroke-opacity:1" />
      <path
         inkscape:connector-curvature="0"
         id="path12912"
         d="m 132.02267,402.66092 c 0,0 5.14642,-2.82131 6.53311,-0.33058 1.38669,2.49073 0.76018,-1.9466 -0.41498,-2.15227 -1.17515,-0.20569 -2.65748,-0.81667 -6.11814,2.48282 z"
         style="fill:#fbcb2d;fill-opacity:1;stroke:none;stroke-width:0.16497301px;stroke-linecap:butt;stroke-linejoin:miter;stroke-opacity:1" />
      <path
         inkscape:connector-curvature="0"
         id="path12914"
         d="m 131.5119,401.34827 c 0,0 2.87468,-3.74958 7.16587,-2.958 4.29119,0.79158 4.08288,-2.83302 1.79146,-2.4164 -2.2914,0.41662 -5.916,0.0417 -8.95733,5.3744 z"
         style="fill:#fbcb2d;fill-opacity:1;stroke:none;stroke-width:0.16497301px;stroke-linecap:butt;stroke-linejoin:miter;stroke-opacity:1" />
      <path
         inkscape:connector-curvature="0"
         id="path12916"
         d="m 129.22049,397.26539 c 0,0 7.70748,-1.16653 10.79046,-5.49938 0,0 1.99978,-0.29163 0.74992,1.79147 -1.24986,2.0831 -7.37418,3.4996 -11.54038,3.70791 z"
         style="fill:#fbcb2d;fill-opacity:1;stroke:none;stroke-width:0.16497301px;stroke-linecap:butt;stroke-linejoin:miter;stroke-opacity:1" />
      <path
         inkscape:connector-curvature="0"
         id="path12918"
         d="m 133.9406,402.73297 c 0,0 1.52131,2.61265 4.07414,2.20049 2.55283,-0.41218 3.40458,2.34491 1.77229,2.49799 -1.63231,0.15307 -4.34483,-1.26228 -5.84643,-4.69848 z"
         style="fill:#fbcb2d;fill-opacity:1;stroke:none;stroke-width:0.144559px;stroke-linecap:butt;stroke-linejoin:miter;stroke-opacity:1" />
      <path
         inkscape:connector-curvature="0"
         id="path12920"
         d="m 110.61855,406.35531 c 0,0 1.64973,-3.29947 -3.35838,-5.42055 -5.00811,-2.12108 0.47135,-1.35514 0.47135,-1.35514 0,0 6.59892,1.11946 2.88703,6.77569 z"
         style="fill:#fbcb2d;fill-opacity:1;stroke:none;stroke-width:0.16497301px;stroke-linecap:butt;stroke-linejoin:miter;stroke-opacity:1" />
      <path
         inkscape:connector-curvature="0"
         id="path12922"
         d="m 98.977796,388.12801 c 0,0 2.041434,-3.16632 -0.583264,-10.12388 -2.624698,-6.95755 1.541491,-1.33318 1.541491,-1.33318 0,0 3.541267,5.95767 -0.958227,11.45706 z"
         style="fill:#fbcb2d;fill-opacity:1;stroke:none;stroke-width:0.16497301px;stroke-linecap:butt;stroke-linejoin:miter;stroke-opacity:1" />
      <path
         inkscape:connector-curvature="0"
         id="path12924"
         d="m 107.98959,398.03921 c 0,0 -3.2462,1.42255 -3.682,-9.33808 0,0 0.59509,-5.21257 1.42612,0.021 0.83104,5.23354 -0.10986,8.30381 2.25588,9.31712 z"
         style="fill:#fbcb2d;fill-opacity:1;stroke:none;stroke-width:0.16497301px;stroke-linecap:butt;stroke-linejoin:miter;stroke-opacity:1" />
      <path
         inkscape:connector-curvature="0"
         id="path12926"
         d="m 109.6016,382.58696 c 0,0 -0.99989,-5.91601 -3.08299,-9.29063 -2.0831,-3.37462 2.4164,-3.91623 2.49972,-0.20831 0.0833,3.70792 0.49995,8.45739 0.58327,9.49894 z"
         style="fill:#fbcb2d;fill-opacity:1;stroke:none;stroke-width:0.16497301px;stroke-linecap:butt;stroke-linejoin:miter;stroke-opacity:1" />
      <path
         inkscape:connector-curvature="0"
         id="path12928"
         d="m 92.683499,406.79259 c 0,0 -2.583046,1.29151 -1.416508,3.58293 1.166538,2.2914 2.041437,0.54161 1.374844,-0.49995 -0.666587,-1.04154 -1.041547,-1.62482 0.04165,-3.08298 z"
         style="fill:#fbcb2d;fill-opacity:1;stroke:none;stroke-width:0.16497301px;stroke-linecap:butt;stroke-linejoin:miter;stroke-opacity:1" />
      <path
         inkscape:connector-curvature="0"
         inkscape:export-ydpi="96"
         inkscape:export-xdpi="96"
         d="m 113.05378,365.99109 a 33.465979,33.465979 0 0 0 -33.454716,33.46592 33.465979,33.465979 0 0 0 33.465666,33.4659 33.465979,33.465979 0 0 0 33.46603,-33.4659 33.465979,33.465979 0 0 0 -33.46603,-33.46592 33.465979,33.465979 0 0 0 -0.011,0 z m 0.011,3.29946 a 30.166516,30.166516 0 0 1 0.18785,6.2e-4 30.166516,30.166516 0 0 1 0.18753,0.002 30.166516,30.166516 0 0 1 0.18753,0.003 30.166516,30.166516 0 0 1 0.18753,0.004 30.166516,30.166516 0 0 1 0.18752,0.006 30.166516,30.166516 0 0 1 0.18753,0.006 30.166516,30.166516 0 0 1 0.18753,0.007 30.166516,30.166516 0 0 1 0.18721,0.009 30.166516,30.166516 0 0 1 0.1872,0.01 30.166516,30.166516 0 0 1 0.18753,0.011 30.166516,30.166516 0 0 1 0.1872,0.0122 30.166516,30.166516 0 0 1 0.18689,0.0135 30.166516,30.166516 0 0 1 0.18721,0.0145 30.166516,30.166516 0 0 1 0.18689,0.0158 30.166516,30.166516 0 0 1 0.18688,0.0168 30.166516,30.166516 0 0 1 0.18656,0.018 30.166516,30.166516 0 0 1 0.18656,0.0193 30.166516,30.166516 0 0 1 0.18656,0.0203 30.166516,30.166516 0 0 1 0.18624,0.0216 30.166516,30.166516 0 0 1 0.18624,0.0229 30.166516,30.166516 0 0 1 0.18624,0.0238 30.166516,30.166516 0 0 1 0.18592,0.0248 30.166516,30.166516 0 0 1 0.18559,0.0261 30.166516,30.166516 0 0 1 0.1856,0.0274 30.166516,30.166516 0 0 1 0.18559,0.0287 30.166516,30.166516 0 0 1 0.18527,0.0293 30.166516,30.166516 0 0 1 0.18496,0.0309 30.166516,30.166516 0 0 1 0.18495,0.0319 30.166516,30.166516 0 0 1 0.18462,0.0332 30.166516,30.166516 0 0 1 0.18431,0.0342 30.166516,30.166516 0 0 1 0.1843,0.0355 30.166516,30.166516 0 0 1 0.18399,0.0364 30.166516,30.166516 0 0 1 0.18366,0.0377 30.166516,30.166516 0 0 1 0.18366,0.0387 30.166516,30.166516 0 0 1 0.18334,0.04 30.166516,30.166516 0 0 1 0.18302,0.0412 30.166516,30.166516 0 0 1 0.18269,0.0422 30.166516,30.166516 0 0 1 0.1827,0.0431 30.166516,30.166516 0 0 1 0.18205,0.0445 30.166516,30.166516 0 0 1 0.18205,0.0458 30.166516,30.166516 0 0 1 0.18173,0.0467 30.166516,30.166516 0 0 1 0.1814,0.0477 30.166516,30.166516 0 0 1 0.18109,0.0493 30.166516,30.166516 0 0 1 0.18076,0.05 30.166516,30.166516 0 0 1 0.18044,0.0512 30.166516,30.166516 0 0 1 0.18011,0.0525 30.166516,30.166516 0 0 1 0.1798,0.0535 30.166516,30.166516 0 0 1 0.17947,0.0544 30.166516,30.166516 0 0 1 0.17915,0.0557 30.166516,30.166516 0 0 1 0.17851,0.0571 30.166516,30.166516 0 0 1 0.17851,0.0577 30.166516,30.166516 0 0 1 0.17818,0.0593 30.166516,30.166516 0 0 1 0.17754,0.0599 30.166516,30.166516 0 0 1 0.17722,0.0615 30.166516,30.166516 0 0 1 0.17721,0.0622 30.166516,30.166516 0 0 1 0.17626,0.0635 30.166516,30.166516 0 0 1 0.17625,0.0644 30.166516,30.166516 0 0 1 0.1756,0.0657 30.166516,30.166516 0 0 1 0.17528,0.0667 30.166516,30.166516 0 0 1 0.17497,0.068 30.166516,30.166516 0 0 1 0.17463,0.0689 30.166516,30.166516 0 0 1 0.174,0.0699 30.166516,30.166516 0 0 1 0.17367,0.0712 30.166516,30.166516 0 0 1 0.17304,0.0722 30.166516,30.166516 0 0 1 0.1727,0.0731 30.166516,30.166516 0 0 1 0.17238,0.0744 30.166516,30.166516 0 0 1 0.17175,0.0754 30.166516,30.166516 0 0 1 0.17109,0.0764 30.166516,30.166516 0 0 1 0.17109,0.0773 30.166516,30.166516 0 0 1 0.17013,0.0786 30.166516,30.166516 0 0 1 0.1698,0.0796 30.166516,30.166516 0 0 1 0.16949,0.0809 30.166516,30.166516 0 0 1 0.16884,0.0815 30.166516,30.166516 0 0 1 0.1682,0.0828 30.166516,30.166516 0 0 1 0.16787,0.0841 30.166516,30.166516 0 0 1 0.16723,0.0847 30.166516,30.166516 0 0 1 0.16691,0.086 30.166516,30.166516 0 0 1 0.16626,0.0867 30.166516,30.166516 0 0 1 0.16561,0.088 30.166516,30.166516 0 0 1 0.1653,0.0892 30.166516,30.166516 0 0 1 0.16433,0.0899 30.166516,30.166516 0 0 1 0.16401,0.0912 30.166516,30.166516 0 0 1 0.16368,0.0918 30.166516,30.166516 0 0 1 0.16272,0.0931 30.166516,30.166516 0 0 1 0.16239,0.0941 30.166516,30.166516 0 0 1 0.16143,0.0954 30.166516,30.166516 0 0 1 0.16111,0.096 30.166516,30.166516 0 0 1 0.16078,0.097 30.166516,30.166516 0 0 1 0.15982,0.0983 30.166516,30.166516 0 0 1 0.15917,0.0989 30.166516,30.166516 0 0 1 0.15886,0.1002 30.166516,30.166516 0 0 1 0.15788,0.10118 30.166516,30.166516 0 0 1 0.15724,0.10182 30.166516,30.166516 0 0 1 0.15692,0.10311 30.166516,30.166516 0 0 1 0.15627,0.10408 30.166516,30.166516 0 0 1 0.15531,0.10503 30.166516,30.166516 0 0 1 0.15498,0.10569 30.166516,30.166516 0 0 1 0.15402,0.10698 30.166516,30.166516 0 0 1 0.15338,0.10794 30.166516,30.166516 0 0 1 0.15305,0.10858 30.166516,30.166516 0 0 1 0.15208,0.10988 30.166516,30.166516 0 0 1 0.15144,0.11084 30.166516,30.166516 0 0 1 0.1508,0.11149 30.166516,30.166516 0 0 1 0.14982,0.11245 30.166516,30.166516 0 0 1 0.14951,0.11374 30.166516,30.166516 0 0 1 0.14854,0.11439 30.166516,30.166516 0 0 1 0.14789,0.11535 30.166516,30.166516 0 0 1 0.14726,0.11632 30.166516,30.166516 0 0 1 0.1466,0.11696 30.166516,30.166516 0 0 1 0.14565,0.11825 30.166516,30.166516 0 0 1 0.14499,0.1189 30.166516,30.166516 0 0 1 0.14435,0.11986 30.166516,30.166516 0 0 1 0.14339,0.12083 30.166516,30.166516 0 0 1 0.14306,0.1218 30.166516,30.166516 0 0 1 0.14177,0.12244 30.166516,30.166516 0 0 1 0.14145,0.1234 30.166516,30.166516 0 0 1 0.14049,0.12438 30.166516,30.166516 0 0 1 0.13952,0.12534 30.166516,30.166516 0 0 1 0.13887,0.12599 30.166516,30.166516 0 0 1 0.13823,0.12695 30.166516,30.166516 0 0 1 0.13726,0.12759 30.166516,30.166516 0 0 1 0.13662,0.12889 30.166516,30.166516 0 0 1 0.13566,0.12921 30.166516,30.166516 0 0 1 0.135,0.1305 30.166516,30.166516 0 0 1 0.13404,0.13114 30.166516,30.166516 0 0 1 0.1334,0.1321 30.166516,30.166516 0 0 1 0.13243,0.13276 30.166516,30.166516 0 0 1 0.13178,0.13339 30.166516,30.166516 0 0 1 0.13082,0.13469 30.166516,30.166516 0 0 1 0.12985,0.135 30.166516,30.166516 0 0 1 0.12921,0.1363 30.166516,30.166516 0 0 1 0.12824,0.13694 30.166516,30.166516 0 0 1 0.1276,0.13759 30.166516,30.166516 0 0 1 0.12663,0.13823 30.166516,30.166516 0 0 1 0.12566,0.13952 30.166516,30.166516 0 0 1 0.1247,0.13983 30.166516,30.166516 0 0 1 0.12405,0.14081 30.166516,30.166516 0 0 1 0.12309,0.14145 30.166516,30.166516 0 0 1 0.12211,0.14242 30.166516,30.166516 0 0 1 0.12148,0.14306 30.166516,30.166516 0 0 1 0.12051,0.14404 30.166516,30.166516 0 0 1 0.11954,0.14435 30.166516,30.166516 0 0 1 0.11857,0.14531 30.166516,30.166516 0 0 1 0.11761,0.14596 30.166516,30.166516 0 0 1 0.11697,0.14693 30.166516,30.166516 0 0 1 0.11567,0.14757 30.166516,30.166516 0 0 1 0.11503,0.14822 30.166516,30.166516 0 0 1 0.11406,0.14886 30.166516,30.166516 0 0 1 0.11309,0.14951 30.166516,30.166516 0 0 1 0.11246,0.15047 30.166516,30.166516 0 0 1 0.11116,0.15112 30.166516,30.166516 0 0 1 0.1102,0.15177 30.166516,30.166516 0 0 1 0.10955,0.1524 30.166516,30.166516 0 0 1 0.10826,0.15305 30.166516,30.166516 0 0 1 0.10762,0.1537 30.166516,30.166516 0 0 1 0.10634,0.15433 30.166516,30.166516 0 0 1 0.10568,0.15499 30.166516,30.166516 0 0 1 0.1044,0.15595 30.166516,30.166516 0 0 1 0.10375,0.15627 30.166516,30.166516 0 0 1 0.10278,0.15692 30.166516,30.166516 0 0 1 0.1015,0.15788 30.166516,30.166516 0 0 1 0.10053,0.15821 30.166516,30.166516 0 0 1 0.0999,0.15885 30.166516,30.166516 0 0 1 0.0986,0.1595 30.166516,30.166516 0 0 1 0.0976,0.16013 30.166516,30.166516 0 0 1 0.097,0.16079 30.166516,30.166516 0 0 1 0.0957,0.16142 30.166516,30.166516 0 0 1 0.0947,0.16176 30.166516,30.166516 0 0 1 0.0934,0.16272 30.166516,30.166516 0 0 1 0.0928,0.16303 30.166516,30.166516 0 0 1 0.0915,0.16368 30.166516,30.166516 0 0 1 0.0909,0.16433 30.166516,30.166516 0 0 1 0.0896,0.16465 30.166516,30.166516 0 0 1 0.0886,0.16529 30.166516,30.166516 0 0 1 0.0876,0.16594 30.166516,30.166516 0 0 1 0.0864,0.16659 30.166516,30.166516 0 0 1 0.0857,0.1669 30.166516,30.166516 0 0 1 0.0844,0.16755 30.166516,30.166516 0 0 1 0.0834,0.16788 30.166516,30.166516 0 0 1 0.0822,0.16851 30.166516,30.166516 0 0 1 0.0815,0.16917 30.166516,30.166516 0 0 1 0.0802,0.16948 30.166516,30.166516 0 0 1 0.0789,0.17013 30.166516,30.166516 0 0 1 0.0783,0.17044 30.166516,30.166516 0 0 1 0.077,0.1711 30.166516,30.166516 0 0 1 0.076,0.17141 30.166516,30.166516 0 0 1 0.0751,0.17207 30.166516,30.166516 0 0 1 0.0738,0.17238 30.166516,30.166516 0 0 1 0.0728,0.1727 30.166516,30.166516 0 0 1 0.0719,0.17335 30.166516,30.166516 0 0 1 0.0706,0.17399 30.166516,30.166516 0 0 1 0.0696,0.174 30.166516,30.166516 0 0 1 0.0683,0.17464 30.166516,30.166516 0 0 1 0.0677,0.17528 30.166516,30.166516 0 0 1 0.0661,0.17529 30.166516,30.166516 0 0 1 0.0654,0.17592 30.166516,30.166516 0 0 1 0.0641,0.17625 30.166516,30.166516 0 0 1 0.0628,0.1769 30.166516,30.166516 0 0 1 0.0622,0.17689 30.166516,30.166516 0 0 1 0.0606,0.17754 30.166516,30.166516 0 0 1 0.0599,0.17786 30.166516,30.166516 0 0 1 0.0586,0.17818 30.166516,30.166516 0 0 1 0.0574,0.17851 30.166516,30.166516 0 0 1 0.0564,0.17883 30.166516,30.166516 0 0 1 0.0554,0.17946 30.166516,30.166516 0 0 1 0.0541,0.17948 30.166516,30.166516 0 0 1 0.0528,0.18011 30.166516,30.166516 0 0 1 0.0522,0.18012 30.166516,30.166516 0 0 1 0.0506,0.18043 30.166516,30.166516 0 0 1 0.0496,0.18109 30.166516,30.166516 0 0 1 0.0486,0.18108 30.166516,30.166516 0 0 1 0.0474,0.18141 30.166516,30.166516 0 0 1 0.0464,0.18205 30.166516,30.166516 0 0 1 0.0451,0.18205 30.166516,30.166516 0 0 1 0.0441,0.18237 30.166516,30.166516 0 0 1 0.0428,0.18237 30.166516,30.166516 0 0 1 0.0416,0.18302 30.166516,30.166516 0 0 1 0.0409,0.18301 30.166516,30.166516 0 0 1 0.0393,0.18366 30.166516,30.166516 0 0 1 0.0383,0.18334 30.166516,30.166516 0 0 1 0.0374,0.18398 30.166516,30.166516 0 0 1 0.0358,0.18399 30.166516,30.166516 0 0 1 0.0351,0.1843 30.166516,30.166516 0 0 1 0.0339,0.18463 30.166516,30.166516 0 0 1 0.0325,0.18463 30.166516,30.166516 0 0 1 0.0312,0.18495 30.166516,30.166516 0 0 1 0.0303,0.18526 30.166516,30.166516 0 0 1 0.0293,0.18528 30.166516,30.166516 0 0 1 0.0281,0.18559 30.166516,30.166516 0 0 1 0.0267,0.18559 30.166516,30.166516 0 0 1 0.0258,0.18593 30.166516,30.166516 0 0 1 0.0245,0.1859 30.166516,30.166516 0 0 1 0.0235,0.18592 30.166516,30.166516 0 0 1 0.0223,0.18656 30.166516,30.166516 0 0 1 0.0209,0.18624 30.166516,30.166516 0 0 1 0.02,0.18657 30.166516,30.166516 0 0 1 0.0187,0.18655 30.166516,30.166516 0 0 1 0.0177,0.18689 30.166516,30.166516 0 0 1 0.0164,0.18688 30.166516,30.166516 0 0 1 0.0152,0.18688 30.166516,30.166516 0 0 1 0.0142,0.1872 30.166516,30.166516 0 0 1 0.0129,0.18689 30.166516,30.166516 0 0 1 0.0119,0.18753 30.166516,30.166516 0 0 1 0.0103,0.1872 30.166516,30.166516 0 0 1 0.01,0.1872 30.166516,30.166516 0 0 1 0.008,0.18753 30.166516,30.166516 0 0 1 0.007,0.18753 30.166516,30.166516 0 0 1 0.006,0.18752 30.166516,30.166516 0 0 1 0.005,0.18754 30.166516,30.166516 0 0 1 0.004,0.18752 30.166516,30.166516 0 0 1 0.002,0.18752 30.166516,30.166516 0 0 1 0.001,0.18753 30.166516,30.166516 0 0 1 0,0.11245 30.166516,30.166516 0 0 1 -6.2e-4,0.18753 30.166516,30.166516 0 0 1 -0.002,0.18785 30.166516,30.166516 0 0 1 -0.003,0.18753 30.166516,30.166516 0 0 1 -0.004,0.18753 30.166516,30.166516 0 0 1 -0.005,0.18752 30.166516,30.166516 0 0 1 -0.006,0.18753 30.166516,30.166516 0 0 1 -0.007,0.18721 30.166516,30.166516 0 0 1 -0.009,0.18753 30.166516,30.166516 0 0 1 -0.01,0.1872 30.166516,30.166516 0 0 1 -0.0113,0.1872 30.166516,30.166516 0 0 1 -0.0122,0.1872 30.166516,30.166516 0 0 1 -0.0132,0.18721 30.166516,30.166516 0 0 1 -0.0145,0.1872 30.166516,30.166516 0 0 1 -0.0158,0.18689 30.166516,30.166516 0 0 1 -0.0171,0.18688 30.166516,30.166516 0 0 1 -0.018,0.18656 30.166516,30.166516 0 0 1 -0.019,0.18656 30.166516,30.166516 0 0 1 -0.0206,0.18656 30.166516,30.166516 0 0 1 -0.0213,0.18624 30.166516,30.166516 0 0 1 -0.0229,0.18624 30.166516,30.166516 0 0 1 -0.0238,0.18624 30.166516,30.166516 0 0 1 -0.0248,0.18591 30.166516,30.166516 0 0 1 -0.0264,0.18559 30.166516,30.166516 0 0 1 -0.0271,0.1856 30.166516,30.166516 0 0 1 -0.0287,0.18559 30.166516,30.166516 0 0 1 -0.0297,0.18495 30.166516,30.166516 0 0 1 -0.0306,0.18527 30.166516,30.166516 0 0 1 -0.0319,0.18463 30.166516,30.166516 0 0 1 -0.0332,0.18495 30.166516,30.166516 0 0 1 -0.0342,0.1843 30.166516,30.166516 0 0 1 -0.0355,0.18431 30.166516,30.166516 0 0 1 -0.0364,0.18398 30.166516,30.166516 0 0 1 -0.0377,0.18366 30.166516,30.166516 0 0 1 -0.039,0.18366 30.166516,30.166516 0 0 1 -0.0397,0.18334 30.166516,30.166516 0 0 1 -0.0412,0.18302 30.166516,30.166516 0 0 1 -0.0422,0.18269 30.166516,30.166516 0 0 1 -0.0431,0.18237 30.166516,30.166516 0 0 1 -0.0448,0.18238 30.166516,30.166516 0 0 1 -0.0455,0.18204 30.166516,30.166516 0 0 1 -0.0467,0.18141 30.166516,30.166516 0 0 1 -0.048,0.18141 30.166516,30.166516 0 0 1 -0.0489,0.18108 30.166516,30.166516 0 0 1 -0.0499,0.18076 30.166516,30.166516 0 0 1 -0.0513,0.18044 30.166516,30.166516 0 0 1 -0.0525,0.18043 30.166516,30.166516 0 0 1 -0.0535,0.1798 30.166516,30.166516 0 0 1 -0.0548,0.17947 30.166516,30.166516 0 0 1 -0.0554,0.17883 30.166516,30.166516 0 0 1 -0.0571,0.17883 30.166516,30.166516 0 0 1 -0.058,0.1785 30.166516,30.166516 0 0 1 -0.059,0.17818 30.166516,30.166516 0 0 1 -0.0602,0.17754 30.166516,30.166516 0 0 1 -0.0612,0.17722 30.166516,30.166516 0 0 1 -0.0622,0.17689 30.166516,30.166516 0 0 1 -0.0635,0.17658 30.166516,30.166516 0 0 1 -0.0648,0.17625 30.166516,30.166516 0 0 1 -0.0654,0.1756 30.166516,30.166516 0 0 1 -0.067,0.17528 30.166516,30.166516 0 0 1 -0.0677,0.17496 30.166516,30.166516 0 0 1 -0.069,0.17464 30.166516,30.166516 0 0 1 -0.0699,0.17399 30.166516,30.166516 0 0 1 -0.0712,0.17336 30.166516,30.166516 0 0 1 -0.0722,0.17334 30.166516,30.166516 0 0 1 -0.0731,0.17271 30.166516,30.166516 0 0 1 -0.0744,0.17206 30.166516,30.166516 0 0 1 -0.0754,0.17206 30.166516,30.166516 0 0 1 -0.0764,0.1711 30.166516,30.166516 0 0 1 -0.0776,0.17077 30.166516,30.166516 0 0 1 -0.0783,0.17044 30.166516,30.166516 0 0 1 -0.0799,0.16981 30.166516,30.166516 0 0 1 -0.0805,0.16948 30.166516,30.166516 0 0 1 -0.0818,0.16885 30.166516,30.166516 0 0 1 -0.0828,0.16819 30.166516,30.166516 0 0 1 -0.0838,0.16787 30.166516,30.166516 0 0 1 -0.0847,0.16723 30.166516,30.166516 0 0 1 -0.086,0.16691 30.166516,30.166516 0 0 1 -0.087,0.16625 30.166516,30.166516 0 0 1 -0.088,0.16562 30.166516,30.166516 0 0 1 -0.0889,0.16498 30.166516,30.166516 0 0 1 -0.0899,0.16464 30.166516,30.166516 0 0 1 -0.0912,0.16401 30.166516,30.166516 0 0 1 -0.0922,0.16337 30.166516,30.166516 0 0 1 -0.0931,0.16303 30.166516,30.166516 0 0 1 -0.0941,0.16207 30.166516,30.166516 0 0 1 -0.095,0.16175 30.166516,30.166516 0 0 1 -0.096,0.16111 30.166516,30.166516 0 0 1 -0.097,0.16046 30.166516,30.166516 0 0 1 -0.0983,0.16014 30.166516,30.166516 0 0 1 -0.0992,0.15917 30.166516,30.166516 0 0 1 -0.0999,0.15853 30.166516,30.166516 0 0 1 -0.10117,0.1582 30.166516,30.166516 0 0 1 -0.10214,0.15724 30.166516,30.166516 0 0 1 -0.10278,0.15692 30.166516,30.166516 0 0 1 -0.10408,0.15595 30.166516,30.166516 0 0 1 -0.10504,0.15563 30.166516,30.166516 0 0 1 -0.10601,0.15466 30.166516,30.166516 0 0 1 -0.10666,0.15433 30.166516,30.166516 0 0 1 -0.10793,0.15338 30.166516,30.166516 0 0 1 -0.10891,0.15273 30.166516,30.166516 0 0 1 -0.10956,0.15241 30.166516,30.166516 0 0 1 -0.11084,0.15144 30.166516,30.166516 0 0 1 -0.11148,0.15047 30.166516,30.166516 0 0 1 -0.11277,0.15015 30.166516,30.166516 0 0 1 -0.11342,0.1495 30.166516,30.166516 0 0 1 -0.11439,0.14854 30.166516,30.166516 0 0 1 -0.11535,0.1479 30.166516,30.166516 0 0 1 -0.11632,0.14725 30.166516,30.166516 0 0 1 -0.11729,0.14661 30.166516,30.166516 0 0 1 -0.11792,0.14564 30.166516,30.166516 0 0 1 -0.11923,0.14499 30.166516,30.166516 0 0 1 -0.11986,0.14435 30.166516,30.166516 0 0 1 -0.1205,0.14338 30.166516,30.166516 0 0 1 -0.1218,0.14274 30.166516,30.166516 0 0 1 -0.12244,0.1421 30.166516,30.166516 0 0 1 -0.12373,0.14145 30.166516,30.166516 0 0 1 -0.12405,0.14048 30.166516,30.166516 0 0 1 -0.12534,0.13952 30.166516,30.166516 0 0 1 -0.12599,0.13887 30.166516,30.166516 0 0 1 -0.12695,0.13824 30.166516,30.166516 0 0 1 -0.12792,0.13725 30.166516,30.166516 0 0 1 -0.12857,0.13662 30.166516,30.166516 0 0 1 -0.12952,0.13566 30.166516,30.166516 0 0 1 -0.13018,0.135 30.166516,30.166516 0 0 1 -0.13114,0.13404 30.166516,30.166516 0 0 1 -0.1321,0.1334 30.166516,30.166516 0 0 1 -0.13276,0.13243 30.166516,30.166516 0 0 1 -0.13372,0.13178 30.166516,30.166516 0 0 1 -0.13436,0.13082 30.166516,30.166516 0 0 1 -0.13533,0.12985 30.166516,30.166516 0 0 1 -0.13598,0.12921 30.166516,30.166516 0 0 1 -0.13693,0.12824 30.166516,30.166516 0 0 1 -0.13759,0.1276 30.166516,30.166516 0 0 1 -0.13855,0.12631 30.166516,30.166516 0 0 1 -0.1392,0.12598 30.166516,30.166516 0 0 1 -0.13983,0.1247 30.166516,30.166516 0 0 1 -0.14081,0.12405 30.166516,30.166516 0 0 1 -0.14178,0.12309 30.166516,30.166516 0 0 1 -0.14209,0.12211 30.166516,30.166516 0 0 1 -0.14306,0.12148 30.166516,30.166516 0 0 1 -0.14404,0.12019 30.166516,30.166516 0 0 1 -0.14435,0.11954 30.166516,30.166516 0 0 1 -0.14532,0.11889 30.166516,30.166516 0 0 1 -0.14628,0.11761 30.166516,30.166516 0 0 1 -0.14661,0.11664 30.166516,30.166516 0 0 1 -0.14757,0.11599 30.166516,30.166516 0 0 1 -0.14822,0.11504 30.166516,30.166516 0 0 1 -0.14886,0.11406 30.166516,30.166516 0 0 1 -0.14983,0.1131 30.166516,30.166516 0 0 1 -0.15015,0.11213 30.166516,30.166516 0 0 1 -0.15112,0.11148 30.166516,30.166516 0 0 1 -0.15176,0.1102 30.166516,30.166516 0 0 1 -0.15241,0.10923 30.166516,30.166516 0 0 1 -0.15305,0.10859 30.166516,30.166516 0 0 1 -0.1537,0.10762 30.166516,30.166516 0 0 1 -0.15434,0.10633 30.166516,30.166516 0 0 1 -0.1553,0.10568 30.166516,30.166516 0 0 1 -0.15563,0.1044 30.166516,30.166516 0 0 1 -0.15628,0.10375 30.166516,30.166516 0 0 1 -0.15724,0.10247 30.166516,30.166516 0 0 1 -0.15755,0.10181 30.166516,30.166516 0 0 1 -0.15821,0.10054 30.166516,30.166516 0 0 1 -0.15885,0.0999 30.166516,30.166516 0 0 1 -0.1595,0.0986 30.166516,30.166516 0 0 1 -0.16014,0.0976 30.166516,30.166516 0 0 1 -0.16079,0.0967 30.166516,30.166516 0 0 1 -0.16143,0.0957 30.166516,30.166516 0 0 1 -0.16207,0.0947 30.166516,30.166516 0 0 1 -0.16239,0.0938 30.166516,30.166516 0 0 1 -0.16304,0.0928 30.166516,30.166516 0 0 1 -0.16368,0.0915 30.166516,30.166516 0 0 1 -0.16434,0.0909 30.166516,30.166516 0 0 1 -0.16464,0.0896 30.166516,30.166516 0 0 1 -0.1653,0.0886 30.166516,30.166516 0 0 1 -0.16594,0.0873 30.166516,30.166516 0 0 1 -0.16658,0.0867 30.166516,30.166516 0 0 1 -0.16691,0.0854 30.166516,30.166516 0 0 1 -0.16756,0.0844 30.166516,30.166516 0 0 1 -0.16787,0.0835 30.166516,30.166516 0 0 1 -0.16852,0.0825 30.166516,30.166516 0 0 1 -0.16916,0.0812 30.166516,30.166516 0 0 1 -0.16948,0.0802 30.166516,30.166516 0 0 1 -0.17013,0.0793 30.166516,30.166516 0 0 1 -0.17045,0.0783 30.166516,30.166516 0 0 1 -0.1711,0.077 30.166516,30.166516 0 0 1 -0.17141,0.076 30.166516,30.166516 0 0 1 -0.17206,0.0751 30.166516,30.166516 0 0 1 -0.17239,0.0738 30.166516,30.166516 0 0 1 -0.17303,0.0728 30.166516,30.166516 0 0 1 -0.17335,0.0719 30.166516,30.166516 0 0 1 -0.17367,0.0706 30.166516,30.166516 0 0 1 -0.17431,0.0696 30.166516,30.166516 0 0 1 -0.17465,0.0683 30.166516,30.166516 0 0 1 -0.17496,0.0673 30.166516,30.166516 0 0 1 -0.1756,0.0664 30.166516,30.166516 0 0 1 -0.17561,0.0654 30.166516,30.166516 0 0 1 -0.17657,0.0641 30.166516,30.166516 0 0 1 -0.17658,0.0628 30.166516,30.166516 0 0 1 -0.17721,0.0618 30.166516,30.166516 0 0 1 -0.17722,0.0609 30.166516,30.166516 0 0 1 -0.17787,0.0599 30.166516,30.166516 0 0 1 -0.17818,0.0583 30.166516,30.166516 0 0 1 -0.1785,0.0577 30.166516,30.166516 0 0 1 -0.17915,0.0564 30.166516,30.166516 0 0 1 -0.17915,0.0554 30.166516,30.166516 0 0 1 -0.17947,0.0541 30.166516,30.166516 0 0 1 -0.18012,0.0528 30.166516,30.166516 0 0 1 -0.18012,0.0519 30.166516,30.166516 0 0 1 -0.18076,0.0509 30.166516,30.166516 0 0 1 -0.18076,0.0496 30.166516,30.166516 0 0 1 -0.18109,0.0486 30.166516,30.166516 0 0 1 -0.18172,0.0474 30.166516,30.166516 0 0 1 -0.18174,0.0464 30.166516,30.166516 0 0 1 -0.18204,0.0451 30.166516,30.166516 0 0 1 -0.18238,0.0441 30.166516,30.166516 0 0 1 -0.18269,0.0428 30.166516,30.166516 0 0 1 -0.1827,0.0416 30.166516,30.166516 0 0 1 -0.18334,0.0406 30.166516,30.166516 0 0 1 -0.18334,0.0397 30.166516,30.166516 0 0 1 -0.18366,0.0383 30.166516,30.166516 0 0 1 -0.18366,0.037 30.166516,30.166516 0 0 1 -0.18431,0.0361 30.166516,30.166516 0 0 1 -0.1843,0.0351 30.166516,30.166516 0 0 1 -0.1843,0.0335 30.166516,30.166516 0 0 1 -0.18496,0.0329 30.166516,30.166516 0 0 1 -0.18495,0.0312 30.166516,30.166516 0 0 1 -0.18494,0.0303 30.166516,30.166516 0 0 1 -0.18528,0.0293 30.166516,30.166516 0 0 1 -0.18559,0.0281 30.166516,30.166516 0 0 1 -0.1856,0.0267 30.166516,30.166516 0 0 1 -0.18592,0.0258 30.166516,30.166516 0 0 1 -0.18591,0.0245 30.166516,30.166516 0 0 1 -0.18624,0.0235 30.166516,30.166516 0 0 1 -0.18624,0.0223 30.166516,30.166516 0 0 1 -0.18624,0.021 30.166516,30.166516 0 0 1 -0.18656,0.0199 30.166516,30.166516 0 0 1 -0.18689,0.0187 30.166516,30.166516 0 0 1 -0.18656,0.0177 30.166516,30.166516 0 0 1 -0.18688,0.0165 30.166516,30.166516 0 0 1 -0.18689,0.0152 30.166516,30.166516 0 0 1 -0.1872,0.0142 30.166516,30.166516 0 0 1 -0.18721,0.0129 30.166516,30.166516 0 0 1 -0.18721,0.0116 30.166516,30.166516 0 0 1 -0.1872,0.0107 30.166516,30.166516 0 0 1 -0.18753,0.01 30.166516,30.166516 0 0 1 -0.18721,0.008 30.166516,30.166516 0 0 1 -0.18753,0.007 30.166516,30.166516 0 0 1 -0.18752,0.006 30.166516,30.166516 0 0 1 -0.18753,0.005 30.166516,30.166516 0 0 1 -0.18753,0.004 30.166516,30.166516 0 0 1 -0.18753,0.002 30.166516,30.166516 0 0 1 -0.18753,10e-4 30.166516,30.166516 0 0 1 -0.11277,3.2e-4 30.166516,30.166516 0 0 1 -0.18753,-6.2e-4 30.166516,30.166516 0 0 1 -0.18753,-0.002 30.166516,30.166516 0 0 1 -0.18753,-0.003 30.166516,30.166516 0 0 1 -0.18753,-0.004 30.166516,30.166516 0 0 1 -0.18752,-0.005 30.166516,30.166516 0 0 1 -0.18752,-0.006 30.166516,30.166516 0 0 1 -0.18753,-0.008 30.166516,30.166516 0 0 1 -0.18721,-0.009 30.166516,30.166516 0 0 1 -0.18752,-0.01 30.166516,30.166516 0 0 1 -0.18721,-0.0113 30.166516,30.166516 0 0 1 -0.1872,-0.0122 30.166516,30.166516 0 0 1 -0.18689,-0.0132 30.166516,30.166516 0 0 1 -0.18721,-0.0148 30.166516,30.166516 0 0 1 -0.18688,-0.0155 30.166516,30.166516 0 0 1 -0.18688,-0.0171 30.166516,30.166516 0 0 1 -0.18656,-0.018 30.166516,30.166516 0 0 1 -0.18656,-0.0193 30.166516,30.166516 0 0 1 -0.18657,-0.0203 30.166516,30.166516 0 0 1 -0.18656,-0.0216 30.166516,30.166516 0 0 1 -0.18591,-0.0226 30.166516,30.166516 0 0 1 -0.18624,-0.0238 30.166516,30.166516 0 0 1 -0.18592,-0.0251 30.166516,30.166516 0 0 1 -0.1856,-0.0261 30.166516,30.166516 0 0 1 -0.18559,-0.0274 30.166516,30.166516 0 0 1 -0.18559,-0.0284 30.166516,30.166516 0 0 1 -0.18528,-0.0296 30.166516,30.166516 0 0 1 -0.18495,-0.0306 30.166516,30.166516 0 0 1 -0.18495,-0.0319 30.166516,30.166516 0 0 1 -0.18462,-0.0332 30.166516,30.166516 0 0 1 -0.18431,-0.0342 30.166516,30.166516 0 0 1 -0.18431,-0.0354 30.166516,30.166516 0 0 1 -0.18399,-0.0364 30.166516,30.166516 0 0 1 -0.18365,-0.0377 30.166516,30.166516 0 0 1 -0.18367,-0.039 30.166516,30.166516 0 0 1 -0.18334,-0.04 30.166516,30.166516 0 0 1 -0.18301,-0.0409 30.166516,30.166516 0 0 1 -0.1827,-0.0422 30.166516,30.166516 0 0 1 -0.18269,-0.0435 30.166516,30.166516 0 0 1 -0.18205,-0.0445 30.166516,30.166516 0 0 1 -0.18205,-0.0455 30.166516,30.166516 0 0 1 -0.18173,-0.0467 30.166516,30.166516 0 0 1 -0.1814,-0.048 30.166516,30.166516 0 0 1 -0.18109,-0.049 30.166516,30.166516 0 0 1 -0.18076,-0.0503 30.166516,30.166516 0 0 1 -0.18044,-0.0512 30.166516,30.166516 0 0 1 -0.18012,-0.0522 30.166516,30.166516 0 0 1 -0.17979,-0.0535 30.166516,30.166516 0 0 1 -0.17947,-0.0548 30.166516,30.166516 0 0 1 -0.17915,-0.0557 30.166516,30.166516 0 0 1 -0.17884,-0.0567 30.166516,30.166516 0 0 1 -0.17818,-0.058 30.166516,30.166516 0 0 1 -0.17818,-0.059 30.166516,30.166516 0 0 1 -0.17754,-0.0602 30.166516,30.166516 0 0 1 -0.17754,-0.0612 30.166516,30.166516 0 0 1 -0.1769,-0.0625 30.166516,30.166516 0 0 1 -0.17657,-0.0635 30.166516,30.166516 0 0 1 -0.17593,-0.0644 30.166516,30.166516 0 0 1 -0.17593,-0.0657 30.166516,30.166516 0 0 1 -0.17528,-0.0667 30.166516,30.166516 0 0 1 -0.17464,-0.0677 30.166516,30.166516 0 0 1 -0.17464,-0.0689 30.166516,30.166516 0 0 1 -0.174,-0.0699 30.166516,30.166516 0 0 1 -0.17367,-0.0712 30.166516,30.166516 0 0 1 -0.17302,-0.0722 30.166516,30.166516 0 0 1 -0.17271,-0.0731 30.166516,30.166516 0 0 1 -0.17239,-0.0744 30.166516,30.166516 0 0 1 -0.17174,-0.0754 30.166516,30.166516 0 0 1 -0.17109,-0.0764 30.166516,30.166516 0 0 1 -0.1711,-0.0777 30.166516,30.166516 0 0 1 -0.17012,-0.0786 30.166516,30.166516 0 0 1 -0.16981,-0.0796 30.166516,30.166516 0 0 1 -0.16948,-0.0806 30.166516,30.166516 0 0 1 -0.168847,-0.0818 30.166516,30.166516 0 0 1 -0.16851,-0.0828 30.166516,30.166516 0 0 1 -0.16755,-0.0838 30.166516,30.166516 0 0 1 -0.167547,-0.0847 30.166516,30.166516 0 0 1 -0.16659,-0.086 30.166516,30.166516 0 0 1 -0.16626,-0.087 30.166516,30.166516 0 0 1 -0.165607,-0.088 30.166516,30.166516 0 0 1 -0.1653,-0.0889 30.166516,30.166516 0 0 1 -0.16433,-0.0902 30.166516,30.166516 0 0 1 -0.164007,-0.0909 30.166516,30.166516 0 0 1 -0.16368,-0.0922 30.166516,30.166516 0 0 1 -0.16272,-0.0931 30.166516,30.166516 0 0 1 -0.162397,-0.0941 30.166516,30.166516 0 0 1 -0.16174,-0.0951 30.166516,30.166516 0 0 1 -0.16111,-0.096 30.166516,30.166516 0 0 1 -0.16047,-0.0973 30.166516,30.166516 0 0 1 -0.159807,-0.0979 30.166516,30.166516 0 0 1 -0.15917,-0.0992 30.166516,30.166516 0 0 1 -0.15886,-0.0999 30.166516,30.166516 0 0 1 -0.157877,-0.10118 30.166516,30.166516 0 0 1 -0.15756,-0.10214 30.166516,30.166516 0 0 1 -0.1566,-0.10279 30.166516,30.166516 0 0 1 -0.156267,-0.10407 30.166516,30.166516 0 0 1 -0.15531,-0.10504 30.166516,30.166516 0 0 1 -0.15498,-0.10601 30.166516,30.166516 0 0 1 -0.15402,-0.10698 30.166516,30.166516 0 0 1 -0.153379,-0.10762 30.166516,30.166516 0 0 1 -0.153049,-0.10891 30.166516,30.166516 0 0 1 -0.152083,-0.10987 30.166516,30.166516 0 0 1 -0.15144,-0.11052 30.166516,30.166516 0 0 1 -0.150799,-0.11181 30.166516,30.166516 0 0 1 -0.149826,-0.11245 30.166516,30.166516 0 0 1 -0.149507,-0.11342 30.166516,30.166516 0 0 1 -0.148542,-0.11438 30.166516,30.166516 0 0 1 -0.147892,-0.11535 30.166516,30.166516 0 0 1 -0.147251,-0.11633 30.166516,30.166516 0 0 1 -0.146608,-0.11728 30.166516,30.166516 0 0 1 -0.145642,-0.11793 30.166516,30.166516 0 0 1 -0.144994,-0.11922 30.166516,30.166516 0 0 1 -0.144351,-0.11986 30.166516,30.166516 0 0 1 -0.143709,-0.12083 30.166516,30.166516 0 0 1 -0.142743,-0.12148 30.166516,30.166516 0 0 1 -0.14177,-0.12276 30.166516,30.166516 0 0 1 -0.141451,-0.12341 30.166516,30.166516 0 0 1 -0.140486,-0.12437 30.166516,30.166516 0 0 1 -0.139519,-0.12502 30.166516,30.166516 0 0 1 -0.139194,-0.12599 30.166516,30.166516 0 0 1 -0.137911,-0.12694 30.166516,30.166516 0 0 1 -0.137262,-0.12793 30.166516,30.166516 0 0 1 -0.136619,-0.12856 30.166516,30.166516 0 0 1 -0.135971,-0.12953 30.166516,30.166516 0 0 1 -0.134687,-0.13017 30.166516,30.166516 0 0 1 -0.134362,-0.13114 30.166516,30.166516 0 0 1 -0.133072,-0.13211 30.166516,30.166516 0 0 1 -0.13243,-0.13275 30.166516,30.166516 0 0 1 -0.131787,-0.13372 30.166516,30.166516 0 0 1 -0.130821,-0.13436 30.166516,30.166516 0 0 1 -0.129848,-0.13533 30.166516,30.166516 0 0 1 -0.129212,-0.13598 30.166516,30.166516 0 0 1 -0.12824,-0.13694 30.166516,30.166516 0 0 1 -0.127597,-0.13758 30.166516,30.166516 0 0 1 -0.126624,-0.13855 30.166516,30.166516 0 0 1 -0.125665,-0.13919 30.166516,30.166516 0 0 1 -0.124698,-0.14016 30.166516,30.166516 0 0 1 -0.124049,-0.14081 30.166516,30.166516 0 0 1 -0.123089,-0.14146 30.166516,30.166516 0 0 1 -0.122117,-0.14241 30.166516,30.166516 0 0 1 -0.121474,-0.14306 30.166516,30.166516 0 0 1 -0.120508,-0.14371 30.166516,30.166516 0 0 1 -0.119541,-0.14467 30.166516,30.166516 0 0 1 -0.118575,-0.14532 30.166516,30.166516 0 0 1 -0.117608,-0.14596 30.166516,30.166516 0 0 1 -0.116967,-0.14661 30.166516,30.166516 0 0 1 -0.115669,-0.14757 30.166516,30.166516 0 0 1 -0.115033,-0.14822 30.166516,30.166516 0 0 1 -0.114061,-0.14886 30.166516,30.166516 0 0 1 -0.1131,-0.14983 30.166516,30.166516 0 0 1 -0.112452,-0.15015 30.166516,30.166516 0 0 1 -0.111161,-0.15111 30.166516,30.166516 0 0 1 -0.110201,-0.15177 30.166516,30.166516 0 0 1 -0.109553,-0.1524 30.166516,30.166516 0 0 1 -0.108262,-0.15305 30.166516,30.166516 0 0 1 -0.107619,-0.1537 30.166516,30.166516 0 0 1 -0.106329,-0.15466 30.166516,30.166516 0 0 1 -0.105687,-0.15498 30.166516,30.166516 0 0 1 -0.10472,-0.15563 30.166516,30.166516 0 0 1 -0.10343,-0.15659 30.166516,30.166516 0 0 1 -0.102787,-0.15692 30.166516,30.166516 0 0 1 -0.101497,-0.15757 30.166516,30.166516 0 0 1 -0.100848,-0.1582 30.166516,30.166516 0 0 1 -0.09956,-0.15918 30.166516,30.166516 0 0 1 -0.0986,-0.15949 30.166516,30.166516 0 0 1 -0.09795,-0.16014 30.166516,30.166516 0 0 1 -0.09667,-0.16046 30.166516,30.166516 0 0 1 -0.0957,-0.16143 30.166516,30.166516 0 0 1 -0.09473,-0.16207 30.166516,30.166516 0 0 1 -0.09344,-0.1624 30.166516,30.166516 0 0 1 -0.0928,-0.16303 30.166516,30.166516 0 0 1 -0.09183,-0.16368 30.166516,30.166516 0 0 1 -0.09055,-0.16433 30.166516,30.166516 0 0 1 -0.08958,-0.16465 30.166516,30.166516 0 0 1 -0.08861,-0.16562 30.166516,30.166516 0 0 1 -0.08764,-0.16562 30.166516,30.166516 0 0 1 -0.08635,-0.16657 30.166516,30.166516 0 0 1 -0.08571,-0.16691 30.166516,30.166516 0 0 1 -0.08442,-0.16755 30.166516,30.166516 0 0 1 -0.08345,-0.1682 30.166516,30.166516 0 0 1 -0.08217,-0.16851 30.166516,30.166516 0 0 1 -0.08152,-0.16885 30.166516,30.166516 0 0 1 -0.08023,-0.16948 30.166516,30.166516 0 0 1 -0.07927,-0.17013 30.166516,30.166516 0 0 1 -0.07798,-0.17076 30.166516,30.166516 0 0 1 -0.077,-0.17078 30.166516,30.166516 0 0 1 -0.07604,-0.17173 30.166516,30.166516 0 0 1 -0.07507,-0.17175 30.166516,30.166516 0 0 1 -0.07379,-0.17238 30.166516,30.166516 0 0 1 -0.07282,-0.17302 30.166516,30.166516 0 0 1 -0.07185,-0.17335 30.166516,30.166516 0 0 1 -0.07056,-0.17368 30.166516,30.166516 0 0 1 -0.0696,-0.17431 30.166516,30.166516 0 0 1 -0.06863,-0.17464 30.166516,30.166516 0 0 1 -0.06735,-0.17496 30.166516,30.166516 0 0 1 -0.06637,-0.1756 30.166516,30.166516 0 0 1 -0.06509,-0.17593 30.166516,30.166516 0 0 1 -0.06412,-0.17625 30.166516,30.166516 0 0 1 -0.06316,-0.17658 30.166516,30.166516 0 0 1 -0.06185,-0.17721 30.166516,30.166516 0 0 1 -0.06092,-0.17722 30.166516,30.166516 0 0 1 -0.05961,-0.17787 30.166516,30.166516 0 0 1 -0.05867,-0.17818 30.166516,30.166516 0 0 1 -0.05736,-0.17882 30.166516,30.166516 0 0 1 -0.05637,-0.17882 30.166516,30.166516 0 0 1 -0.05543,-0.17916 30.166516,30.166516 0 0 1 -0.05412,-0.17979 30.166516,30.166516 0 0 1 -0.05319,-0.1798 30.166516,30.166516 0 0 1 -0.05188,-0.18011 30.166516,30.166516 0 0 1 -0.05057,-0.18076 30.166516,30.166516 0 0 1 -0.04994,-0.18076 30.166516,30.166516 0 0 1 -0.04832,-0.18141 30.166516,30.166516 0 0 1 -0.04739,-0.1814 30.166516,30.166516 0 0 1 -0.04639,-0.18173 30.166516,30.166516 0 0 1 -0.04514,-0.18205 30.166516,30.166516 0 0 1 -0.04415,-0.18237 30.166516,30.166516 0 0 1 -0.04284,-0.18269 30.166516,30.166516 0 0 1 -0.0419,-0.1827 30.166516,30.166516 0 0 1 -0.04059,-0.18334 30.166516,30.166516 0 0 1 -0.03928,-0.18334 30.166516,30.166516 0 0 1 -0.03835,-0.18366 30.166516,30.166516 0 0 1 -0.03741,-0.18397 30.166516,30.166516 0 0 1 -0.0361,-0.18399 30.166516,30.166516 0 0 1 -0.03479,-0.18431 30.166516,30.166516 0 0 1 -0.03386,-0.18462 30.166516,30.166516 0 0 1 -0.03255,-0.18463 30.166516,30.166516 0 0 1 -0.03155,-0.18495 30.166516,30.166516 0 0 1 -0.0303,-0.18494 30.166516,30.166516 0 0 1 -0.02899,-0.1856 30.166516,30.166516 0 0 1 -0.02806,-0.18527 30.166516,30.166516 0 0 1 -0.02675,-0.1856 30.166516,30.166516 0 0 1 -0.02575,-0.18591 30.166516,30.166516 0 0 1 -0.0245,-0.18592 30.166516,30.166516 0 0 1 -0.02351,-0.18623 30.166516,30.166516 0 0 1 -0.02226,-0.18624 30.166516,30.166516 0 0 1 -0.02095,-0.18657 30.166516,30.166516 0 0 1 -0.01995,-0.18624 30.166516,30.166516 0 0 1 -0.01871,-0.18688 30.166516,30.166516 0 0 1 -0.01771,-0.18656 30.166516,30.166516 0 0 1 -0.01646,-0.18688 30.166516,30.166516 0 0 1 -0.01515,-0.1872 30.166516,30.166516 0 0 1 -0.01415,-0.18688 30.166516,30.166516 0 0 1 -0.01291,-0.18721 30.166516,30.166516 0 0 1 -0.01191,-0.18721 30.166516,30.166516 0 0 1 -0.0106,-0.1872 30.166516,30.166516 0 0 1 -0.0094,-0.18753 30.166516,30.166516 0 0 1 -0.0084,-0.1872 30.166516,30.166516 0 0 1 -0.0071,-0.18753 30.166516,30.166516 0 0 1 -0.0056,-0.18753 30.166516,30.166516 0 0 1 -0.005,-0.18752 30.166516,30.166516 0 0 1 -0.0037,-0.18753 30.166516,30.166516 0 0 1 -0.0025,-0.18752 30.166516,30.166516 0 0 1 -0.0012,-0.18753 30.166516,30.166516 0 0 1 0,-0.11278 30.166516,30.166516 0 0 1 3.24e-4,-0.18753 30.166516,30.166516 0 0 1 0.0019,-0.18752 30.166516,30.166516 0 0 1 0.0031,-0.18753 30.166516,30.166516 0 0 1 0.0044,-0.18753 30.166516,30.166516 0 0 1 0.005,-0.18752 30.166516,30.166516 0 0 1 0.0064,-0.18753 30.166516,30.166516 0 0 1 0.0074,-0.18753 30.166516,30.166516 0 0 1 0.0087,-0.18721 30.166516,30.166516 0 0 1 0.01,-0.18751 30.166516,30.166516 0 0 1 0.01129,-0.18721 30.166516,30.166516 0 0 1 0.01222,-0.18721 30.166516,30.166516 0 0 1 0.01322,-0.18721 30.166516,30.166516 0 0 1 0.01453,-0.18688 30.166516,30.166516 0 0 1 0.01577,-0.18687 30.166516,30.166516 0 0 1 0.01708,-0.18689 30.166516,30.166516 0 0 1 0.01802,-0.18656 30.166516,30.166516 0 0 1 0.01902,-0.18689 30.166516,30.166516 0 0 1 0.02033,-0.18623 30.166516,30.166516 0 0 1 0.02157,-0.18656 30.166516,30.166516 0 0 1 0.02288,-0.18624 30.166516,30.166516 0 0 1 0.02382,-0.18591 30.166516,30.166516 0 0 1 0.02482,-0.18592 30.166516,30.166516 0 0 1 0.02644,-0.18592 30.166516,30.166516 0 0 1 0.02706,-0.1856 30.166516,30.166516 0 0 1 0.02868,-0.18526 30.166516,30.166516 0 0 1 0.02962,-0.18527 30.166516,30.166516 0 0 1 0.03062,-0.18495 30.166516,30.166516 0 0 1 0.03192,-0.18495 30.166516,30.166516 0 0 1 0.03317,-0.18463 30.166516,30.166516 0 0 1 0.03417,-0.18431 30.166516,30.166516 0 0 1 0.03542,-0.1843 30.166516,30.166516 0 0 1 0.03641,-0.18398 30.166516,30.166516 0 0 1 0.03772,-0.18398 30.166516,30.166516 0 0 1 0.03866,-0.18334 30.166516,30.166516 0 0 1 0.03997,-0.18334 30.166516,30.166516 0 0 1 0.04121,-0.18302 30.166516,30.166516 0 0 1 0.04221,-0.1827 30.166516,30.166516 0 0 1 0.04321,-0.18269 30.166516,30.166516 0 0 1 0.04446,-0.18204 30.166516,30.166516 0 0 1 0.04577,-0.18205 30.166516,30.166516 0 0 1 0.0467,-0.18173 30.166516,30.166516 0 0 1 0.04801,-0.18141 30.166516,30.166516 0 0 1 0.04895,-0.18108 30.166516,30.166516 0 0 1 0.04994,-0.18076 30.166516,30.166516 0 0 1 0.05125,-0.18044 30.166516,30.166516 0 0 1 0.0525,-0.18011 30.166516,30.166516 0 0 1 0.0535,-0.1798 30.166516,30.166516 0 0 1 0.05443,-0.17947 30.166516,30.166516 0 0 1 0.05574,-0.17916 30.166516,30.166516 0 0 1 0.05705,-0.17881 30.166516,30.166516 0 0 1 0.05799,-0.17819 30.166516,30.166516 0 0 1 0.05899,-0.17818 30.166516,30.166516 0 0 1 0.06023,-0.17754 30.166516,30.166516 0 0 1 0.06123,-0.17754 30.166516,30.166516 0 0 1 0.06217,-0.1769 30.166516,30.166516 0 0 1 0.06347,-0.17657 30.166516,30.166516 0 0 1 0.06476,-0.17592 30.166516,30.166516 0 0 1 0.06541,-0.17593 30.166516,30.166516 0 0 1 0.0667,-0.17528 30.166516,30.166516 0 0 1 0.06799,-0.17497 30.166516,30.166516 0 0 1 0.06895,-0.17431 30.166516,30.166516 0 0 1 0.06992,-0.174 30.166516,30.166516 0 0 1 0.07121,-0.17366 30.166516,30.166516 0 0 1 0.07218,-0.17304 30.166516,30.166516 0 0 1 0.07314,-0.1727 30.166516,30.166516 0 0 1 0.07443,-0.17238 30.166516,30.166516 0 0 1 0.0754,-0.17174 30.166516,30.166516 0 0 1 0.07636,-0.17142 30.166516,30.166516 0 0 1 0.07733,-0.17077 30.166516,30.166516 0 0 1 0.07863,-0.17012 30.166516,30.166516 0 0 1 0.07959,-0.17013 30.166516,30.166516 0 0 1 0.08087,-0.16916 30.166516,30.166516 0 0 1 0.08184,-0.16885 30.166516,30.166516 0 0 1 0.08281,-0.16852 30.166516,30.166516 0 0 1 0.08378,-0.16787 30.166516,30.166516 0 0 1 0.08474,-0.16722 30.166516,30.166516 0 0 1 0.08603,-0.16658 30.166516,30.166516 0 0 1 0.087,-0.16627 30.166516,30.166516 0 0 1 0.08797,-0.16561 30.166516,30.166516 0 0 1 0.08893,-0.16529 30.166516,30.166516 0 0 1 0.0899,-0.16466 30.166516,30.166516 0 0 1 0.09118,-0.16401 30.166516,30.166516 0 0 1 0.09216,-0.16335 30.166516,30.166516 0 0 1 0.09312,-0.16272 30.166516,30.166516 0 0 1 0.09409,-0.16239 30.166516,30.166516 0 0 1 0.09506,-0.16176 30.166516,30.166516 0 0 1 0.09602,-0.1611 30.166516,30.166516 0 0 1 0.09699,-0.16047 30.166516,30.166516 0 0 1 0.09827,-0.1598 30.166516,30.166516 0 0 1 0.09892,-0.15918 30.166516,30.166516 0 0 1 0.100206,-0.15885 30.166516,30.166516 0 0 1 0.101173,-0.15788 30.166516,30.166516 0 0 1 0.101821,-0.15757 30.166516,30.166516 0 0 1 0.103111,-0.15659 30.166516,30.166516 0 0 1 0.104072,-0.15628 30.166516,30.166516 0 0 1 0.105044,-0.1553 30.166516,30.166516 0 0 1 0.105681,-0.15498 30.166516,30.166516 0 0 1 0.106977,-0.15402 30.166516,30.166516 0 0 1 0.107944,-0.15369 30.166516,30.166516 0 0 1 0.108904,-0.15273 30.166516,30.166516 0 0 1 0.109553,-0.15209 30.166516,30.166516 0 0 1 0.110843,-0.15144 30.166516,30.166516 0 0 1 0.111486,-0.1508 30.166516,30.166516 0 0 1 0.112776,-0.15015 30.166516,30.166516 0 0 1 0.113418,-0.14918 30.166516,30.166516 0 0 1 0.114385,-0.14886 30.166516,30.166516 0 0 1 0.115351,-0.1479 30.166516,30.166516 0 0 1 0.116318,-0.14725 30.166516,30.166516 0 0 1 0.11729,-0.14628 30.166516,30.166516 0 0 1 0.117927,-0.14564 30.166516,30.166516 0 0 1 0.118899,-0.14532 30.166516,30.166516 0 0 1 0.119859,-0.14402 30.166516,30.166516 0 0 1 0.120832,-0.14371 30.166516,30.166516 0 0 1 0.121799,-0.14274 30.166516,30.166516 0 0 1 0.122441,-0.1421 30.166516,30.166516 0 0 1 0.123407,-0.14113 30.166516,30.166516 0 0 1 0.124373,-0.14048 30.166516,30.166516 0 0 1 0.125341,-0.13984 30.166516,30.166516 0 0 1 0.125988,-0.13888 30.166516,30.166516 0 0 1 0.126949,-0.13791 30.166516,30.166516 0 0 1 0.127921,-0.13758 30.166516,30.166516 0 0 1 0.128564,-0.1363 30.166516,30.166516 0 0 1 0.12953,-0.13597 30.166516,30.166516 0 0 1 0.130173,-0.13468 30.166516,30.166516 0 0 1 0.131138,-0.13437 30.166516,30.166516 0 0 1 0.132106,-0.13307 30.166516,30.166516 0 0 1 0.132753,-0.13275 30.166516,30.166516 0 0 1 0.133721,-0.13147 30.166516,30.166516 0 0 1 0.134362,-0.13082 30.166516,30.166516 0 0 1 0.135329,-0.13017 30.166516,30.166516 0 0 1 0.135971,-0.12889 30.166516,30.166516 0 0 1 0.136944,-0.12856 30.166516,30.166516 0 0 1 0.137586,-0.12727 30.166516,30.166516 0 0 1 0.138552,-0.12663 30.166516,30.166516 0 0 1 0.139195,-0.12567 30.166516,30.166516 0 0 1 0.139837,-0.12501 30.166516,30.166516 0 0 1 0.14081,-0.12374 30.166516,30.166516 0 0 1 0.141776,-0.12308 30.166516,30.166516 0 0 1 0.142094,-0.12245 30.166516,30.166516 0 0 1 0.143061,-0.12115 30.166516,30.166516 0 0 1 0.144033,-0.1205 30.166516,30.166516 0 0 1 0.144351,-0.11954 30.166516,30.166516 0 0 1 0.145318,-0.11858 30.166516,30.166516 0 0 1 0.146284,-0.11761 30.166516,30.166516 0 0 1 0.146608,-0.11696 30.166516,30.166516 0 0 1 0.147575,-0.116 30.166516,30.166516 0 0 1 0.148217,-0.11502 30.166516,30.166516 0 0 1 0.148859,-0.11375 30.166516,30.166516 0 0 1 0.149832,-0.11342 30.166516,30.166516 0 0 1 0.15015,-0.11212 30.166516,30.166516 0 0 1 0.151117,-0.11117 30.166516,30.166516 0 0 1 0.151765,-0.1102 30.166516,30.166516 0 0 1 0.152407,-0.10955 30.166516,30.166516 0 0 1 0.153049,-0.10826 30.166516,30.166516 0 0 1 0.153698,-0.10762 30.166516,30.166516 0 0 1 0.15434,-0.10665 30.166516,30.166516 0 0 1 0.15531,-0.10537 30.166516,30.166516 0 0 1 0.155617,-0.10472 30.166516,30.166516 0 0 1 0.15628,-0.10343 30.166516,30.166516 0 0 1 0.15724,-0.10278 30.166516,30.166516 0 0 1 0.15756,-0.1015 30.166516,30.166516 0 0 1 0.158197,-0.10085 30.166516,30.166516 0 0 1 0.15886,-0.0996 30.166516,30.166516 0 0 1 0.15949,-0.0986 30.166516,30.166516 0 0 1 0.160137,-0.0979 30.166516,30.166516 0 0 1 0.16078,-0.0967 30.166516,30.166516 0 0 1 0.16143,-0.0957 30.166516,30.166516 0 0 1 0.161757,-0.0947 30.166516,30.166516 0 0 1 0.16272,-0.0938 30.166516,30.166516 0 0 1 0.16303,-0.0925 30.166516,30.166516 0 0 1 0.16369,-0.0918 30.166516,30.166516 0 0 1 0.164327,-0.0905 30.166516,30.166516 0 0 1 0.16465,-0.0896 30.166516,30.166516 0 0 1 0.16529,-0.0886 30.166516,30.166516 0 0 1 0.165947,-0.0876 30.166516,30.166516 0 0 1 0.16658,-0.0863 30.166516,30.166516 0 0 1 0.16691,-0.0857 30.166516,30.166516 0 0 1 0.167537,-0.0844 30.166516,30.166516 0 0 1 0.16788,-0.0834 30.166516,30.166516 0 0 1 0.16852,-0.0822 30.166516,30.166516 0 0 1 0.169157,-0.0815 30.166516,30.166516 0 0 1 0.16948,-0.0802 30.166516,30.166516 0 0 1 0.17013,-0.0793 30.166516,30.166516 0 0 1 0.17045,-0.078 30.166516,30.166516 0 0 1 0.1711,-0.0773 30.166516,30.166516 0 0 1 0.17142,-0.0757 30.166516,30.166516 0 0 1 0.17206,-0.0751 30.166516,30.166516 0 0 1 0.17238,-0.0738 30.166516,30.166516 0 0 1 0.17303,-0.0728 30.166516,30.166516 0 0 1 0.17335,-0.0718 30.166516,30.166516 0 0 1 0.17367,-0.0706 30.166516,30.166516 0 0 1 0.17432,-0.0696 30.166516,30.166516 0 0 1 0.17464,-0.0686 30.166516,30.166516 0 0 1 0.17496,-0.0673 30.166516,30.166516 0 0 1 0.17528,-0.0664 30.166516,30.166516 0 0 1 0.17593,-0.0651 30.166516,30.166516 0 0 1 0.17625,-0.0641 30.166516,30.166516 0 0 1 0.1769,-0.0632 30.166516,30.166516 0 0 1 0.17689,-0.0618 30.166516,30.166516 0 0 1 0.17754,-0.0609 30.166516,30.166516 0 0 1 0.17786,-0.0596 30.166516,30.166516 0 0 1 0.17819,-0.0586 30.166516,30.166516 0 0 1 0.1785,-0.0574 30.166516,30.166516 0 0 1 0.17915,-0.0564 30.166516,30.166516 0 0 1 0.17915,-0.0554 30.166516,30.166516 0 0 1 0.17947,-0.0541 30.166516,30.166516 0 0 1 0.18012,-0.0532 30.166516,30.166516 0 0 1 0.18012,-0.0519 30.166516,30.166516 0 0 1 0.18076,-0.0509 30.166516,30.166516 0 0 1 0.18076,-0.0496 30.166516,30.166516 0 0 1 0.18109,-0.0483 30.166516,30.166516 0 0 1 0.18172,-0.0477 30.166516,30.166516 0 0 1 0.18174,-0.0461 30.166516,30.166516 0 0 1 0.18204,-0.0451 30.166516,30.166516 0 0 1 0.18238,-0.0441 30.166516,30.166516 0 0 1 0.18269,-0.0428 30.166516,30.166516 0 0 1 0.1827,-0.0419 30.166516,30.166516 0 0 1 0.18334,-0.0406 30.166516,30.166516 0 0 1 0.18333,-0.0393 30.166516,30.166516 0 0 1 0.18367,-0.0383 30.166516,30.166516 0 0 1 0.18366,-0.0374 30.166516,30.166516 0 0 1 0.18431,-0.0361 30.166516,30.166516 0 0 1 0.1843,-0.0348 30.166516,30.166516 0 0 1 0.1843,-0.0339 30.166516,30.166516 0 0 1 0.18496,-0.0326 30.166516,30.166516 0 0 1 0.18495,-0.0315 30.166516,30.166516 0 0 1 0.18495,-0.0303 30.166516,30.166516 0 0 1 0.18527,-0.029 30.166516,30.166516 0 0 1 0.1856,-0.0281 30.166516,30.166516 0 0 1 0.18559,-0.0271 30.166516,30.166516 0 0 1 0.18592,-0.0254 30.166516,30.166516 0 0 1 0.18591,-0.0245 30.166516,30.166516 0 0 1 0.18624,-0.0235 30.166516,30.166516 0 0 1 0.18624,-0.0223 30.166516,30.166516 0 0 1 0.18624,-0.0209 30.166516,30.166516 0 0 1 0.18656,-0.02 30.166516,30.166516 0 0 1 0.18656,-0.0187 30.166516,30.166516 0 0 1 0.18689,-0.0177 30.166516,30.166516 0 0 1 0.18688,-0.0165 30.166516,30.166516 0 0 1 0.18688,-0.0152 30.166516,30.166516 0 0 1 0.18721,-0.0142 30.166516,30.166516 0 0 1 0.1872,-0.0129 30.166516,30.166516 0 0 1 0.18721,-0.0119 30.166516,30.166516 0 0 1 0.18721,-0.0107 30.166516,30.166516 0 0 1 0.1872,-0.009 30.166516,30.166516 0 0 1 0.18753,-0.008 30.166516,30.166516 0 0 1 0.18753,-0.007 30.166516,30.166516 0 0 1 0.18752,-0.006 30.166516,30.166516 0 0 1 0.18753,-0.005 30.166516,30.166516 0 0 1 0.18753,-0.004 30.166516,30.166516 0 0 1 0.18752,-0.002 30.166516,30.166516 0 0 1 0.18753,-10e-4 30.166516,30.166516 0 0 1 0.11245,-3.3e-4 z"
         style="fill:#fbcb2d;fill-opacity:1;fill-rule:evenodd;stroke-width:0.16497301"
         id="path12930" />
      <path
         inkscape:connector-curvature="0"
         inkscape:original-d="m 101.24818,415.00765 c -0.11789,-0.004 -0.19563,0.0152 -0.23317,0.0565 -0.007,0.008 -0.0109,0.0279 -0.0115,0.0605 -0.39939,0.55705 -0.96885,1.24262 -1.708224,2.05654 -1.016334,1.11881 -1.688851,1.8165 -2.017618,2.09304 -0.3264,0.27397 -0.563197,0.41474 -0.710467,0.42213 -0.0693,0.0549 -0.1109,0.09 -0.12498,0.10553 -0.12441,0.13695 -0.12456,0.26239 0,0.37604 0.0318,0.029 0.0645,0.0515 0.0981,0.0679 0.0335,0.0164 0.0571,0.0309 0.0703,0.0429 0.0212,0.0193 0.0428,0.0486 0.0653,0.0879 0.0224,0.0393 0.0403,0.0652 0.0536,0.0773 0.053,0.0484 0.129777,0.0546 0.230257,0.0186 0.10312,-0.0335 0.20387,-0.10466 0.30247,-0.21319 0.0798,-0.0878 0.176437,-0.20734 0.289937,-0.35896 0.11585,-0.15421 0.20078,-0.26117 0.25476,-0.32059 0.0165,-0.0181 0.340847,-0.34592 0.973244,-0.98337 0.632377,-0.63747 1.456711,-1.51548 2.473061,-2.63429 l 0.14444,-0.15884 c 0.0798,-0.0878 0.17489,-0.13114 0.28514,-0.12979 0.0599,-0.0446 0.0968,-0.0748 0.11086,-0.0903 0.0634,-0.0698 0.10037,-0.13973 0.11112,-0.21026 0.0108,-0.0705 -0.004,-0.12389 -0.0434,-0.16016 l -0.024,-0.0219 -0.19268,-0.0837 c -0.14151,-0.063 -0.27364,-0.0962 -0.39654,-0.0997 z m 23.14903,0.47035 c -0.0156,10e-4 -0.0292,0.008 -0.041,0.0208 -0.0118,0.0128 -0.0517,0.0902 -0.11939,0.23212 -0.0703,0.1395 -0.0781,0.27499 -0.0237,0.4064 0.0544,0.13141 0.0854,0.20055 0.0933,0.20786 0.0184,0.0171 0.057,0.0337 0.1154,0.0499 0.0608,0.0135 0.10155,0.0301 0.1226,0.0496 l 0.008,0.008 1.34365,1.14646 c 0.57603,0.53428 1.1109,1.04696 1.60457,1.53821 0.49605,0.48867 0.85958,0.85927 1.0905,1.11154 0.23091,0.25228 0.36287,0.40541 0.39574,0.4597 0.0302,0.0519 0.0527,0.10149 0.0677,0.14871 0.015,0.0472 0.0358,0.083 0.0621,0.10739 0.0842,0.0781 0.25174,0.005 0.50288,-0.21905 0.0557,0.0136 0.10608,-0.004 0.1511,-0.0528 l 0.0213,-0.0229 c 0.045,-0.0487 0.0851,-0.1236 0.11992,-0.22466 0.0372,-0.1036 0.036,-0.17366 -0.004,-0.21025 -0.0894,-0.0829 -0.2744,-0.19493 -0.55458,-0.33578 -0.28279,-0.1433 -0.66868,-0.44191 -1.15791,-0.8957 l -1.59737,-1.54592 -0.30699,-0.2705 c -0.53394,-0.49525 -0.99111,-0.97848 -1.37113,-1.44999 -0.0454,-0.0565 -0.0721,-0.0883 -0.0799,-0.0957 -0.10785,-0.10003 -0.2077,-0.14518 -0.29981,-0.13539 -0.0221,0.008 -0.0524,0.004 -0.0909,-0.0128 -0.0193,-0.0108 -0.0369,-0.0156 -0.0525,-0.0147 z m -20.10567,2.22151 -1.25678,0.27102 c -0.33149,0.0661 -0.74365,0.14117 -1.23681,0.22519 -0.48814,0.0839 -0.79858,0.14546 -0.93138,0.18495 -0.0197,0.006 -0.0938,0.002 -0.22225,-0.0112 -0.12585,-0.0109 -0.22778,-0.0188 -0.30568,-0.0237 -0.0703,-0.0453 -0.14792,-0.0854 -0.23264,-0.12018 -0.170747,0.0332 -0.373277,0.0373 -0.607617,0.0125 -0.0964,0.0208 -0.165877,0.0545 -0.208127,0.10099 -0.0798,0.0879 -0.0706,0.27811 0.0272,0.57056 0.170517,0.33515 0.303157,0.76801 0.397877,1.29863 0.0997,0.53046 0.21984,1.10788 0.360297,1.73221 0.14545,0.62417 0.20266,1.05187 0.17162,1.28345 -0.0287,0.22899 0.0178,0.3991 0.13964,0.51032 0.12191,0.11124 0.26617,0.15551 0.43252,0.13245 0.17135,-0.0232 0.3249,-0.10996 0.46104,-0.25983 0.0798,-0.0878 0.0886,-0.19091 0.0264,-0.30913 -0.0412,-0.0186 -0.071,-0.0364 -0.0895,-0.0533 -0.0291,-0.0266 -0.0955,-0.13209 -0.19936,-0.31659 -0.1038,-0.1845 -0.13582,-0.29878 -0.0959,-0.34272 l 0.007,-0.008 c -0.004,-0.0175 -0.0192,-0.0507 -0.0472,-0.0999 -0.028,-0.0492 -0.0493,-0.0899 -0.0637,-0.12206 0.006,-0.0604 -0.001,-0.11894 -0.0221,-0.17588 -0.0183,-0.0545 -0.0309,-0.11783 -0.0378,-0.19028 -0.007,-0.0724 -0.0389,-0.17055 -0.0965,-0.29394 -0.0119,-0.0723 -0.0264,-0.18701 -0.0434,-0.34432 -0.0144,-0.15488 -0.0314,-0.2695 -0.0509,-0.34404 -0.0195,-0.0745 -0.0504,-0.21131 -0.0925,-0.4104 -0.0395,-0.19666 -0.0914,-0.43312 -0.15563,-0.70913 -0.0617,-0.27362 -0.097,-0.48554 -0.10607,-0.63559 -0.007,-0.15264 0.038,-0.28181 0.13432,-0.38775 0.0281,-0.031 0.0965,-0.0609 0.20492,-0.0896 0.11108,-0.0262 0.20568,-0.0555 0.28382,-0.0882 0.0124,-0.003 0.0436,-0.006 0.0936,-0.007 0.0499,-10e-4 0.11754,-10e-4 0.2028,0.001 l 0.31553,0.004 0.59348,-0.12498 0.69662,-0.0946 c 0.37297,-0.0425 0.57785,-0.0894 0.6148,-0.1407 0.42915,-0.0243 0.77264,-0.0155 1.03053,0.0261 0.0911,-0.0256 0.16012,-0.0642 0.20706,-0.11592 l 0.0282,-0.0309 c 0.0469,-0.0517 0.0796,-0.10916 0.0983,-0.17242 -0.0191,-0.0269 -0.0592,-0.0683 -0.1202,-0.12392 -0.0716,-0.0653 -0.17327,-0.13456 -0.30541,-0.20787 z m 17.22673,0.34377 c -0.1593,-0.004 -0.31676,0.0505 -0.47222,0.16337 -0.20349,0.1478 -0.23262,0.31965 -0.0877,0.51566 l 0.0192,0.0261 0.10394,0.0173 c 0.0426,0.04 0.14922,0.13099 0.31953,0.27315 0.17029,0.14217 0.31179,0.28961 0.42478,0.44239 l 0.35071,0.50954 c 0.0405,0.0547 0.10193,0.14983 0.18441,0.28488 0.0804,0.13216 0.14739,0.23413 0.20067,0.3062 l 1.1851,1.58511 c 0.42847,0.57939 0.74123,1.05241 0.93832,1.41881 l 0.0832,0.1122 c 0.15134,0.20466 0.23419,0.36399 0.24865,0.47755 0.035,0.0943 0.0717,0.16718 0.11005,0.21907 0.0469,0.0634 0.11595,0.10396 0.20733,0.12178 -10e-4,-0.0481 0.004,-0.085 0.0157,-0.11087 l 0.12924,-0.10712 c 0.1385,-0.10059 0.26401,-0.15427 0.37656,-0.16071 l 0.008,-0.006 c 0.0142,-0.0102 0.0362,-0.0772 0.0664,-0.20093 0.20628,-0.16754 0.36728,-0.29347 0.48315,-0.37763 l 0.80561,-0.58495 c 0.2459,-0.1786 0.45624,-0.35799 0.63134,-0.53832 0.0148,0.002 0.0479,0.0116 0.0989,0.0277 0.056,0.017 0.0966,0.0163 0.12205,-0.002 l 0.0256,-0.0186 -0.0109,-0.085 c 0.0256,0.0346 0.0928,0.0256 0.20174,-0.0269 0.11383,-0.0517 0.18923,-0.0908 0.22598,-0.11752 0.0395,-0.0287 0.0559,-0.0829 0.0493,-0.16229 -0.004,-0.0815 -0.0483,-0.17971 -0.13353,-0.29503 -0.0682,-0.0922 -0.14863,-0.15129 -0.24144,-0.17693 l -0.27555,0.20013 -0.12207,0.0554 c -0.0481,0.0349 -0.0919,0.0843 -0.13137,0.14844 -0.0388,0.0592 -0.065,0.0939 -0.0791,0.1042 -0.006,0.004 -0.0186,0.004 -0.0383,0.001 -0.11132,0.19606 -0.32948,0.41207 -0.65452,0.64811 -0.12153,0.0883 -0.32678,0.22188 -0.61585,0.40081 -0.2884,0.17401 -0.44787,0.25199 -0.47837,0.23426 -0.082,0.0595 -0.15607,0.10904 -0.22251,0.14843 -0.178,-0.10557 -0.3438,-0.26201 -0.49729,-0.46956 l -0.6196,-0.9258 -0.57536,-0.77843 -0.40427,-0.59054 c -0.0533,-0.0721 -0.13166,-0.16343 -0.23531,-0.27423 -0.10297,-0.11575 -0.17269,-0.19804 -0.20893,-0.24704 -0.0597,-0.0807 -0.14027,-0.21041 -0.24199,-0.38909 -0.0989,-0.18073 -0.18042,-0.31433 -0.24437,-0.4008 l -0.30566,-0.39602 c -0.23235,-0.31419 -0.35116,-0.58907 -0.35604,-0.8248 -0.0853,-0.11529 -0.20632,-0.1735 -0.36351,-0.17455 z m -15.8063,0.37763 c -0.108,-0.007 -0.20454,0.0204 -0.28942,0.081 -0.11318,0.0808 -0.17221,0.12588 -0.17721,0.13511 -0.0118,0.0215 -0.0175,0.0624 -0.0176,0.12258 0.003,0.0619 -0.002,0.1052 -0.0155,0.12978 l -0.005,0.009 -0.75604,1.54914 c -0.36568,0.6731 -0.72126,1.30172 -1.06705,1.8857 -0.34266,0.58577 -0.60575,1.01748 -0.78935,1.29544 -0.18361,0.27795 -0.29766,0.4386 -0.34164,0.48209 -0.0423,0.0404 -0.0844,0.0729 -0.12633,0.0975 -0.0419,0.0246 -0.071,0.0524 -0.0877,0.0831 -0.0534,0.0983 0.062,0.24555 0.34671,0.44157 0.001,0.057 0.0321,0.10207 0.0914,0.13539 l 0.0279,0.016 c 0.0593,0.0333 0.1428,0.056 0.25024,0.0682 0.11056,0.014 0.17829,-0.002 0.20334,-0.0482 0.0567,-0.1045 0.11634,-0.30771 0.17856,-0.60975 0.0639,-0.30508 0.25119,-0.74346 0.56176,-1.31513 l 1.07637,-1.8804 0.18121,-0.35576 c 0.33896,-0.62394 0.68672,-1.17058 1.0436,-1.64 0.0428,-0.0562 0.0667,-0.0888 0.0717,-0.0981 0.0684,-0.12602 0.0857,-0.23274 0.0517,-0.32006 -0.0137,-0.0198 -0.0177,-0.05 -0.0118,-0.0909 0.0106,-0.0421 0,-0.072 -0.0309,-0.0896 -0.0157,-0.009 -0.1015,-0.0309 -0.25744,-0.0664 -0.0386,-0.01 -0.0757,-0.0154 -0.11166,-0.0176 z m 14.09942,0.50341 c -0.008,0 -0.0155,0.002 -0.0234,0.006 -0.0159,0.007 -0.0821,0.0634 -0.1988,0.16817 -0.11821,0.10159 -0.17659,0.22289 -0.17482,0.36376 10e-4,0.14087 0.005,0.21605 0.01,0.22573 0.0109,0.0225 0.0408,0.0521 0.0895,0.0887 0.0519,0.0352 0.0841,0.0656 0.0965,0.0914 l 0.004,0.01 0.83041,1.55473 c 0.33978,0.70563 0.64892,1.37591 0.92766,2.01124 0.28192,0.63385 0.48379,1.1098 0.60574,1.42761 0.12195,0.31779 0.18834,0.50768 0.1988,0.56975 0.009,0.0589 0.0113,0.11286 0.008,0.16178 -0.004,0.0489 0.002,0.0893 0.0178,0.12151 0.0497,0.10312 0.23407,0.099 0.55351,-0.0125 0.0472,0.0334 0.10103,0.0363 0.16149,0.008 l 0.0288,-0.0133 c 0.0605,-0.0278 0.12593,-0.0813 0.19641,-0.16096 0.0737,-0.0811 0.0987,-0.14595 0.0754,-0.19429 -0.0528,-0.10953 -0.18401,-0.28132 -0.39388,-0.51539 -0.21144,-0.23729 -0.46158,-0.65562 -0.75018,-1.25493 l -0.91808,-2.01576 -0.18654,-0.36297 c -0.31498,-0.65408 -0.56208,-1.26841 -0.74166,-1.84307 -0.0215,-0.0688 -0.0347,-0.10812 -0.0395,-0.11779 -0.0636,-0.13209 -0.14022,-0.21086 -0.23025,-0.23639 -0.0237,-0.001 -0.0507,-0.0163 -0.0805,-0.0458 -0.0211,-0.0257 -0.0431,-0.0375 -0.0664,-0.0357 z m -1.30903,0.64465 c -0.0838,-0.003 -0.18426,0.0104 -0.30166,0.0407 l -0.1074,0.0277 c -0.0987,0.0255 -0.19277,0.0609 -0.28222,0.10608 -0.0243,-0.0342 -0.0563,-0.057 -0.0962,-0.0688 -0.0277,0.0182 -0.0908,0.0658 -0.18947,0.14283 -0.0987,0.077 -0.19142,0.13043 -0.27796,0.16017 -0.0442,0.0887 -0.0704,0.13787 -0.0786,0.14736 l -0.1583,0.0408 c -0.0749,0.0193 -0.19043,0.10812 -0.34644,0.26622 -0.15601,0.15811 -0.27438,0.30658 -0.3555,0.44532 -0.0787,0.13442 -0.13697,0.2765 -0.17482,0.42613 -0.0388,0.14618 -0.0588,0.29474 -0.0597,0.44583 0.002,0.15021 0.0248,0.29901 0.0666,0.44638 0.10426,0.36675 0.31399,0.65457 0.6292,0.86371 0.31763,0.20483 0.81489,0.36711 1.49184,0.48636 0.17848,0.0495 0.27604,0.10322 0.2926,0.1615 l 0.004,0.0155 c 0.23632,-0.017 0.48916,0.0942 0.75818,0.33365 0.27146,0.23518 0.45153,0.5089 0.54019,0.82081 0.0594,0.20907 0.0684,0.40714 0.0267,0.59455 -0.0427,0.18397 -0.0937,0.34631 -0.15244,0.48661 -0.0587,0.14031 -0.19759,0.30683 -0.41679,0.49968 -0.2158,0.19196 -0.46142,0.34379 -0.73659,0.45544 -0.27274,0.10735 -0.42786,0.16593 -0.46531,0.17562 -0.0476,0.0123 -0.18196,0.0212 -0.40321,0.0269 -0.12549,-0.0816 -0.23236,-0.11083 -0.32084,-0.0879 l -0.041,0.0106 c -0.0301,0.074 -0.0368,0.13999 -0.0203,0.19826 0.0604,0.2125 0.13115,0.36532 0.2124,0.45838 0.0856,0.0956 0.19313,0.12673 0.32246,0.0933 0.36076,-0.0933 0.59044,-0.18581 0.68861,-0.27743 0.10257,-0.0891 0.18087,-0.14076 0.23531,-0.15483 0.034,-0.009 0.0736,-0.0118 0.11833,-0.008 0.69511,-0.48522 1.14342,-0.94509 1.34501,-1.37991 0.20157,-0.43482 0.20963,-0.97784 0.0245,-1.62907 -0.0419,-0.14739 -0.10931,-0.28823 -0.20226,-0.4224 -0.0939,-0.1376 -0.21055,-0.2656 -0.35017,-0.38402 -0.1406,-0.12184 -0.33207,-0.24899 -0.5743,-0.38135 -0.23979,-0.13666 -0.40236,-0.20143 -0.48794,-0.19401 -0.0822,0.007 -0.15407,0.0178 -0.21534,0.0336 -1.06748,-0.24636 -1.66345,-0.58889 -1.78817,-1.02761 -0.11497,-0.40444 -0.0511,-0.77044 0.19187,-1.09822 0.24297,-0.32778 0.63683,-0.56215 1.18137,-0.70301 0.13615,-0.0352 0.26876,-0.0181 0.39815,0.0514 0.12937,0.0696 0.21637,0.11148 0.26062,0.12579 0.0515,-0.0244 0.0873,-0.0905 0.10767,-0.1988 0.0228,-0.11261 0.0186,-0.22371 -0.0125,-0.33339 -0.038,-0.13368 -0.10523,-0.21007 -0.20201,-0.22919 -0.0242,-0.004 -0.0504,-0.008 -0.0784,-0.009 z m -4.91097,0.47116 c -0.0531,-10e-4 -0.12591,0.0544 -0.21851,0.16815 l -0.0741,-0.0344 c -0.17421,0.14649 -0.26159,0.28513 -0.26223,0.416 v 0.0533 c 0,0.0353 -0.0412,0.0517 -0.1226,0.049 v 0.0211 c -0.001,0.25466 -0.24958,0.72605 -0.74511,1.41402 -0.0285,0.0345 -0.16607,0.27236 -0.41253,0.71366 -0.24648,0.44132 -0.53901,0.91309 -0.87784,1.41509 -0.33528,0.50212 -0.50524,0.83079 -0.50954,0.98631 -0.12448,0.11624 -0.28486,0.34634 -0.48128,0.6902 -0.19288,0.34046 -0.35336,0.58463 -0.48155,0.7326 -0.096,0.0818 -0.20297,0.2306 -0.32087,0.44611 -0.0179,0.0525 -0.0891,0.12795 -0.21347,0.22653 -0.12438,0.095 -0.18703,0.20094 -0.18761,0.31765 0,0.0531 0.0279,0.0859 0.0845,0.0983 0.37138,0.0792 0.61727,0.14541 0.73739,0.1988 h 0.0106 c 0.0743,0.002 0.15602,-0.0886 0.24544,-0.27316 0.0929,-0.18094 0.15067,-0.40379 0.17323,-0.66836 0.1791,-0.42226 0.45125,-1.00077 0.81599,-1.73542 l 0.0741,0.0554 c 0.0536,-0.0867 0.10858,-0.12921 0.16522,-0.12739 0.0602,-10e-4 0.18952,-0.0256 0.38802,-0.0722 0.20206,-0.0501 0.4198,-0.0715 0.65344,-0.0639 0.10267,0.003 0.20548,0.0137 0.30807,0.0311 0.10613,0.0176 0.26896,2e-5 0.48875,-0.0531 0.0281,0.0539 0.0669,0.0815 0.11645,0.0831 0.007,0 0.0797,-0.0167 0.218,-0.0511 0.14181,-0.0378 0.39336,-0.0511 0.75445,-0.0395 l 0.15909,0.006 0.1591,0.0475 c 0.13795,0.0292 0.21231,0.0582 0.22279,0.0869 0.064,-0.0651 0.12967,-0.0968 0.19695,-0.0946 0.12035,0.004 0.19452,0.0401 0.22251,0.1082 0.0316,0.0647 0.0615,0.10433 0.0898,0.1194 0.2769,0.57139 0.47105,1.04125 0.58256,1.40921 0.11503,0.36808 0.1722,0.61054 0.17162,0.72727 l -0.0269,0.0786 c -0.0145,0.0667 -0.0219,0.12656 -0.0221,0.17961 0,0.0601 0.0258,0.12303 0.0786,0.18842 0.0674,-0.0261 0.20754,-0.0677 0.42024,-0.12446 0.21627,-0.0567 0.34051,-0.1039 0.37257,-0.14177 0.0356,-0.0377 0.0533,-0.0816 0.0536,-0.13111 0.001,-0.20869 -0.0984,-0.46648 -0.29875,-0.77363 -1.48517,-3.27061 -2.36708,-5.39855 -2.64548,-6.38387 0.0215,-0.0453 0.0322,-0.0964 0.0325,-0.15297 0,-0.0955 -0.0312,-0.14425 -0.0949,-0.14631 z m -0.43092,1.25972 c 0.12746,0.004 0.39395,0.53253 0.79949,1.58563 0.40554,1.05311 0.60818,1.58337 0.60814,1.59045 0,0.0919 -0.12274,0.15697 -0.36723,0.19506 -0.10619,-0.004 -0.20908,0.007 -0.30833,0.0325 -0.0247,-0.008 -0.0565,-0.0125 -0.0954,-0.0138 l -0.1647,0.006 c -0.0708,-0.002 -0.15042,-0.0189 -0.23878,-0.0501 -0.0215,0.0488 -0.0571,0.0725 -0.10659,0.0709 -0.0213,-0.001 -0.0673,-0.009 -0.13804,-0.0256 -0.0707,-0.0165 -0.13087,-0.0256 -0.18042,-0.0272 -0.0496,-10e-4 -0.17159,0.009 -0.36644,0.0306 -0.19129,0.0221 -0.32943,0.0317 -0.41439,0.0291 -0.039,-10e-4 -0.10982,-0.0123 -0.21239,-0.0333 -0.10259,-0.021 -0.18394,-0.0324 -0.24413,-0.0344 l -0.10099,0.007 c -0.0177,0 -0.0794,-0.0165 -0.18548,-0.0482 -0.10606,-0.0317 -0.15896,-0.0884 -0.15856,-0.16976 0,-0.11671 0.16148,-0.42821 0.48261,-0.93432 0.32117,-0.50965 0.61041,-1.00603 0.86771,-1.48944 0.26085,-0.4833 0.43542,-0.72346 0.52392,-0.7206 z m -7.59961,2.19751 c -0.017,0 -0.0327,10e-4 -0.0469,0.005 -0.0524,0.0118 -0.13876,0.055 -0.2593,0.12898 -0.1161,0.0718 -0.20021,0.11923 -0.25237,0.14232 l -0.021,0.0317 c -0.0116,0.0368 -0.004,0.0854 0.0213,0.14604 0.0292,0.0618 0.0572,0.0974 0.0842,0.10661 0.0405,0.0137 0.18769,0.01 0.4413,-0.0118 0.063,0.0139 0.15355,0.041 0.27183,0.081 l 0.4733,0.17162 c 0.11154,0.0378 0.29381,0.0884 0.54685,0.15191 0.25642,0.0646 0.4558,0.1211 0.59774,0.16921 0.35825,0.12143 0.64273,0.2512 0.85358,0.38935 0.0431,0.0294 0.0746,0.0475 0.0949,0.0544 0.0135,0.004 0.0615,-0.005 0.1439,-0.0291 0.0868,-0.0261 0.15221,-0.0317 0.19614,-0.0168 0.0158,-0.0502 0.0625,-0.0864 0.14045,-0.1082 0.079,-0.0251 0.13059,-0.076 0.15484,-0.15296 0.0252,-0.0804 0.0138,-0.17518 -0.0341,-0.28409 l -0.0626,0.0567 c -0.0507,-0.0172 -0.0718,-0.0393 -0.0634,-0.0661 l 0.0221,-0.0704 c -0.14316,0.004 -0.22993,-8e-5 -0.26036,-0.0104 l -0.0101,-0.004 0.001,0.0335 c -0.019,0.0603 -0.17384,0.0412 -0.46449,-0.0573 -0.0676,-0.0229 -0.17695,-0.0859 -0.3278,-0.18894 l -0.0576,0.0584 c -0.2594,-0.10273 -0.42613,-0.16667 -0.50048,-0.19187 l -0.37841,-0.11726 -0.25531,-0.0976 c -0.027,-0.009 -0.0688,-0.0195 -0.12498,-0.0312 -0.0528,-0.0105 -0.0926,-0.0204 -0.11966,-0.0296 -0.0811,-0.0275 -0.16098,-0.0768 -0.23958,-0.14789 l -0.0642,0.0616 -0.0762,-0.0256 c -0.0541,-0.0183 -0.13183,-0.0504 -0.23345,-0.0959 -0.0762,-0.0342 -0.1398,-0.0516 -0.1908,-0.0523 z"
         inkscape:path-effect="#path-effect9280"
         d="m 100.56426,418.50703 c -0.12778,-0.006 -0.19819,5.6e-4 -0.21282,0.0213 -0.003,0.004 0.005,0.0145 0.0241,0.0322 -0.0825,0.27379 -0.29868,0.778 -0.636056,1.5609 -0.529333,1.22837 -0.827301,1.98631 -1.090697,2.46327 -0.210628,0.38048 -0.378809,0.60067 -0.498143,0.63886 -0.04599,0.0811 -0.07346,0.13331 -0.082,0.15529 -0.07595,0.19501 -0.05445,0.35281 0.06567,0.46708 0.03075,0.0292 0.06115,0.0501 0.09137,0.0633 0.03014,0.0132 0.05185,0.0261 0.06459,0.0381 0.02046,0.0194 0.04282,0.0512 0.0673,0.0951 0.02441,0.044 0.04297,0.0722 0.05576,0.0843 0.05094,0.0485 0.115435,0.0393 0.193997,-0.0265 0.08097,-0.0632 0.154936,-0.1717 0.220218,-0.32372 0.05274,-0.12276 0.114298,-0.28735 0.182063,-0.48996 0.06953,-0.20692 0.119118,-0.34642 0.152981,-0.42623 -0.01279,0.03 0.244179,-0.52962 0.601234,-1.25471 0.319998,-0.6499 0.886898,-1.85365 1.318658,-2.52213 0.0234,-0.0362 0.0468,-0.0714 0.0702,-0.10568 0.0386,-0.0566 0.11528,-0.0819 0.23074,-0.0792 0.0404,-0.027 0.0639,-0.0443 0.071,-0.0535 0.0317,-0.041 0.0356,-0.0809 0.0106,-0.1203 -0.0249,-0.0394 -0.069,-0.0685 -0.13062,-0.0892 -0.0125,-0.004 -0.025,-0.008 -0.0375,-0.0124 -0.0838,-0.0169 -0.16788,-0.0337 -0.25222,-0.0505 -0.18588,-0.0375 -0.34868,-0.0595 -0.48051,-0.0658 0,0 9e-5,9e-5 9e-5,9e-5 z m 26.48747,-0.53586 c -0.0163,0.002 -0.0358,0.008 -0.0582,0.0167 -0.0171,0.007 -0.1332,0.0608 -0.30816,0.15454 -0.18045,0.095 -0.28997,0.1854 -0.33324,0.27232 -0.0432,0.0868 -0.061,0.13661 -0.0589,0.1407 0.006,0.011 0.0309,0.0202 0.0752,0.0275 0.0484,0.005 0.0754,0.0144 0.0818,0.0275 0,1e-5 0.002,0.005 0.002,0.005 0.15804,0.2531 0.32399,0.55584 0.50157,0.89775 0.19714,0.4624 0.42363,1.03876 0.63553,1.58145 0.21963,0.55239 0.41422,1.03379 0.53147,1.34455 0.12173,0.32265 0.19423,0.51751 0.20988,0.58925 0.0135,0.0662 0.0218,0.1291 0.025,0.18847 0.003,0.0593 0.0133,0.10538 0.0297,0.13795 0.0527,0.10495 0.19499,0.0311 0.4268,-0.2203 0.0402,0.0226 0.0816,0.006 0.12478,-0.0499 -6e-5,8e-5 0.0205,-0.0263 0.0204,-0.0263 0.0433,-0.0561 0.0874,-0.14476 0.13436,-0.26708 0.0492,-0.12505 0.064,-0.21211 0.0423,-0.26122 -0.0479,-0.11036 -0.16064,-0.26729 -0.3353,-0.45824 -0.17488,-0.1929 -0.39148,-0.58192 -0.60356,-1.11032 -0.22384,-0.6028 -0.40333,-1.13551 -0.55409,-1.60786 -0.0339,-0.0815 -0.067,-0.16076 -0.0993,-0.23745 -0.15261,-0.42214 -0.22038,-0.76694 -0.1964,-1.03716 0.003,-0.0325 0.004,-0.0497 0.003,-0.0537 -0.0204,-0.0522 -0.0793,-0.0685 -0.17863,-0.0529 -0.0286,0.007 -0.055,0.008 -0.0789,0.002 -0.01,-0.004 -0.0233,-0.005 -0.0395,-0.003 0,0 8.9e-4,-3.7e-4 8.9e-4,-3.7e-4 z m -22.29132,2.42896 c -0.40488,0.0881 -0.80258,0.18112 -1.19294,0.28006 -0.31023,0.0734 -0.69352,0.1612 -1.1426,0.26988 -0.44112,0.10752 -0.71922,0.19356 -0.82982,0.24183 -0.0168,0.007 -0.0868,0.009 -0.20954,0.005 -0.11952,-0.002 -0.21589,-0.002 -0.28889,-0.001 -0.0773,-0.041 -0.16023,-0.076 -0.24811,-0.10495 -0.14701,0.047 -0.33018,0.0679 -0.54922,0.0624 -0.0807,0.03 -0.13285,0.0715 -0.15691,0.12448 -0.0457,0.10073 0.0196,0.30134 0.17958,0.61256 0.2361,0.35122 0.44565,0.81712 0.61689,1.41724 0.18554,0.63297 0.34268,1.2182 0.54049,1.9462 0.19085,0.68516 0.27769,1.15282 0.2699,1.40397 -0.006,0.25348 0.05,0.42338 0.16914,0.51576 0.11893,0.0922 0.25305,0.10945 0.40068,0.0551 0.1522,-0.0554 0.28352,-0.17154 0.39347,-0.35053 0.0645,-0.10502 0.0637,-0.2143 -0.003,-0.32957 -0.0389,-0.0129 -0.0674,-0.0269 -0.0856,-0.0418 -0.0284,-0.0233 -0.098,-0.1249 -0.20761,-0.30788 -0.1099,-0.18359 -0.14888,-0.30545 -0.11696,-0.36048 3e-5,-5e-5 0.006,-0.01 0.006,-0.01 -0.005,-0.0187 -0.0219,-0.053 -0.0516,-0.10317 -0.0297,-0.0501 -0.0527,-0.0922 -0.0687,-0.12577 -2.2e-4,-0.0685 -0.012,-0.13302 -0.0365,-0.19369 -0.0217,-0.0584 -0.0392,-0.12776 -0.0526,-0.20861 -0.0135,-0.0807 -0.0521,-0.187 -0.11688,-0.31864 -0.0187,-0.082 -0.0433,-0.20759 -0.0769,-0.3865 -0.0307,-0.17492 -0.0602,-0.30388 -0.0871,-0.38636 -0.0291,-0.0892 -0.0699,-0.22823 -0.13799,-0.45667 -0.0624,-0.21585 -0.14691,-0.48539 -0.25229,-0.78496 -0.10393,-0.30076 -0.17916,-0.53085 -0.21967,-0.69453 -0.0391,-0.16652 -0.0285,-0.31075 0.034,-0.43251 0.0182,-0.0356 0.0734,-0.0736 0.16594,-0.11321 0.0956,-0.0372 0.17578,-0.0756 0.24012,-0.11586 0.0107,-0.004 0.0389,-0.01 0.085,-0.0147 0.046,-0.005 0.10886,-0.0102 0.18875,-0.0146 0.0983,-0.007 0.19693,-0.013 0.29588,-0.0192 0.17577,-0.0568 0.35299,-0.11205 0.53166,-0.16582 0.21371,-0.0458 0.42934,-0.09 0.64678,-0.13292 0.35157,-0.061 0.54251,-0.11421 0.56792,-0.1646 0.41442,-0.0419 0.76064,-0.0464 1.02385,-0.0178 0.086,-0.0272 0.14796,-0.0652 0.18547,-0.11396 0.008,-0.01 0.0151,-0.0194 0.0226,-0.029 0.0375,-0.0485 0.0597,-0.10111 0.0666,-0.15776 -0.0243,-0.0232 -0.073,-0.0588 -0.14577,-0.10568 -0.0856,-0.0551 -0.20302,-0.11242 -0.35327,-0.17195 0,0 2e-5,5.9e-4 2e-5,5.9e-4 z m 17.93183,-0.28771 c -0.1521,0.004 -0.32884,0.0595 -0.5212,0.16751 -0.2529,0.142 -0.33879,0.29896 -0.2622,0.47931 4e-5,9e-5 0.0101,0.024 0.0101,0.024 -1.1e-4,-2e-5 0.0944,0.0128 0.0943,0.0128 0.0293,0.0382 0.0999,0.11786 0.21926,0.25355 0.11801,0.13425 0.20747,0.27839 0.27034,0.43179 0.0619,0.17104 0.12542,0.34511 0.19119,0.52343 0.0239,0.0576 0.0568,0.15698 0.10124,0.30162 0.0431,0.14111 0.0821,0.252 0.11507,0.33021 0.2505,0.58475 0.50463,1.16576 0.78252,1.78338 0.29655,0.66818 0.51489,1.21271 0.64422,1.62558 3e-4,6.5e-4 0.0593,0.12715 0.0596,0.1278 0.1084,0.23284 0.16187,0.40939 0.16061,0.53037 0.0191,0.10241 0.0422,0.18169 0.0693,0.23908 0.0332,0.0701 0.0886,0.11827 0.1665,0.14533 0.005,-0.0498 0.0143,-0.0877 0.0278,-0.11356 0.0422,-0.0332 0.0844,-0.0665 0.12645,-0.10006 0.13366,-0.0929 0.2489,-0.13851 0.34786,-0.13437 0,0 0.008,-0.006 0.008,-0.006 0.0135,-0.009 0.0406,-0.079 0.0808,-0.2101 0.20114,-0.16447 0.34722,-0.28378 0.45895,-0.36866 0.25173,-0.19117 0.50052,-0.38611 0.74689,-0.58435 0.22566,-0.18163 0.419,-0.37033 0.58305,-0.56649 0.012,0.004 0.0384,0.0188 0.0787,0.0434 0.0444,0.0262 0.078,0.0299 0.10081,0.0109 1e-5,-10e-6 0.023,-0.0194 0.023,-0.0194 -7e-5,-0.0342 -9e-5,-0.0685 -7e-5,-0.10274 0.0173,0.0441 0.0736,0.0408 0.16815,-0.0101 0.0984,-0.0494 0.16376,-0.0881 0.19637,-0.11614 0.0351,-0.0302 0.054,-0.0939 0.0574,-0.19091 0.006,-0.0992 -0.0186,-0.22355 -0.0726,-0.37229 -0.0432,-0.11896 -0.0997,-0.19835 -0.17114,-0.23807 -0.0837,0.0721 -0.16745,0.1441 -0.25137,0.21584 9e-5,-4e-5 -0.10729,0.0554 -0.10721,0.0553 -0.044,0.0375 -0.0865,0.0927 -0.12718,0.16568 -0.0395,0.0672 -0.0654,0.10605 -0.0783,0.11703 -0.005,0.004 -0.0159,0.003 -0.0318,-0.002 -0.1163,0.22312 -0.32212,0.45841 -0.6227,0.70226 -0.11129,0.0903 -0.30216,0.22786 -0.56845,0.40432 -0.26634,0.17171 -0.41407,0.24404 -0.43808,0.222 -0.0776,0.0594 -0.14752,0.10809 -0.2097,0.14602 -0.14241,-0.13143 -0.26892,-0.31761 -0.37753,-0.56031 -0.1432,-0.36087 -0.28275,-0.71965 -0.41939,-1.08022 -0.13071,-0.30375 -0.25734,-0.60315 -0.38111,-0.90094 -0.0842,-0.22528 -0.16585,-0.44747 -0.24509,-0.66731 -0.0325,-0.0804 -0.0831,-0.1822 -0.15118,-0.30393 -0.0664,-0.12716 -0.10982,-0.21626 -0.13083,-0.2692 -0.0344,-0.0867 -0.0762,-0.2273 -0.12152,-0.41501 -0.0424,-0.19068 -0.0784,-0.32669 -0.11217,-0.41503 -0.0114,-0.0277 -0.15038,-0.3664 -0.1618,-0.39414 -0.11601,-0.30656 -0.13126,-0.56083 -0.0442,-0.77622 -0.0368,-0.1015 -0.1295,-0.14746 -0.28171,-0.14102 0,0 2.7e-4,5e-5 2.7e-4,5e-5 z m -16.36186,0.884 c -0.11025,-0.003 -0.20386,0.0252 -0.28009,0.084 -0.10157,0.0783 -0.15405,0.12361 -0.15755,0.13215 -0.009,0.0206 -0.008,0.0592 4.8e-4,0.1163 0.012,0.0586 0.0131,0.10036 0.003,0.1245 0,0 -0.004,0.009 -0.004,0.009 -0.17627,0.50331 -0.35978,1.05751 -0.54331,1.62087 -0.28304,0.76004 -0.54534,1.45147 -0.82266,2.13896 -0.26971,0.67785 -0.47139,1.15601 -0.61767,1.47122 -0.14396,0.31014 -0.23422,0.48725 -0.27005,0.53662 -0.0349,0.0465 -0.0703,0.0851 -0.1062,0.11594 -0.0359,0.0308 -0.0598,0.0627 -0.0722,0.0953 -0.0396,0.10449 0.0786,0.22769 0.35549,0.36397 0.006,0.0526 0.0389,0.0889 0.0958,0.10985 -10e-6,0 0.0269,0.0102 0.0269,0.0102 0.057,0.0209 0.13494,0.0283 0.23363,0.0228 0.10167,-0.004 0.16169,-0.0287 0.18008,-0.074 0.0417,-0.10263 0.0772,-0.29633 0.10815,-0.59558 0.0321,-0.30164 0.1677,-0.7663 0.40969,-1.40383 0.28215,-0.70104 0.56736,-1.42031 0.85155,-2.12083 0.0466,-0.13184 0.0933,-0.26334 0.13981,-0.3937 0.26632,-0.69131 0.54286,-1.26463 0.84598,-1.73428 0.0363,-0.0561 0.0563,-0.0879 0.0603,-0.0971 0.0538,-0.12323 0.0588,-0.2236 0.0137,-0.30348 -0.0163,-0.0179 -0.0241,-0.0457 -0.0233,-0.0836 0.005,-0.0391 -0.009,-0.066 -0.0428,-0.081 -0.0171,-0.008 -0.10694,-0.0249 -0.26981,-0.052 -0.0405,-0.008 -0.0788,-0.0115 -0.11553,-0.0124 0,0 1.9e-4,2.7e-4 1.9e-4,2.7e-4 z m 14.40651,-0.005 c -0.008,2.8e-4 -0.0157,0.002 -0.0245,0.007 -0.0168,0.007 -0.0985,0.0631 -0.23908,0.16701 -0.14177,0.10132 -0.22854,0.22018 -0.25981,0.35867 -0.0319,0.13822 -0.0442,0.2144 -0.0417,0.22343 0.006,0.0222 0.0278,0.051 0.0667,0.0866 0.0422,0.0341 0.0665,0.064 0.0729,0.0898 0,0 0.002,0.01 0.002,0.01 0.15667,0.52596 0.31974,1.05729 0.49951,1.62265 0.20219,0.74162 0.4138,1.51526 0.58534,2.1731 0.18357,0.69051 0.29749,1.14273 0.36524,1.46886 0.0645,0.31076 0.0932,0.48772 0.0926,0.54433 -0.001,0.054 -0.008,0.10265 -0.0194,0.14601 -0.0118,0.0433 -0.0133,0.0793 -0.005,0.10857 0.0262,0.0927 0.19151,0.10259 0.49573,0.0269 0.0361,0.0329 0.0837,0.0395 0.14244,0.0189 0,0 0.028,-0.01 0.028,-0.01 0.0586,-0.0201 0.12654,-0.0629 0.20264,-0.12976 0.0793,-0.068 0.11212,-0.12619 0.0991,-0.1728 -0.0294,-0.10557 -0.11943,-0.2766 -0.27363,-0.51766 -0.15353,-0.24174 -0.32453,-0.67465 -0.51055,-1.31477 -0.19744,-0.73414 -0.38589,-1.45022 -0.56665,-2.19665 -0.0384,-0.13187 -0.0762,-0.26303 -0.11348,-0.39368 -0.18196,-0.70717 -0.28738,-1.34643 -0.31179,-1.90874 -0.003,-0.0674 -0.005,-0.10504 -0.007,-0.11453 -0.0262,-0.12711 -0.0782,-0.19976 -0.15875,-0.22115 -0.0228,-1.5e-4 -0.0448,-0.0139 -0.0656,-0.0409 -0.0134,-0.0237 -0.0316,-0.0341 -0.0548,-0.0315 0,0 -1.4e-4,4.5e-4 -1.4e-4,4.5e-4 z m -1.43451,0.66352 c -0.0812,-4.9e-4 -0.18246,0.0156 -0.3035,0.0487 4.2e-4,-1.1e-4 -0.11115,0.0304 -0.11073,0.0303 -0.10172,0.0279 -0.20085,0.0654 -0.2969,0.11239 -0.0175,-0.033 -0.0447,-0.0544 -0.0817,-0.0648 -0.03,0.0183 -0.1021,0.0675 -0.21193,0.14588 -0.11049,0.0788 -0.20997,0.13439 -0.2998,0.16636 -0.058,0.0898 -0.0906,0.13906 -0.10037,0.14911 6.8e-4,-1.9e-4 -0.16185,0.0452 -0.16116,0.045 -0.0758,0.0212 -0.20322,0.11334 -0.37644,0.27702 -0.1734,0.16387 -0.30655,0.3184 -0.401,0.46256 -0.0917,0.13977 -0.1631,0.2875 -0.21458,0.44324 -0.052,0.15215 -0.0852,0.30683 -0.0997,0.46397 -0.0116,0.15614 -0.003,0.31062 0.0248,0.4631 0.0684,0.37959 0.24452,0.67372 0.52223,0.88555 0.28096,0.20786 0.73014,0.36999 1.34487,0.49537 0.16019,0.0514 0.24474,0.1069 0.25411,0.16587 -2e-5,-1.5e-4 0.002,0.0159 0.002,0.0157 0.22009,-0.0148 0.44058,0.10108 0.66116,0.34536 0.22249,0.23922 0.35478,0.51314 0.39545,0.80887 0.0272,0.19818 0.008,0.37891 -0.0564,0.5426 -0.0651,0.16066 -0.13594,0.29628 -0.21122,0.4098 -0.0751,0.11338 -0.22756,0.24193 -0.45696,0.37934 -0.22595,0.13672 -0.47305,0.2346 -0.73659,0.30108 -0.25869,0.0632 -0.41056,0.0968 -0.44307,0.10155 -0.0445,0.007 -0.16352,0.008 -0.35911,0.004 -0.0955,-0.0572 -0.18413,-0.0797 -0.2662,-0.0669 10e-6,0 -0.0379,0.006 -0.0379,0.006 -0.0392,0.048 -0.0568,0.09 -0.053,0.12709 0.0141,0.1349 0.0439,0.22361 0.0943,0.27807 0.0532,0.0555 0.13916,0.076 0.25795,0.0628 0.33275,-0.0369 0.55292,-0.0796 0.65929,-0.13007 0.10987,-0.0489 0.18831,-0.0777 0.23958,-0.0842 0.0317,-0.004 0.0669,-0.004 0.10514,2e-4 0.71661,-0.27271 1.20483,-0.5969 1.45852,-0.94885 0.25395,-0.35232 0.34036,-0.83774 0.25007,-1.48808 -0.0203,-0.14656 -0.0652,-0.2896 -0.1347,-0.42756 -0.0699,-0.1415 -0.16222,-0.27497 -0.27715,-0.39925 -0.11539,-0.12774 -0.27757,-0.2624 -0.48701,-0.40223 -0.20686,-0.14438 -0.35109,-0.21261 -0.43128,-0.20521 -0.077,0.007 -0.14492,0.018 -0.20346,0.0342 -0.96681,-0.25906 -1.50304,-0.60345 -1.58053,-1.06108 -0.0712,-0.42082 0.0268,-0.80217 0.30239,-1.14503 0.27549,-0.3427 0.69409,-0.58878 1.24701,-0.74454 0.13803,-0.0389 0.26385,-0.0249 0.37641,0.0427 0.11289,0.068 0.18868,0.10893 0.22893,0.12277 0.0538,-0.0261 0.0995,-0.0946 0.13928,-0.20539 0.0428,-0.11503 0.0605,-0.22709 0.0524,-0.33577 -0.01,-0.1324 -0.0587,-0.20537 -0.14935,-0.22135 -0.0228,-0.003 -0.0475,-0.006 -0.0747,-0.007 0,0 2.8e-4,-2.4e-4 2.8e-4,-2.4e-4 z m -4.94009,0.60722 c -0.0528,6.6e-4 -0.13047,0.0571 -0.23062,0.17224 3e-5,1e-5 -0.0715,-0.0317 -0.0715,-0.0317 -0.18388,0.1499 -0.27848,0.29107 -0.28648,0.42257 0,8e-5 -0.003,0.0535 -0.003,0.0536 -0.002,0.0356 -0.0435,0.0534 -0.12374,0.0532 0,2e-5 -0.001,0.0213 -0.001,0.0213 -0.0141,0.25543 -0.28389,0.74694 -0.77862,1.47152 -0.0289,0.0372 -0.16656,0.28542 -0.40917,0.74373 -0.24043,0.45417 -0.52293,0.93912 -0.83879,1.42315 -0.31298,0.48463 -0.46709,0.77496 -0.47058,0.90704 -0.11584,0.10635 -0.25735,0.30466 -0.43413,0.5821 -0.17054,0.26982 -0.31211,0.4464 -0.42293,0.55076 -0.085,0.06 -0.17548,0.16255 -0.27533,0.29827 -0.0146,0.0321 -0.0755,0.0802 -0.18158,0.14188 -0.10616,0.0596 -0.15709,0.11968 -0.15392,0.17788 0.002,0.0264 0.0268,0.0406 0.076,0.0435 0.32146,0.0179 0.5355,0.0378 0.63749,0.0562 0,0 0.009,-4.7e-4 0.009,-4.7e-4 0.0626,-0.002 0.13403,-0.0452 0.21003,-0.14009 0.0799,-0.0944 0.13065,-0.2173 0.14995,-0.38078 0.16504,-0.28124 0.39085,-0.6647 0.73555,-1.31744 -6e-5,-4e-5 0.0676,0.0438 0.0676,0.0438 0.0496,-0.0753 0.10008,-0.11401 0.15211,-0.11466 0.0552,-0.003 0.17395,-0.0292 0.35675,-0.0765 0.18638,-0.0506 0.38662,-0.0765 0.60136,-0.077 0.0943,-4.9e-4 0.18845,0.006 0.28217,0.0182 0.0968,0.0124 0.24703,-0.007 0.45068,-0.0589 0.0238,0.0465 0.0584,0.0696 0.10377,0.0699 0.006,-1.6e-4 0.0737,-0.0163 0.20214,-0.0493 0.13164,-0.036 0.36373,-0.0531 0.6945,-0.0484 2e-5,0 0.14566,0.003 0.14568,0.003 -9e-5,-3e-5 0.14327,0.0397 0.14318,0.0397 0.12471,0.0239 0.19093,0.0486 0.19867,0.0735 0.0628,-0.0575 0.12491,-0.0862 0.18651,-0.0849 0.11006,0.002 0.17547,0.0338 0.19625,0.093 0.0243,0.0562 0.0486,0.0901 0.0733,0.10288 0.21048,0.49118 0.33519,0.84539 0.38935,1.10129 0.0568,0.25403 0.0692,0.39841 0.0507,0.46592 -0.0119,0.0151 -0.0237,0.03 -0.0356,0.0447 -0.0231,0.0377 -0.0392,0.0704 -0.0481,0.0989 -0.01,0.0323 0.002,0.0656 0.0354,0.0996 0.0624,-0.0119 0.19,-0.0303 0.3835,-0.0558 0.19672,-0.0253 0.3128,-0.0481 0.34761,-0.0685 0.0378,-0.0202 0.0611,-0.0446 0.0703,-0.0733 0.0382,-0.12099 -0.005,-0.28392 -0.14059,-0.50095 -1.03664,-2.75282 -1.78182,-4.94135 -2.00405,-6.00074 0.0247,-0.0457 0.0392,-0.0968 0.0439,-0.15266 0.007,-0.0943 -0.0197,-0.14099 -0.0834,-0.14104 0,0 -1.9e-4,-2.7e-4 -1.9e-4,-2.7e-4 z m -0.50417,1.28077 c 0.12631,2.6e-4 0.35566,0.5357 0.69371,1.6061 0.33478,1.06009 0.48947,1.54141 0.48897,1.54884 -0.005,0.0858 -0.1227,0.14701 -0.35041,0.18551 -0.0979,-0.002 -0.19339,0.01 -0.28634,0.0346 -0.0224,-0.007 -0.0515,-0.0104 -0.0874,-0.0109 1.1e-4,-10e-6 -0.15249,0.009 -0.15239,0.008 -0.0653,-4.8e-4 -0.1381,-0.0143 -0.21845,-0.041 -0.0219,0.0451 -0.0558,0.0673 -0.10144,0.0669 -0.0196,-4.5e-4 -0.0618,-0.007 -0.12651,-0.0202 -0.0647,-0.0134 -0.12001,-0.0203 -0.16578,-0.0206 -0.0457,2.8e-4 -0.15919,0.0124 -0.33983,0.0371 -0.17754,0.0252 -0.30537,0.0379 -0.38387,0.0381 -0.036,2.6e-4 -0.1012,-0.008 -0.19565,-0.0236 -0.0945,-0.0158 -0.16956,-0.0234 -0.22524,-0.0232 8e-5,-1e-5 -0.0937,0.01 -0.0936,0.01 -0.0164,6.1e-4 -0.0732,-0.0122 -0.17108,-0.0373 -0.0978,-0.025 -0.14641,-0.0748 -0.14531,-0.15006 0.001,-0.10724 0.15308,-0.4035 0.46238,-0.91297 0.30965,-0.51339 0.59752,-1.03388 0.86096,-1.53822 0.26772,-0.50597 0.45143,-0.75719 0.53724,-0.75693 0,0 2e-5,-5.3e-4 2e-5,-5.3e-4 z m -7.22456,2.66643 c -0.0158,0.002 -0.0303,0.004 -0.0433,0.01 -0.048,0.0169 -0.12543,0.0687 -0.23232,0.15477 -0.10288,0.0834 -0.17739,0.13923 -0.22406,0.16762 5e-5,-9e-5 -0.0173,0.0337 -0.0172,0.0336 -0.008,0.0376 0.002,0.0848 0.0298,0.14149 0.0312,0.0573 0.0596,0.0889 0.0851,0.095 0.0386,0.009 0.17354,-0.0103 0.4068,-0.0566 0.0592,0.007 0.1446,0.0245 0.25652,0.0516 0.006,0.002 0.44228,0.11792 0.44798,0.11943 0.10568,0.0257 0.27627,0.0569 0.51381,0.0948 0.24001,0.0385 0.42745,0.075 0.56037,0.10792 0.3362,0.0833 0.60357,0.17988 0.80213,0.28631 0.0406,0.0228 0.0702,0.0364 0.0891,0.041 0.0125,0.003 0.0563,-0.008 0.13116,-0.0347 0.0789,-0.0283 0.13884,-0.0373 0.17969,-0.027 0.0131,-0.0448 0.0549,-0.0796 0.12613,-0.10355 0.072,-0.0269 0.11832,-0.075 0.13878,-0.14539 0.0213,-0.0736 0.009,-0.15889 -0.0386,-0.25651 2e-4,-2e-4 -0.0568,0.0561 -0.0566,0.0559 -0.0474,-0.0128 -0.0676,-0.0318 -0.0605,-0.057 6e-5,-2.2e-4 0.0186,-0.0663 0.0186,-0.0665 -0.13282,0.0123 -0.21331,0.014 -0.24192,0.006 -1e-5,0 -0.009,-0.003 -0.01,-0.003 0,-3e-5 0.002,0.0311 0.002,0.0311 -0.0157,0.0569 -0.15981,0.0492 -0.43275,-0.023 -0.0633,-0.0167 -0.16748,-0.0682 -0.3116,-0.15513 2.7e-4,-3.1e-4 -0.0514,0.0597 -0.0511,0.0594 -0.24539,-0.0786 -0.40291,-0.12711 -0.47347,-0.14568 3.4e-4,8e-5 -0.35797,-0.0835 -0.35763,-0.0834 0.0422,0.0129 -0.28485,-0.0871 -0.24261,-0.0742 -0.0256,-0.007 -0.0651,-0.0134 -0.11797,-0.0201 -0.0497,-0.006 -0.0873,-0.0121 -0.11297,-0.0189 -0.0769,-0.0201 -0.15413,-0.0617 -0.2314,-0.12548 0.002,-0.002 -0.0579,0.069 -0.0561,0.0669 2e-5,1e-5 -0.0724,-0.0186 -0.0724,-0.0186 -0.0514,-0.0133 -0.12567,-0.0382 -0.22296,-0.0743 -0.073,-0.0272 -0.13322,-0.0387 -0.18071,-0.0346 0,0 -2.6e-4,0.001 -2.6e-4,0.001 z"
         style="font-style:normal;font-weight:normal;font-size:26.0807991px;line-height:1.25;font-family:sans-serif;fill:#fbcb2d;fill-opacity:1;stroke:none;stroke-width:0.27178001;stroke-opacity:1"
         id="path12932" />
      <path
         inkscape:connector-curvature="0"
         id="path12934"
         d="m 105.44926,420.27566 c 4.74129,-3.2792 3.34291,-11.45031 3.34291,-11.45031 0,0 1.21823,-4.20034 1.80367,1.29959 0.58545,5.49991 -1.58561,9.11082 -5.14658,10.15072 z"
         style="fill:#fbcb2d;fill-opacity:1;stroke:none;stroke-width:0.182445px;stroke-linecap:butt;stroke-linejoin:miter;stroke-opacity:1" />
      <path
         inkscape:connector-curvature="0"
         id="path12936"
         d="m 109.55286,420.16977 c 3.89478,-3.36456 0.3807,-7.54125 2.372,-12.83174 0,0 0.96639,-1.41543 0.49785,1.7403 -0.46856,3.15572 0.0292,7.35562 0.0292,7.35562 0,0 0.29283,2.94688 -2.89912,3.73582 z"
         style="fill:#fbcb2d;fill-opacity:1;stroke:none;stroke-width:0.185331px;stroke-linecap:butt;stroke-linejoin:miter;stroke-opacity:1" />
      <path
         inkscape:connector-curvature="0"
         id="path12938"
         d="m 115.0991,403.91137 c -0.91884,0.91882 -2.03455,5.31606 -1.73922,11.02591 0.29534,5.70985 0.8532,-0.49223 0.8532,-0.49223 0,0 -1.11572,-5.67702 0.88602,-10.53368 z"
         style="fill:#fbcb2d;fill-opacity:1;stroke:none;stroke-width:0.16497301px;stroke-linecap:butt;stroke-linejoin:miter;stroke-opacity:1" />
      <path
         inkscape:connector-curvature="0"
         id="path12940"
         d="m 119.95098,420.11215 c -6.98042,-2.34458 -4.7983,-10.51524 -4.7983,-10.51524 0,0 1.34623,-2.55912 0.92008,0.73557 -0.42616,3.29467 -0.50568,7.20712 3.87822,9.77967 z"
         style="fill:#fbcb2d;fill-opacity:1;stroke:none;stroke-width:0.16497301px;stroke-linecap:butt;stroke-linejoin:miter;stroke-opacity:1" />
    </g>
  </g>
</svg>
