<?xml version="1.0" encoding="UTF-8" standalone="no"?>
<!-- Created with Inkscape (http://www.inkscape.org/) -->

<svg
   xmlns:dc="http://purl.org/dc/elements/1.1/"
   xmlns:cc="http://creativecommons.org/ns#"
   xmlns:rdf="http://www.w3.org/1999/02/22-rdf-syntax-ns#"
   xmlns:svg="http://www.w3.org/2000/svg"
   xmlns="http://www.w3.org/2000/svg"
   xmlns:sodipodi="http://sodipodi.sourceforge.net/DTD/sodipodi-0.dtd"
   xmlns:inkscape="http://www.inkscape.org/namespaces/inkscape"
   width="60px"
   height="60px"
   viewBox="0 0 60 60"
   version="1.1"
   id="SVGRoot"
   inkscape:version="0.92.4 (5da689c313, 2019-01-14)"
   sodipodi:docname="kiasili-alt.svg">
  <defs
     id="defs7308" />
  <sodipodi:namedview
     id="base"
     pagecolor="#ffffff"
     bordercolor="#666666"
     borderopacity="1.0"
     inkscape:pageopacity="0.0"
     inkscape:pageshadow="2"
     inkscape:zoom="4.2666667"
     inkscape:cx="40.859909"
     inkscape:cy="4.3888146"
     inkscape:document-units="px"
     inkscape:current-layer="layer1"
     showgrid="false"
     inkscape:window-width="1920"
     inkscape:window-height="1057"
     inkscape:window-x="-8"
     inkscape:window-y="-8"
     inkscape:window-maximized="1"
     inkscape:grid-bbox="true" />
  <metadata
     id="metadata7311">
    <rdf:RDF>
      <cc:Work
         rdf:about="">
        <dc:format>image/svg+xml</dc:format>
        <dc:type
           rdf:resource="http://purl.org/dc/dcmitype/StillImage" />
        <dc:title></dc:title>
      </cc:Work>
    </rdf:RDF>
  </metadata>
  <g
     inkscape:label="Layer 1"
     inkscape:groupmode="layer"
     id="layer1">
    <rect
       style="fill:#3b0040;fill-opacity:0.26976743;stroke:none;stroke-width:0.10035988"
       id="rect6613"
       width="58.346004"
       height="58.346004"
       x="0.82999998"
       y="0.99588704"
       inkscape:export-xdpi="96"
       inkscape:export-ydpi="96"
       inkscape:export-filename="C:\Users\joshu\Documents\kiasili logo\fin soap box\tum soap gold front.png"
       ry="29.173002"
       rx="29.173002" />
    <text
       xml:space="preserve"
       style="font-style:normal;font-variant:normal;font-weight:normal;font-stretch:normal;font-size:9.62491894px;line-height:1.25;font-family:'Tempus Sans ITC';-inkscape-font-specification:'Tempus Sans ITC';fill:#3b0040;fill-opacity:0.41395348;stroke:#3b0040;stroke-width:0.12509403;stroke-linecap:round;stroke-linejoin:round;stroke-miterlimit:4;stroke-dasharray:none;stroke-opacity:0.27058825;"
       x="12.24245"
       y="48.93734"
       id="text6623"
       inkscape:export-xdpi="96"
       inkscape:export-ydpi="96"><tspan
         sodipodi:role="line"
         id="tspan6621"
         x="12.24245"
         y="48.93734"
         style="font-style:normal;font-variant:normal;font-weight:normal;font-stretch:normal;font-family:'Tempus Sans ITC';-inkscape-font-specification:'Tempus Sans ITC';fill:#3b0040;fill-opacity:0.41395348;stroke:#3b0040;stroke-width:0.12509403;stroke-linecap:round;stroke-linejoin:round;stroke-miterlimit:4;stroke-dasharray:none;stroke-opacity:0.27058825;">KI-ASILI</tspan></text>
    <path
       id="path6625"
       style="fill:#3b0040;fill-opacity:0.41395348;fill-rule:evenodd;stroke-width:0.07505631"
       d="M 30.189063,10.655877 A 15.22573,15.22573 0 0 0 14.968444,25.88157 15.22573,15.22573 0 0 0 30.194046,41.107278 15.22573,15.22573 0 0 0 45.419798,25.88157 15.22573,15.22573 0 0 0 30.194046,10.655877 a 15.22573,15.22573 0 0 0 -0.0046,0 z m 0.0048,1.501131 a 13.7246,13.7246 0 0 1 0.0855,2.82e-4 13.7246,13.7246 0 0 1 0.08527,8.77e-4 13.7246,13.7246 0 0 1 0.08527,0.0018 13.7246,13.7246 0 0 1 0.08527,0.002 13.7246,13.7246 0 0 1 0.08526,0.0025 13.7246,13.7246 0 0 1 0.08527,0.0026 13.7246,13.7246 0 0 1 0.08527,0.0031 13.7246,13.7246 0 0 1 0.08519,0.0042 13.7246,13.7246 0 0 1 0.08519,0.0046 13.7246,13.7246 0 0 1 0.08529,0.0051 13.7246,13.7246 0 0 1 0.08519,0.0058 13.7246,13.7246 0 0 1 0.08501,0.0063 13.7246,13.7246 0 0 1 0.08519,0.0069 13.7246,13.7246 0 0 1 0.085,0.0071 13.7246,13.7246 0 0 1 0.08501,0.0074 13.7246,13.7246 0 0 1 0.08493,0.008 13.7246,13.7246 0 0 1 0.08493,0.0087 13.7246,13.7246 0 0 1 0.08493,0.0092 13.7246,13.7246 0 0 1 0.08471,0.0097 13.7246,13.7246 0 0 1 0.08474,0.01033 13.7246,13.7246 0 0 1 0.08473,0.01077 13.7246,13.7246 0 0 1 0.08452,0.01121 13.7246,13.7246 0 0 1 0.08444,0.01186 13.7246,13.7246 0 0 1 0.08444,0.0123 13.7246,13.7246 0 0 1 0.08444,0.01318 13.7246,13.7246 0 0 1 0.08425,0.0134 13.7246,13.7246 0 0 1 0.08414,0.01406 13.7246,13.7246 0 0 1 0.08413,0.01471 13.7246,13.7246 0 0 1 0.08398,0.01495 13.7246,13.7246 0 0 1 0.08387,0.01538 13.7246,13.7246 0 0 1 0.08389,0.01626 13.7246,13.7246 0 0 1 0.08369,0.0167 13.7246,13.7246 0 0 1 0.08357,0.01692 13.7246,13.7246 0 0 1 0.08357,0.01758 13.7246,13.7246 0 0 1 0.08339,0.01823 13.7246,13.7246 0 0 1 0.08333,0.01868 13.7246,13.7246 0 0 1 0.08311,0.01911 13.7246,13.7246 0 0 1 0.08311,0.01956 13.7246,13.7246 0 0 1 0.08283,0.0202 13.7246,13.7246 0 0 1 0.08282,0.02087 13.7246,13.7246 0 0 1 0.08265,0.02131 13.7246,13.7246 0 0 1 0.08255,0.02176 13.7246,13.7246 0 0 1 0.08237,0.02243 13.7246,13.7246 0 0 1 0.08227,0.02272 13.7246,13.7246 0 0 1 0.08208,0.02328 13.7246,13.7246 0 0 1 0.08198,0.02386 13.7246,13.7246 0 0 1 0.08176,0.02433 13.7246,13.7246 0 0 1 0.08159,0.02475 13.7246,13.7246 0 0 1 0.08152,0.02537 13.7246,13.7246 0 0 1 0.08123,0.026 13.7246,13.7246 0 0 1 0.08123,0.02623 13.7246,13.7246 0 0 1 0.08104,0.027 13.7246,13.7246 0 0 1 0.08075,0.02728 13.7246,13.7246 0 0 1 0.08065,0.02799 13.7246,13.7246 0 0 1 0.08064,0.02829 13.7246,13.7246 0 0 1 0.08018,0.02891 13.7246,13.7246 0 0 1 0.08018,0.02935 13.7246,13.7246 0 0 1 0.07995,0.02993 13.7246,13.7246 0 0 1 0.07972,0.03035 13.7246,13.7246 0 0 1 0.07963,0.03094 13.7246,13.7246 0 0 1 0.07945,0.03135 13.7246,13.7246 0 0 1 0.07916,0.03181 13.7246,13.7246 0 0 1 0.07905,0.03238 13.7246,13.7246 0 0 1 0.07867,0.03283 13.7246,13.7246 0 0 1 0.07858,0.03328 13.7246,13.7246 0 0 1 0.07839,0.0339 13.7246,13.7246 0 0 1 0.07812,0.0343 13.7246,13.7246 0 0 1 0.0778,0.03473 13.7246,13.7246 0 0 1 0.0778,0.03521 13.7246,13.7246 0 0 1 0.07745,0.03578 13.7246,13.7246 0 0 1 0.07725,0.03622 13.7246,13.7246 0 0 1 0.07717,0.0368 13.7246,13.7246 0 0 1 0.07677,0.03708 13.7246,13.7246 0 0 1 0.07649,0.03768 13.7246,13.7246 0 0 1 0.0764,0.03824 13.7246,13.7246 0 0 1 0.07614,0.03853 13.7246,13.7246 0 0 1 0.07593,0.03913 13.7246,13.7246 0 0 1 0.07565,0.03944 13.7246,13.7246 0 0 1 0.07537,0.04001 13.7246,13.7246 0 0 1 0.07517,0.04061 13.7246,13.7246 0 0 1 0.0748,0.04091 13.7246,13.7246 0 0 1 0.07462,0.04147 13.7246,13.7246 0 0 1 0.07451,0.04176 13.7246,13.7246 0 0 1 0.07404,0.04235 13.7246,13.7246 0 0 1 0.07385,0.0428 13.7246,13.7246 0 0 1 0.07346,0.04341 13.7246,13.7246 0 0 1 0.07326,0.04366 13.7246,13.7246 0 0 1 0.0732,0.04409 13.7246,13.7246 0 0 1 0.07271,0.0447 13.7246,13.7246 0 0 1 0.07245,0.04498 13.7246,13.7246 0 0 1 0.07225,0.04558 13.7246,13.7246 0 0 1 0.07185,0.04601 13.7246,13.7246 0 0 1 0.07159,0.04635 13.7246,13.7246 0 0 1 0.07141,0.04688 13.7246,13.7246 0 0 1 0.07111,0.04732 13.7246,13.7246 0 0 1 0.07066,0.04778 13.7246,13.7246 0 0 1 0.07056,0.0481 13.7246,13.7246 0 0 1 0.07007,0.04867 13.7246,13.7246 0 0 1 0.0698,0.0491 13.7246,13.7246 0 0 1 0.06959,0.0494 13.7246,13.7246 0 0 1 0.06922,0.05 13.7246,13.7246 0 0 1 0.06893,0.05043 13.7246,13.7246 0 0 1 0.06867,0.05068 13.7246,13.7246 0 0 1 0.06816,0.05114 13.7246,13.7246 0 0 1 0.06798,0.05176 13.7246,13.7246 0 0 1 0.06762,0.05206 13.7246,13.7246 0 0 1 0.06734,0.05247 13.7246,13.7246 0 0 1 0.06696,0.05291 13.7246,13.7246 0 0 1 0.06663,0.05322 13.7246,13.7246 0 0 1 0.06629,0.05382 13.7246,13.7246 0 0 1 0.066,0.05408 13.7246,13.7246 0 0 1 0.06574,0.05455 13.7246,13.7246 0 0 1 0.06524,0.05498 13.7246,13.7246 0 0 1 0.06506,0.05543 13.7246,13.7246 0 0 1 0.06448,0.0557 13.7246,13.7246 0 0 1 0.06438,0.05615 13.7246,13.7246 0 0 1 0.06395,0.05657 13.7246,13.7246 0 0 1 0.06347,0.05703 13.7246,13.7246 0 0 1 0.06317,0.05732 13.7246,13.7246 0 0 1 0.06289,0.05775 13.7246,13.7246 0 0 1 0.06239,0.05806 13.7246,13.7246 0 0 1 0.06214,0.05863 13.7246,13.7246 0 0 1 0.06174,0.05881 13.7246,13.7246 0 0 1 0.06137,0.05935 13.7246,13.7246 0 0 1 0.061,0.05967 13.7246,13.7246 0 0 1 0.06071,0.06009 13.7246,13.7246 0 0 1 0.06024,0.06041 13.7246,13.7246 0 0 1 0.05997,0.06067 13.7246,13.7246 0 0 1 0.05949,0.06128 13.7246,13.7246 0 0 1 0.05911,0.06139 13.7246,13.7246 0 0 1 0.05881,0.06202 13.7246,13.7246 0 0 1 0.05834,0.06232 13.7246,13.7246 0 0 1 0.05806,0.06259 13.7246,13.7246 0 0 1 0.05759,0.06289 13.7246,13.7246 0 0 1 0.05722,0.0635 13.7246,13.7246 0 0 1 0.05673,0.0636 13.7246,13.7246 0 0 1 0.05646,0.06405 13.7246,13.7246 0 0 1 0.05597,0.06434 13.7246,13.7246 0 0 1 0.05561,0.06478 13.7246,13.7246 0 0 1 0.05522,0.06506 13.7246,13.7246 0 0 1 0.05485,0.06554 13.7246,13.7246 0 0 1 0.05437,0.06568 13.7246,13.7246 0 0 1 0.05399,0.06613 13.7246,13.7246 0 0 1 0.05351,0.06641 13.7246,13.7246 0 0 1 0.05325,0.06685 13.7246,13.7246 0 0 1 0.05258,0.06713 13.7246,13.7246 0 0 1 0.0524,0.06744 13.7246,13.7246 0 0 1 0.05191,0.06772 13.7246,13.7246 0 0 1 0.05142,0.06802 13.7246,13.7246 0 0 1 0.05117,0.06847 13.7246,13.7246 0 0 1 0.0506,0.06877 13.7246,13.7246 0 0 1 0.0501,0.06907 13.7246,13.7246 0 0 1 0.04983,0.06935 13.7246,13.7246 0 0 1 0.04924,0.06966 13.7246,13.7246 0 0 1 0.04897,0.0699 13.7246,13.7246 0 0 1 0.04841,0.07023 13.7246,13.7246 0 0 1 0.04805,0.07051 13.7246,13.7246 0 0 1 0.04747,0.07094 13.7246,13.7246 0 0 1 0.0472,0.07109 13.7246,13.7246 0 0 1 0.04682,0.07141 13.7246,13.7246 0 0 1 0.04616,0.07183 13.7246,13.7246 0 0 1 0.04577,0.07198 13.7246,13.7246 0 0 1 0.04546,0.07229 13.7246,13.7246 0 0 1 0.04481,0.07258 13.7246,13.7246 0 0 1 0.04443,0.07282 13.7246,13.7246 0 0 1 0.04417,0.07315 13.7246,13.7246 0 0 1 0.0435,0.07344 13.7246,13.7246 0 0 1 0.04314,0.0736 13.7246,13.7246 0 0 1 0.04258,0.07403 13.7246,13.7246 0 0 1 0.04221,0.07418 13.7246,13.7246 0 0 1 0.0416,0.07445 13.7246,13.7246 0 0 1 0.04132,0.07476 13.7246,13.7246 0 0 1 0.04075,0.0749 13.7246,13.7246 0 0 1 0.0403,0.07519 13.7246,13.7246 0 0 1 0.0399,0.07551 13.7246,13.7246 0 0 1 0.03935,0.0758 13.7246,13.7246 0 0 1 0.03897,0.07595 13.7246,13.7246 0 0 1 0.0384,0.07622 13.7246,13.7246 0 0 1 0.03791,0.07638 13.7246,13.7246 0 0 1 0.03736,0.07664 13.7246,13.7246 0 0 1 0.03705,0.07697 13.7246,13.7246 0 0 1 0.03651,0.0771 13.7246,13.7246 0 0 1 0.03594,0.07739 13.7246,13.7246 0 0 1 0.03568,0.07757 13.7246,13.7246 0 0 1 0.03508,0.07783 13.7246,13.7246 0 0 1 0.03459,0.07801 13.7246,13.7246 0 0 1 0.03413,0.07829 13.7246,13.7246 0 0 1 0.03355,0.07841 13.7246,13.7246 0 0 1 0.03308,0.07856 13.7246,13.7246 0 0 1 0.03272,0.07885 13.7246,13.7246 0 0 1 0.03213,0.07919 13.7246,13.7246 0 0 1 0.03168,0.07919 13.7246,13.7246 0 0 1 0.03111,0.07946 13.7246,13.7246 0 0 1 0.03081,0.07976 13.7246,13.7246 0 0 1 0.03005,0.07978 13.7246,13.7246 0 0 1 0.02978,0.08003 13.7246,13.7246 0 0 1 0.02913,0.08018 13.7246,13.7246 0 0 1 0.02856,0.08048 13.7246,13.7246 0 0 1 0.02826,0.08049 13.7246,13.7246 0 0 1 0.02751,0.08077 13.7246,13.7246 0 0 1 0.02723,0.08095 13.7246,13.7246 0 0 1 0.02666,0.08105 13.7246,13.7246 0 0 1 0.0261,0.08121 13.7246,13.7246 0 0 1 0.0256,0.08136 13.7246,13.7246 0 0 1 0.02524,0.08164 13.7246,13.7246 0 0 1 0.0246,0.08165 13.7246,13.7246 0 0 1 0.02401,0.08193 13.7246,13.7246 0 0 1 0.02373,0.08193 13.7246,13.7246 0 0 1 0.02297,0.08211 13.7246,13.7246 0 0 1 0.0226,0.0824 13.7246,13.7246 0 0 1 0.02214,0.08237 13.7246,13.7246 0 0 1 0.02152,0.08253 13.7246,13.7246 0 0 1 0.02107,0.08284 13.7246,13.7246 0 0 1 0.02064,0.08282 13.7246,13.7246 0 0 1 0.01998,0.08295 13.7246,13.7246 0 0 1 0.01957,0.08296 13.7246,13.7246 0 0 1 0.01888,0.08328 13.7246,13.7246 0 0 1 0.01868,0.08328 13.7246,13.7246 0 0 1 0.01779,0.08354 13.7246,13.7246 0 0 1 0.01735,0.08341 13.7246,13.7246 0 0 1 0.01691,0.08372 13.7246,13.7246 0 0 1 0.01624,0.08371 13.7246,13.7246 0 0 1 0.01604,0.08387 13.7246,13.7246 0 0 1 0.01517,0.08398 13.7246,13.7246 0 0 1 0.01495,0.08401 13.7246,13.7246 0 0 1 0.01405,0.08414 13.7246,13.7246 0 0 1 0.01362,0.0843 13.7246,13.7246 0 0 1 0.01341,0.08431 13.7246,13.7246 0 0 1 0.01274,0.08444 13.7246,13.7246 0 0 1 0.01208,0.08444 13.7246,13.7246 0 0 1 0.01165,0.08459 13.7246,13.7246 0 0 1 0.01099,0.08459 13.7246,13.7246 0 0 1 0.01077,0.08459 13.7246,13.7246 0 0 1 0.0099,0.08488 13.7246,13.7246 0 0 1 0.0097,0.08475 13.7246,13.7246 0 0 1 0.0094,0.08488 13.7246,13.7246 0 0 1 0.0085,0.08488 13.7246,13.7246 0 0 1 0.0074,0.08503 13.7246,13.7246 0 0 1 0.0074,0.08503 13.7246,13.7246 0 0 1 0.0068,0.08502 13.7246,13.7246 0 0 1 0.0069,0.08512 13.7246,13.7246 0 0 1 0.0058,0.08503 13.7246,13.7246 0 0 1 0.0058,0.08531 13.7246,13.7246 0 0 1 0.0046,0.08523 13.7246,13.7246 0 0 1 0.0046,0.08523 13.7246,13.7246 0 0 1 0.0036,0.08522 13.7246,13.7246 0 0 1 0.0036,0.08522 13.7246,13.7246 0 0 1 0.0026,0.08522 13.7246,13.7246 0 0 1 0.0023,0.08523 13.7246,13.7246 0 0 1 0.0022,0.08523 13.7246,13.7246 0 0 1 0.0011,0.08522 13.7246,13.7246 0 0 1 5.66e-4,0.08522 13.7246,13.7246 0 0 1 0,0.05118 13.7246,13.7246 0 0 1 -2.83e-4,0.08523 13.7246,13.7246 0 0 1 -0.0011,0.08545 13.7246,13.7246 0 0 1 -0.0023,0.08522 13.7246,13.7246 0 0 1 -0.0022,0.08523 13.7246,13.7246 0 0 1 -0.0023,0.08522 13.7246,13.7246 0 0 1 -0.0026,0.08524 13.7246,13.7246 0 0 1 -0.0036,0.08522 13.7246,13.7246 0 0 1 -0.0036,0.08522 13.7246,13.7246 0 0 1 -0.0046,0.08522 13.7246,13.7246 0 0 1 -0.0046,0.08523 13.7246,13.7246 0 0 1 -0.0058,0.08522 13.7246,13.7246 0 0 1 -0.0058,0.08523 13.7246,13.7246 0 0 1 -0.0069,0.08522 13.7246,13.7246 0 0 1 -0.0074,0.08502 13.7246,13.7246 0 0 1 -0.0074,0.08501 13.7246,13.7246 0 0 1 -0.0085,0.08479 13.7246,13.7246 0 0 1 -0.0085,0.08478 13.7246,13.7246 0 0 1 -0.0094,0.08479 13.7246,13.7246 0 0 1 -0.0099,0.08479 13.7246,13.7246 0 0 1 -0.01055,0.08478 13.7246,13.7246 0 0 1 -0.01099,0.08479 13.7246,13.7246 0 0 1 -0.01099,0.08457 13.7246,13.7246 0 0 1 -0.01208,0.08435 13.7246,13.7246 0 0 1 -0.01208,0.08435 13.7246,13.7246 0 0 1 -0.01318,0.08435 13.7246,13.7246 0 0 1 -0.01361,0.08413 13.7246,13.7246 0 0 1 -0.01362,0.08434 13.7246,13.7246 0 0 1 -0.01471,0.08391 13.7246,13.7246 0 0 1 -0.01516,0.08413 13.7246,13.7246 0 0 1 -0.01538,0.08392 13.7246,13.7246 0 0 1 -0.01625,0.08392 13.7246,13.7246 0 0 1 -0.01669,0.08369 13.7246,13.7246 0 0 1 -0.01713,0.08348 13.7246,13.7246 0 0 1 -0.01757,0.08347 13.7246,13.7246 0 0 1 -0.018,0.08348 13.7246,13.7246 0 0 1 -0.01868,0.08325 13.7246,13.7246 0 0 1 -0.01911,0.08304 13.7246,13.7246 0 0 1 -0.01955,0.08303 13.7246,13.7246 0 0 1 -0.02044,0.08305 13.7246,13.7246 0 0 1 -0.02064,0.08282 13.7246,13.7246 0 0 1 -0.02132,0.08261 13.7246,13.7246 0 0 1 -0.02176,0.08259 13.7246,13.7246 0 0 1 -0.02232,0.08237 13.7246,13.7246 0 0 1 -0.02271,0.08215 13.7246,13.7246 0 0 1 -0.02335,0.08215 13.7246,13.7246 0 0 1 -0.02392,0.08215 13.7246,13.7246 0 0 1 -0.02427,0.08172 13.7246,13.7246 0 0 1 -0.02498,0.08172 13.7246,13.7246 0 0 1 -0.02522,0.08127 13.7246,13.7246 0 0 1 -0.02587,0.08128 13.7246,13.7246 0 0 1 -0.02641,0.08127 13.7246,13.7246 0 0 1 -0.02684,0.08105 13.7246,13.7246 0 0 1 -0.02745,0.08084 13.7246,13.7246 0 0 1 -0.02789,0.08062 13.7246,13.7246 0 0 1 -0.02826,0.0804 13.7246,13.7246 0 0 1 -0.02886,0.08041 13.7246,13.7246 0 0 1 -0.0295,0.08018 13.7246,13.7246 0 0 1 -0.02979,0.07995 13.7246,13.7246 0 0 1 -0.03045,0.07975 13.7246,13.7246 0 0 1 -0.03082,0.07953 13.7246,13.7246 0 0 1 -0.03138,0.07952 13.7246,13.7246 0 0 1 -0.03178,0.0793 13.7246,13.7246 0 0 1 -0.03245,0.07886 13.7246,13.7246 0 0 1 -0.03282,0.07887 13.7246,13.7246 0 0 1 -0.03328,0.07864 13.7246,13.7246 0 0 1 -0.03387,0.0782 13.7246,13.7246 0 0 1 -0.03432,0.07819 13.7246,13.7246 0 0 1 -0.03469,0.07776 13.7246,13.7246 0 0 1 -0.03534,0.07776 13.7246,13.7246 0 0 1 -0.03567,0.07754 13.7246,13.7246 0 0 1 -0.0364,0.07731 13.7246,13.7246 0 0 1 -0.03669,0.0771 13.7246,13.7246 0 0 1 -0.03726,0.07688 13.7246,13.7246 0 0 1 -0.03765,0.07644 13.7246,13.7246 0 0 1 -0.03811,0.07644 13.7246,13.7246 0 0 1 -0.0386,0.07601 13.7246,13.7246 0 0 1 -0.03913,0.07601 13.7246,13.7246 0 0 1 -0.03963,0.07556 13.7246,13.7246 0 0 1 -0.04,0.07535 13.7246,13.7246 0 0 1 -0.04046,0.07513 13.7246,13.7246 0 0 1 -0.04093,0.07491 13.7246,13.7246 0 0 1 -0.04151,0.07469 13.7246,13.7246 0 0 1 -0.04187,0.07424 13.7246,13.7246 0 0 1 -0.04237,0.07424 13.7246,13.7246 0 0 1 -0.0428,0.0738 13.7246,13.7246 0 0 1 -0.0432,0.0736 13.7246,13.7246 0 0 1 -0.04368,0.07337 13.7246,13.7246 0 0 1 -0.04417,0.07293 13.7246,13.7246 0 0 1 -0.04475,0.07292 13.7246,13.7246 0 0 1 -0.04521,0.07249 13.7246,13.7246 0 0 1 -0.04546,0.07205 13.7246,13.7246 0 0 1 -0.04603,0.07205 13.7246,13.7246 0 0 1 -0.04639,0.07162 13.7246,13.7246 0 0 1 -0.0468,0.07139 13.7246,13.7246 0 0 1 -0.04735,0.07094 13.7246,13.7246 0 0 1 -0.04777,0.07074 13.7246,13.7246 0 0 1 -0.04821,0.0703 13.7246,13.7246 0 0 1 -0.04852,0.07031 13.7246,13.7246 0 0 1 -0.04909,0.06984 13.7246,13.7246 0 0 1 -0.04955,0.0694 13.7246,13.7246 0 0 1 -0.04983,0.0694 13.7246,13.7246 0 0 1 -0.05036,0.06896 13.7246,13.7246 0 0 1 -0.05067,0.06852 13.7246,13.7246 0 0 1 -0.0513,0.06833 13.7246,13.7246 0 0 1 -0.05163,0.06808 13.7246,13.7246 0 0 1 -0.05201,0.06764 13.7246,13.7246 0 0 1 -0.05249,0.06721 13.7246,13.7246 0 0 1 -0.05293,0.06701 13.7246,13.7246 0 0 1 -0.05331,0.06677 13.7246,13.7246 0 0 1 -0.05363,0.06634 13.7246,13.7246 0 0 1 -0.05425,0.06612 13.7246,13.7246 0 0 1 -0.05455,0.06568 13.7246,13.7246 0 0 1 -0.05485,0.06525 13.7246,13.7246 0 0 1 -0.05543,0.0648 13.7246,13.7246 0 0 1 -0.05569,0.06458 13.7246,13.7246 0 0 1 -0.05625,0.06437 13.7246,13.7246 0 0 1 -0.05644,0.06392 13.7246,13.7246 0 0 1 -0.05703,0.06348 13.7246,13.7246 0 0 1 -0.05729,0.06326 13.7246,13.7246 0 0 1 -0.05777,0.06282 13.7246,13.7246 0 0 1 -0.05816,0.06239 13.7246,13.7246 0 0 1 -0.05853,0.06216 13.7246,13.7246 0 0 1 -0.05889,0.06173 13.7246,13.7246 0 0 1 -0.05919,0.06151 13.7246,13.7246 0 0 1 -0.05967,0.06106 13.7246,13.7246 0 0 1 -0.06016,0.06063 13.7246,13.7246 0 0 1 -0.06041,0.06041 13.7246,13.7246 0 0 1 -0.06079,0.05997 13.7246,13.7246 0 0 1 -0.0612,0.05953 13.7246,13.7246 0 0 1 -0.06157,0.05908 13.7246,13.7246 0 0 1 -0.06183,0.05864 13.7246,13.7246 0 0 1 -0.06234,0.05843 13.7246,13.7246 0 0 1 -0.06258,0.05822 13.7246,13.7246 0 0 1 -0.06309,0.05756 13.7246,13.7246 0 0 1 -0.06335,0.05734 13.7246,13.7246 0 0 1 -0.06363,0.05666 13.7246,13.7246 0 0 1 -0.06415,0.05623 13.7246,13.7246 0 0 1 -0.06448,0.05601 13.7246,13.7246 0 0 1 -0.06468,0.05557 13.7246,13.7246 0 0 1 -0.06506,0.05535 13.7246,13.7246 0 0 1 -0.06554,0.0547 13.7246,13.7246 0 0 1 -0.06573,0.05448 13.7246,13.7246 0 0 1 -0.0661,0.05425 13.7246,13.7246 0 0 1 -0.06656,0.0536 13.7246,13.7246 0 0 1 -0.06665,0.05294 13.7246,13.7246 0 0 1 -0.06712,0.05272 13.7246,13.7246 0 0 1 -0.06742,0.05249 13.7246,13.7246 0 0 1 -0.06769,0.05184 13.7246,13.7246 0 0 1 -0.06816,0.05141 13.7246,13.7246 0 0 1 -0.06828,0.05097 13.7246,13.7246 0 0 1 -0.06877,0.05074 13.7246,13.7246 0 0 1 -0.06903,0.05031 13.7246,13.7246 0 0 1 -0.0693,0.04964 13.7246,13.7246 0 0 1 -0.06959,0.04943 13.7246,13.7246 0 0 1 -0.06986,0.04898 13.7246,13.7246 0 0 1 -0.07027,0.04832 13.7246,13.7246 0 0 1 -0.07065,0.04812 13.7246,13.7246 0 0 1 -0.07082,0.04745 13.7246,13.7246 0 0 1 -0.07111,0.04725 13.7246,13.7246 0 0 1 -0.07151,0.04658 13.7246,13.7246 0 0 1 -0.07165,0.04633 13.7246,13.7246 0 0 1 -0.07198,0.04569 13.7246,13.7246 0 0 1 -0.07224,0.04546 13.7246,13.7246 0 0 1 -0.07254,0.04481 13.7246,13.7246 0 0 1 -0.07282,0.04458 13.7246,13.7246 0 0 1 -0.0732,0.04394 13.7246,13.7246 0 0 1 -0.07346,0.0435 13.7246,13.7246 0 0 1 -0.07375,0.04305 13.7246,13.7246 0 0 1 -0.07385,0.04261 13.7246,13.7246 0 0 1 -0.07422,0.04217 13.7246,13.7246 0 0 1 -0.07443,0.04173 13.7246,13.7246 0 0 1 -0.07479,0.04131 13.7246,13.7246 0 0 1 -0.07486,0.04064 13.7246,13.7246 0 0 1 -0.07517,0.04042 13.7246,13.7246 0 0 1 -0.07546,0.03976 13.7246,13.7246 0 0 1 -0.0758,0.03931 13.7246,13.7246 0 0 1 -0.07593,0.03867 13.7246,13.7246 0 0 1 -0.07619,0.03845 13.7246,13.7246 0 0 1 -0.0764,0.03799 13.7246,13.7246 0 0 1 -0.07669,0.03757 13.7246,13.7246 0 0 1 -0.07697,0.03692 13.7246,13.7246 0 0 1 -0.07709,0.03647 13.7246,13.7246 0 0 1 -0.07745,0.03603 13.7246,13.7246 0 0 1 -0.07755,0.03559 13.7246,13.7246 0 0 1 -0.0778,0.03492 13.7246,13.7246 0 0 1 -0.07801,0.03449 13.7246,13.7246 0 0 1 -0.07829,0.03427 13.7246,13.7246 0 0 1 -0.0784,0.03361 13.7246,13.7246 0 0 1 -0.07877,0.03316 13.7246,13.7246 0 0 1 -0.07886,0.03251 13.7246,13.7246 0 0 1 -0.07905,0.03208 13.7246,13.7246 0 0 1 -0.07934,0.03163 13.7246,13.7246 0 0 1 -0.07945,0.03097 13.7246,13.7246 0 0 1 -0.0796,0.03075 13.7246,13.7246 0 0 1 -0.07993,0.03032 13.7246,13.7246 0 0 1 -0.07992,0.02965 13.7246,13.7246 0 0 1 -0.08028,0.02921 13.7246,13.7246 0 0 1 -0.08036,0.02877 13.7246,13.7246 0 0 1 -0.08064,0.02812 13.7246,13.7246 0 0 1 -0.08064,0.02767 13.7246,13.7246 0 0 1 -0.08095,0.02722 13.7246,13.7246 0 0 1 -0.08106,0.02659 13.7246,13.7246 0 0 1 -0.08123,0.02636 13.7246,13.7246 0 0 1 -0.08152,0.02571 13.7246,13.7246 0 0 1 -0.08152,0.02525 13.7246,13.7246 0 0 1 -0.08169,0.02482 13.7246,13.7246 0 0 1 -0.08198,0.02416 13.7246,13.7246 0 0 1 -0.08198,0.0235 13.7246,13.7246 0 0 1 -0.08227,0.02307 13.7246,13.7246 0 0 1 -0.08227,0.02264 13.7246,13.7246 0 0 1 -0.08236,0.0222 13.7246,13.7246 0 0 1 -0.08265,0.02194 13.7246,13.7246 0 0 1 -0.08263,0.02195 13.7246,13.7246 0 0 1 -0.08283,0.01977 13.7246,13.7246 0 0 1 -0.08293,0.01977 13.7246,13.7246 0 0 1 -0.08311,0.01977 13.7246,13.7246 0 0 1 -0.08311,0.01976 13.7246,13.7246 0 0 1 -0.08339,0.01757 13.7246,13.7246 0 0 1 -0.08338,0.01758 13.7246,13.7246 0 0 1 -0.08357,0.01757 13.7246,13.7246 0 0 1 -0.08358,0.01758 13.7246,13.7246 0 0 1 -0.08387,0.01538 13.7246,13.7246 0 0 1 -0.08389,0.01538 13.7246,13.7246 0 0 1 -0.08387,0.01538 13.7246,13.7246 0 0 1 -0.08413,0.01538 13.7246,13.7246 0 0 1 -0.08413,0.01318 13.7246,13.7246 0 0 1 -0.08413,0.01318 13.7246,13.7246 0 0 1 -0.08433,0.01318 13.7246,13.7246 0 0 1 -0.08444,0.01099 13.7246,13.7246 0 0 1 -0.08444,0.01099 13.7246,13.7246 0 0 1 -0.08453,0.01099 13.7246,13.7246 0 0 1 -0.08452,0.01099 13.7246,13.7246 0 0 1 -0.08473,0.0087 13.7246,13.7246 0 0 1 -0.08473,0.01099 13.7246,13.7246 0 0 1 -0.08471,0.0087 13.7246,13.7246 0 0 1 -0.08493,0.0087 13.7246,13.7246 0 0 1 -0.08502,0.0087 13.7246,13.7246 0 0 1 -0.08493,0.0087 13.7246,13.7246 0 0 1 -0.08502,0.0087 13.7246,13.7246 0 0 1 -0.08501,0.0087 13.7246,13.7246 0 0 1 -0.08519,0.0069 13.7246,13.7246 0 0 1 -0.08519,0.0069 13.7246,13.7246 0 0 1 -0.08519,0.0068 13.7246,13.7246 0 0 1 -0.08518,0.0044 13.7246,13.7246 0 0 1 -0.08527,0.0044 13.7246,13.7246 0 0 1 -0.08519,0.0044 13.7246,13.7246 0 0 1 -0.08527,0.0044 13.7246,13.7246 0 0 1 -0.08527,0.0022 13.7246,13.7246 0 0 1 -0.08526,0.0023 13.7246,13.7246 0 0 1 -0.08527,0.002 13.7246,13.7246 0 0 1 -0.08527,0.0013 13.7246,13.7246 0 0 1 -0.08527,5.72e-4 13.7246,13.7246 0 0 1 -0.0513,1.31e-4 13.7246,13.7246 0 0 1 -0.08526,-2.64e-4 13.7246,13.7246 0 0 1 -0.08527,-8.76e-4 13.7246,13.7246 0 0 1 -0.08527,-0.0018 13.7246,13.7246 0 0 1 -0.08527,-0.0022 13.7246,13.7246 0 0 1 -0.08527,-0.0023 13.7246,13.7246 0 0 1 -0.08526,-0.0044 13.7246,13.7246 0 0 1 -0.08527,-0.0044 13.7246,13.7246 0 0 1 -0.0852,-0.0044 13.7246,13.7246 0 0 1 -0.08528,-0.0043 13.7246,13.7246 0 0 1 -0.08519,-0.0069 13.7246,13.7246 0 0 1 -0.08519,-0.0069 13.7246,13.7246 0 0 1 -0.08501,-0.0068 13.7246,13.7246 0 0 1 -0.08518,-0.0069 13.7246,13.7246 0 0 1 -0.08502,-0.0087 13.7246,13.7246 0 0 1 -0.08501,-0.0087 13.7246,13.7246 0 0 1 -0.0849,-0.0087 13.7246,13.7246 0 0 1 -0.0849,-0.0087 13.7246,13.7246 0 0 1 -0.0849,-0.01099 13.7246,13.7246 0 0 1 -0.08493,-0.0087 13.7246,13.7246 0 0 1 -0.08452,-0.01099 13.7246,13.7246 0 0 1 -0.08473,-0.0087 13.7246,13.7246 0 0 1 -0.08452,-0.01099 13.7246,13.7246 0 0 1 -0.08444,-0.01099 13.7246,13.7246 0 0 1 -0.08443,-0.01099 13.7246,13.7246 0 0 1 -0.08444,-0.01099 13.7246,13.7246 0 0 1 -0.08425,-0.01318 13.7246,13.7246 0 0 1 -0.08413,-0.01317 13.7246,13.7246 0 0 1 -0.08413,-0.01318 13.7246,13.7246 0 0 1 -0.08396,-0.01538 13.7246,13.7246 0 0 1 -0.08387,-0.01538 13.7246,13.7246 0 0 1 -0.08387,-0.01538 13.7246,13.7246 0 0 1 -0.08369,-0.01538 13.7246,13.7246 0 0 1 -0.08357,-0.01757 13.7246,13.7246 0 0 1 -0.08358,-0.01758 13.7246,13.7246 0 0 1 -0.08339,-0.01757 13.7246,13.7246 0 0 1 -0.08333,-0.01758 13.7246,13.7246 0 0 1 -0.08311,-0.01977 13.7246,13.7246 0 0 1 -0.08311,-0.01977 13.7246,13.7246 0 0 1 -0.08283,-0.01976 13.7246,13.7246 0 0 1 -0.08282,-0.01977 13.7246,13.7246 0 0 1 -0.08263,-0.02195 13.7246,13.7246 0 0 1 -0.08255,-0.02195 13.7246,13.7246 0 0 1 -0.08236,-0.0224 13.7246,13.7246 0 0 1 -0.08227,-0.02284 13.7246,13.7246 0 0 1 -0.08209,-0.02329 13.7246,13.7246 0 0 1 -0.08196,-0.02374 13.7246,13.7246 0 0 1 -0.08176,-0.02437 13.7246,13.7246 0 0 1 -0.08159,-0.02482 13.7246,13.7246 0 0 1 -0.08152,-0.02524 13.7246,13.7246 0 0 1 -0.08132,-0.02593 13.7246,13.7246 0 0 1 -0.08106,-0.02659 13.7246,13.7246 0 0 1 -0.08143,-0.02659 13.7246,13.7246 0 0 1 -0.08075,-0.02747 13.7246,13.7246 0 0 1 -0.08077,-0.02789 13.7246,13.7246 0 0 1 -0.08049,-0.02856 13.7246,13.7246 0 0 1 -0.08038,-0.02877 13.7246,13.7246 0 0 1 -0.07998,-0.02922 13.7246,13.7246 0 0 1 -0.07998,-0.02987 13.7246,13.7246 0 0 1 -0.07972,-0.03033 13.7246,13.7246 0 0 1 -0.07946,-0.03075 13.7246,13.7246 0 0 1 -0.07946,-0.03141 13.7246,13.7246 0 0 1 -0.07916,-0.03186 13.7246,13.7246 0 0 1 -0.07905,-0.03252 13.7246,13.7246 0 0 1 -0.07865,-0.03273 13.7246,13.7246 0 0 1 -0.07858,-0.03316 13.7246,13.7246 0 0 1 -0.0784,-0.03384 13.7246,13.7246 0 0 1 -0.0781,-0.03426 13.7246,13.7246 0 0 1 -0.07783,-0.03472 13.7246,13.7246 0 0 1 -0.07783,-0.03536 13.7246,13.7246 0 0 1 -0.07734,-0.03581 13.7246,13.7246 0 0 1 -0.07725,-0.03625 13.7246,13.7246 0 0 1 -0.07705,-0.03647 13.7246,13.7246 0 0 1 -0.07678,-0.03711 13.7246,13.7246 0 0 1 -0.07668,-0.03778 13.7246,13.7246 0 0 1 -0.0762,-0.03821 13.7246,13.7246 0 0 1 -0.07619,-0.03845 13.7246,13.7246 0 0 1 -0.0757,-0.03912 13.7246,13.7246 0 0 1 -0.07565,-0.03955 13.7246,13.7246 0 0 1 -0.07535,-0.0402 13.7246,13.7246 0 0 1 -0.07517,-0.04042 13.7246,13.7246 0 0 1 -0.0748,-0.04107 13.7246,13.7246 0 0 1 -0.07463,-0.0413 13.7246,13.7246 0 0 1 -0.07443,-0.04195 13.7246,13.7246 0 0 1 -0.07404,-0.04239 13.7246,13.7246 0 0 1 -0.07385,-0.04284 13.7246,13.7246 0 0 1 -0.07356,-0.04327 13.7246,13.7246 0 0 1 -0.07328,-0.04371 13.7246,13.7246 0 0 1 -0.07302,-0.04438 13.7246,13.7246 0 0 1 -0.07269,-0.04458 13.7246,13.7246 0 0 1 -0.07244,-0.04501 13.7246,13.7246 0 0 1 -0.07227,-0.04546 13.7246,13.7246 0 0 1 -0.07185,-0.04613 13.7246,13.7246 0 0 1 -0.07168,-0.04658 13.7246,13.7246 0 0 1 -0.07121,-0.04678 13.7246,13.7246 0 0 1 -0.07111,-0.04725 13.7246,13.7246 0 0 1 -0.07066,-0.04788 13.7246,13.7246 0 0 1 -0.07056,-0.04831 13.7246,13.7246 0 0 1 -0.07007,-0.04855 13.7246,13.7246 0 0 1 -0.0698,-0.04899 13.7246,13.7246 0 0 1 -0.06956,-0.04964 13.7246,13.7246 0 0 1 -0.06922,-0.05008 13.7246,13.7246 0 0 1 -0.06892,-0.05029 13.7246,13.7246 0 0 1 -0.06867,-0.05074 13.7246,13.7246 0 0 1 -0.06816,-0.05119 13.7246,13.7246 0 0 1 -0.06798,-0.05163 13.7246,13.7246 0 0 1 -0.0676,-0.05205 13.7246,13.7246 0 0 1 -0.06733,-0.05251 13.7246,13.7246 0 0 1 -0.06704,-0.05294 13.7246,13.7246 0 0 1 -0.06664,-0.05339 13.7246,13.7246 0 0 1 -0.06626,-0.0536 13.7246,13.7246 0 0 1 -0.06598,-0.05425 13.7246,13.7246 0 0 1 -0.06574,-0.05448 13.7246,13.7246 0 0 1 -0.06535,-0.05492 13.7246,13.7246 0 0 1 -0.06493,-0.05535 13.7246,13.7246 0 0 1 -0.06451,-0.05578 13.7246,13.7246 0 0 1 -0.06439,-0.05623 13.7246,13.7246 0 0 1 -0.06395,-0.05645 13.7246,13.7246 0 0 1 -0.06346,-0.0569 13.7246,13.7246 0 0 1 -0.06335,-0.05734 13.7246,13.7246 0 0 1 -0.0627,-0.05777 13.7246,13.7246 0 0 1 -0.06252,-0.05822 13.7246,13.7246 0 0 1 -0.06214,-0.05843 13.7246,13.7246 0 0 1 -0.06183,-0.05887 13.7246,13.7246 0 0 1 -0.06128,-0.05908 13.7246,13.7246 0 0 1 -0.0612,-0.05975 13.7246,13.7246 0 0 1 -0.06051,-0.06018 13.7246,13.7246 0 0 1 -0.06023,-0.06041 13.7246,13.7246 0 0 1 -0.05997,-0.06085 13.7246,13.7246 0 0 1 -0.05949,-0.06106 13.7246,13.7246 0 0 1 -0.05908,-0.06151 13.7246,13.7246 0 0 1 -0.05881,-0.06195 13.7246,13.7246 0 0 1 -0.05834,-0.0624 13.7246,13.7246 0 0 1 -0.05805,-0.06261 13.7246,13.7246 0 0 1 -0.05758,-0.06304 13.7246,13.7246 0 0 1 -0.05721,-0.06326 13.7246,13.7246 0 0 1 -0.05673,-0.06393 13.7246,13.7246 0 0 1 -0.05646,-0.06414 13.7246,13.7246 0 0 1 -0.05597,-0.06438 13.7246,13.7246 0 0 1 -0.0556,-0.0648 13.7246,13.7246 0 0 1 -0.05522,-0.06502 13.7246,13.7246 0 0 1 -0.05486,-0.06546 13.7246,13.7246 0 0 1 -0.05436,-0.06589 13.7246,13.7246 0 0 1 -0.05403,-0.06612 13.7246,13.7246 0 0 1 -0.0535,-0.06634 13.7246,13.7246 0 0 1 -0.05325,-0.06677 13.7246,13.7246 0 0 1 -0.05269,-0.06721 13.7246,13.7246 0 0 1 -0.05227,-0.06744 13.7246,13.7246 0 0 1 -0.05191,-0.06764 13.7246,13.7246 0 0 1 -0.05146,-0.06808 13.7246,13.7246 0 0 1 -0.05116,-0.06833 13.7246,13.7246 0 0 1 -0.05059,-0.06877 13.7246,13.7246 0 0 1 -0.05013,-0.06896 13.7246,13.7246 0 0 1 -0.04983,-0.0694 13.7246,13.7246 0 0 1 -0.04925,-0.06964 13.7246,13.7246 0 0 1 -0.04898,-0.06983 13.7246,13.7246 0 0 1 -0.04841,-0.0703 13.7246,13.7246 0 0 1 -0.04804,-0.07051 13.7246,13.7246 0 0 1 -0.04765,-0.07075 13.7246,13.7246 0 0 1 -0.04711,-0.07118 13.7246,13.7246 0 0 1 -0.04673,-0.07139 13.7246,13.7246 0 0 1 -0.04616,-0.07162 13.7246,13.7246 0 0 1 -0.04586,-0.07205 13.7246,13.7246 0 0 1 -0.04531,-0.07249 13.7246,13.7246 0 0 1 -0.04482,-0.07249 13.7246,13.7246 0 0 1 -0.04456,-0.07293 13.7246,13.7246 0 0 1 -0.04398,-0.07292 13.7246,13.7246 0 0 1 -0.04358,-0.07337 13.7246,13.7246 0 0 1 -0.04314,-0.0738 13.7246,13.7246 0 0 1 -0.04255,-0.0738 13.7246,13.7246 0 0 1 -0.04218,-0.07424 13.7246,13.7246 0 0 1 -0.04182,-0.07447 13.7246,13.7246 0 0 1 -0.04124,-0.07468 13.7246,13.7246 0 0 1 -0.04075,-0.07491 13.7246,13.7246 0 0 1 -0.04029,-0.07535 13.7246,13.7246 0 0 1 -0.0399,-0.07535 13.7246,13.7246 0 0 1 -0.03935,-0.07578 13.7246,13.7246 0 0 1 -0.03899,-0.07601 13.7246,13.7246 0 0 1 -0.03839,-0.07622 13.7246,13.7246 0 0 1 -0.038,-0.07644 13.7246,13.7246 0 0 1 -0.03736,-0.07666 13.7246,13.7246 0 0 1 -0.03705,-0.07688 13.7246,13.7246 0 0 1 -0.03652,-0.07711 13.7246,13.7246 0 0 1 -0.03605,-0.07732 13.7246,13.7246 0 0 1 -0.03549,-0.07776 13.7246,13.7246 0 0 1 -0.03508,-0.07776 13.7246,13.7246 0 0 1 -0.0346,-0.0782 13.7246,13.7246 0 0 1 -0.03412,-0.07819 13.7246,13.7246 0 0 1 -0.03355,-0.07841 13.7246,13.7246 0 0 1 -0.03309,-0.07864 13.7246,13.7246 0 0 1 -0.0327,-0.07885 13.7246,13.7246 0 0 1 -0.03213,-0.07909 13.7246,13.7246 0 0 1 -0.03168,-0.07931 13.7246,13.7246 0 0 1 -0.03119,-0.07953 13.7246,13.7246 0 0 1 -0.03063,-0.07952 13.7246,13.7246 0 0 1 -0.03017,-0.07996 13.7246,13.7246 0 0 1 -0.0296,-0.07996 13.7246,13.7246 0 0 1 -0.02923,-0.08018 13.7246,13.7246 0 0 1 -0.02874,-0.08041 13.7246,13.7246 0 0 1 -0.02817,-0.08063 13.7246,13.7246 0 0 1 -0.02769,-0.08062 13.7246,13.7246 0 0 1 -0.02715,-0.08084 13.7246,13.7246 0 0 1 -0.02666,-0.08106 13.7246,13.7246 0 0 1 -0.02609,-0.08127 13.7246,13.7246 0 0 1 -0.02561,-0.0815 13.7246,13.7246 0 0 1 -0.02522,-0.0815 13.7246,13.7246 0 0 1 -0.02461,-0.08172 13.7246,13.7246 0 0 1 -0.02421,-0.08172 13.7246,13.7246 0 0 1 -0.02365,-0.08194 13.7246,13.7246 0 0 1 -0.02297,-0.08215 13.7246,13.7246 0 0 1 -0.02268,-0.08215 13.7246,13.7246 0 0 1 -0.02203,-0.0826 13.7246,13.7246 0 0 1 -0.02152,-0.0826 13.7246,13.7246 0 0 1 -0.02107,-0.08259 13.7246,13.7246 0 0 1 -0.02064,-0.08282 13.7246,13.7246 0 0 1 -0.01998,-0.08304 13.7246,13.7246 0 0 1 -0.01956,-0.08304 13.7246,13.7246 0 0 1 -0.01911,-0.08302 13.7246,13.7246 0 0 1 -0.01845,-0.08348 13.7246,13.7246 0 0 1 -0.0178,-0.08348 13.7246,13.7246 0 0 1 -0.01735,-0.08347 13.7246,13.7246 0 0 1 -0.01691,-0.08369 13.7246,13.7246 0 0 1 -0.01669,-0.08369 13.7246,13.7246 0 0 1 -0.01582,-0.08392 13.7246,13.7246 0 0 1 -0.01516,-0.08391 13.7246,13.7246 0 0 1 -0.01495,-0.08392 13.7246,13.7246 0 0 1 -0.01449,-0.08413 13.7246,13.7246 0 0 1 -0.01361,-0.08414 13.7246,13.7246 0 0 1 -0.01318,-0.08435 13.7246,13.7246 0 0 1 -0.01274,-0.08435 13.7246,13.7246 0 0 1 -0.01208,-0.08435 13.7246,13.7246 0 0 1 -0.01165,-0.08457 13.7246,13.7246 0 0 1 -0.01098,-0.08457 13.7246,13.7246 0 0 1 -0.01077,-0.08479 13.7246,13.7246 0 0 1 -0.01011,-0.08479 13.7246,13.7246 0 0 1 -0.0097,-0.08479 13.7246,13.7246 0 0 1 -0.0094,-0.08479 13.7246,13.7246 0 0 1 -0.0085,-0.08501 13.7246,13.7246 0 0 1 -0.0085,-0.0848 13.7246,13.7246 0 0 1 -0.0074,-0.08501 13.7246,13.7246 0 0 1 -0.0069,-0.08523 13.7246,13.7246 0 0 1 -0.0068,-0.08501 13.7246,13.7246 0 0 1 -0.0058,-0.08523 13.7246,13.7246 0 0 1 -0.0058,-0.08522 13.7246,13.7246 0 0 1 -0.0046,-0.08524 13.7246,13.7246 0 0 1 -0.0046,-0.08523 13.7246,13.7246 0 0 1 -0.0036,-0.08523 13.7246,13.7246 0 0 1 -0.0026,-0.08521 13.7246,13.7246 0 0 1 -0.0026,-0.08523 13.7246,13.7246 0 0 1 -0.0023,-0.08522 13.7246,13.7246 0 0 1 -0.0024,-0.08523 13.7246,13.7246 0 0 1 -0.0011,-0.08523 13.7246,13.7246 0 0 1 -5.7e-4,-0.08523 13.7246,13.7246 0 0 1 0,-0.05141 13.7246,13.7246 0 0 1 1.43e-4,-0.08522 13.7246,13.7246 0 0 1 0.0011,-0.08523 13.7246,13.7246 0 0 1 0.0022,-0.08523 13.7246,13.7246 0 0 1 0.0024,-0.08521 13.7246,13.7246 0 0 1 0.0023,-0.08522 13.7246,13.7246 0 0 1 0.0026,-0.08522 13.7246,13.7246 0 0 1 0.0036,-0.08523 13.7246,13.7246 0 0 1 0.0036,-0.08522 13.7246,13.7246 0 0 1 0.0046,-0.08522 13.7246,13.7246 0 0 1 0.0046,-0.08523 13.7246,13.7246 0 0 1 0.0058,-0.08517 13.7246,13.7246 0 0 1 0.0058,-0.08515 13.7246,13.7246 0 0 1 0.0069,-0.08503 13.7246,13.7246 0 0 1 0.0073,-0.08504 13.7246,13.7246 0 0 1 0.0074,-0.08503 13.7246,13.7246 0 0 1 0.0085,-0.08488 13.7246,13.7246 0 0 1 0.0085,-0.08504 13.7246,13.7246 0 0 1 0.0094,-0.08473 13.7246,13.7246 0 0 1 0.0099,-0.08488 13.7246,13.7246 0 0 1 0.01055,-0.08475 13.7246,13.7246 0 0 1 0.01099,-0.08457 13.7246,13.7246 0 0 1 0.01121,-0.0846 13.7246,13.7246 0 0 1 0.01208,-0.08459 13.7246,13.7246 0 0 1 0.0123,-0.08444 13.7246,13.7246 0 0 1 0.01318,-0.08431 13.7246,13.7246 0 0 1 0.0134,-0.0843 13.7246,13.7246 0 0 1 0.01362,-0.08413 13.7246,13.7246 0 0 1 0.01471,-0.08413 13.7246,13.7246 0 0 1 0.01515,-0.08398 13.7246,13.7246 0 0 1 0.01538,-0.08387 13.7246,13.7246 0 0 1 0.01605,-0.08384 13.7246,13.7246 0 0 1 0.01669,-0.08372 13.7246,13.7246 0 0 1 0.01713,-0.08371 13.7246,13.7246 0 0 1 0.01758,-0.08339 13.7246,13.7246 0 0 1 0.01824,-0.08341 13.7246,13.7246 0 0 1 0.01868,-0.08328 13.7246,13.7246 0 0 1 0.01911,-0.08311 13.7246,13.7246 0 0 1 0.01956,-0.08311 13.7246,13.7246 0 0 1 0.0202,-0.08282 13.7246,13.7246 0 0 1 0.02088,-0.08282 13.7246,13.7246 0 0 1 0.02131,-0.08268 13.7246,13.7246 0 0 1 0.02176,-0.08255 13.7246,13.7246 0 0 1 0.02232,-0.08239 13.7246,13.7246 0 0 1 0.02271,-0.08224 13.7246,13.7246 0 0 1 0.02335,-0.08211 13.7246,13.7246 0 0 1 0.02392,-0.08193 13.7246,13.7246 0 0 1 0.02426,-0.08176 13.7246,13.7246 0 0 1 0.02476,-0.08164 13.7246,13.7246 0 0 1 0.02535,-0.08152 13.7246,13.7246 0 0 1 0.02603,-0.08136 13.7246,13.7246 0 0 1 0.02637,-0.08109 13.7246,13.7246 0 0 1 0.02684,-0.08105 13.7246,13.7246 0 0 1 0.02744,-0.08077 13.7246,13.7246 0 0 1 0.02789,-0.08077 13.7246,13.7246 0 0 1 0.02826,-0.08049 13.7246,13.7246 0 0 1 0.02886,-0.08034 13.7246,13.7246 0 0 1 0.0295,-0.08002 13.7246,13.7246 0 0 1 0.02976,-0.08002 13.7246,13.7246 0 0 1 0.03033,-0.07977 13.7246,13.7246 0 0 1 0.03094,-0.0796 13.7246,13.7246 0 0 1 0.03139,-0.07932 13.7246,13.7246 0 0 1 0.03176,-0.07919 13.7246,13.7246 0 0 1 0.03245,-0.07902 13.7246,13.7246 0 0 1 0.03282,-0.07872 13.7246,13.7246 0 0 1 0.03328,-0.07858 13.7246,13.7246 0 0 1 0.03388,-0.07842 13.7246,13.7246 0 0 1 0.03431,-0.07816 13.7246,13.7246 0 0 1 0.03469,-0.07801 13.7246,13.7246 0 0 1 0.03517,-0.07768 13.7246,13.7246 0 0 1 0.03574,-0.0774 13.7246,13.7246 0 0 1 0.03622,-0.07742 13.7246,13.7246 0 0 1 0.03677,-0.07698 13.7246,13.7246 0 0 1 0.03726,-0.07681 13.7246,13.7246 0 0 1 0.03765,-0.07664 13.7246,13.7246 0 0 1 0.03811,-0.07638 13.7246,13.7246 0 0 1 0.03857,-0.07607 13.7246,13.7246 0 0 1 0.03914,-0.0758 13.7246,13.7246 0 0 1 0.03951,-0.07563 13.7246,13.7246 0 0 1 0.04,-0.07535 13.7246,13.7246 0 0 1 0.04046,-0.07518 13.7246,13.7246 0 0 1 0.04094,-0.07489 13.7246,13.7246 0 0 1 0.04151,-0.07462 13.7246,13.7246 0 0 1 0.0419,-0.07431 13.7246,13.7246 0 0 1 0.04235,-0.07404 13.7246,13.7246 0 0 1 0.04284,-0.07387 13.7246,13.7246 0 0 1 0.04321,-0.0736 13.7246,13.7246 0 0 1 0.04367,-0.07328 13.7246,13.7246 0 0 1 0.04417,-0.07302 13.7246,13.7246 0 0 1 0.04475,-0.07271 13.7246,13.7246 0 0 1 0.04499,-0.07244 13.7246,13.7246 0 0 1 0.04557,-0.0723 13.7246,13.7246 0 0 1 0.04603,-0.0718 13.7246,13.7246 0 0 1 0.04634,-0.07169 13.7246,13.7246 0 0 1 0.04688,-0.07129 13.7246,13.7246 0 0 1 0.04735,-0.07109 13.7246,13.7246 0 0 1 0.04774,-0.07069 13.7246,13.7246 0 0 1 0.04804,-0.07051 13.7246,13.7246 0 0 1 0.0487,-0.07007 13.7246,13.7246 0 0 1 0.04907,-0.06991 13.7246,13.7246 0 0 1 0.04955,-0.06946 13.7246,13.7246 0 0 1 0.04983,-0.0692 13.7246,13.7246 0 0 1 0.0504,-0.06893 13.7246,13.7246 0 0 1 0.05067,-0.06859 13.7246,13.7246 0 0 1 0.05134,-0.0683 13.7246,13.7246 0 0 1 0.05163,-0.0679 13.7246,13.7246 0 0 1 0.05202,-0.06772 13.7246,13.7246 0 0 1 0.05247,-0.06731 13.7246,13.7246 0 0 1 0.05294,-0.06699 13.7246,13.7246 0 0 1 0.05334,-0.06654 13.7246,13.7246 0 0 1 0.05363,-0.06621 13.7246,13.7246 0 0 1 0.05408,-0.06612 13.7246,13.7246 0 0 1 0.05454,-0.06552 13.7246,13.7246 0 0 1 0.05492,-0.0654 13.7246,13.7246 0 0 1 0.05543,-0.06492 13.7246,13.7246 0 0 1 0.05569,-0.06465 13.7246,13.7246 0 0 1 0.05615,-0.06418 13.7246,13.7246 0 0 1 0.05653,-0.06395 13.7246,13.7246 0 0 1 0.05703,-0.0636 13.7246,13.7246 0 0 1 0.05729,-0.06318 13.7246,13.7246 0 0 1 0.05777,-0.06273 13.7246,13.7246 0 0 1 0.05815,-0.06259 13.7246,13.7246 0 0 1 0.05855,-0.06201 13.7246,13.7246 0 0 1 0.05892,-0.06186 13.7246,13.7246 0 0 1 0.0592,-0.06128 13.7246,13.7246 0 0 1 0.05967,-0.06113 13.7246,13.7246 0 0 1 0.06016,-0.06055 13.7246,13.7246 0 0 1 0.06041,-0.06041 13.7246,13.7246 0 0 1 0.06079,-0.05981 13.7246,13.7246 0 0 1 0.0612,-0.05952 13.7246,13.7246 0 0 1 0.06158,-0.05923 13.7246,13.7246 0 0 1 0.06183,-0.05863 13.7246,13.7246 0 0 1 0.06234,-0.05849 13.7246,13.7246 0 0 1 0.06258,-0.0579 13.7246,13.7246 0 0 1 0.06306,-0.05763 13.7246,13.7246 0 0 1 0.06335,-0.05715 13.7246,13.7246 0 0 1 0.06363,-0.05688 13.7246,13.7246 0 0 1 0.064,-0.05629 13.7246,13.7246 0 0 1 0.06451,-0.05597 13.7246,13.7246 0 0 1 0.06468,-0.05569 13.7246,13.7246 0 0 1 0.06506,-0.05513 13.7246,13.7246 0 0 1 0.06553,-0.05484 13.7246,13.7246 0 0 1 0.06573,-0.05439 13.7246,13.7246 0 0 1 0.0661,-0.05396 13.7246,13.7246 0 0 1 0.06656,-0.05351 13.7246,13.7246 0 0 1 0.06666,-0.05322 13.7246,13.7246 0 0 1 0.06712,-0.05276 13.7246,13.7246 0 0 1 0.06742,-0.05233 13.7246,13.7246 0 0 1 0.06772,-0.05176 13.7246,13.7246 0 0 1 0.06816,-0.0516 13.7246,13.7246 0 0 1 0.06828,-0.051 13.7246,13.7246 0 0 1 0.06877,-0.05059 13.7246,13.7246 0 0 1 0.06903,-0.05014 13.7246,13.7246 0 0 1 0.06933,-0.04987 13.7246,13.7246 0 0 1 0.06955,-0.04925 13.7246,13.7246 0 0 1 0.06995,-0.04898 13.7246,13.7246 0 0 1 0.07026,-0.04853 13.7246,13.7246 0 0 1 0.07065,-0.04793 13.7246,13.7246 0 0 1 0.07082,-0.04765 13.7246,13.7246 0 0 1 0.07112,-0.04705 13.7246,13.7246 0 0 1 0.07148,-0.04678 13.7246,13.7246 0 0 1 0.07168,-0.04619 13.7246,13.7246 0 0 1 0.07198,-0.04587 13.7246,13.7246 0 0 1 0.07226,-0.04532 13.7246,13.7246 0 0 1 0.07252,-0.04489 13.7246,13.7246 0 0 1 0.07282,-0.04456 13.7246,13.7246 0 0 1 0.07322,-0.04398 13.7246,13.7246 0 0 1 0.07346,-0.04355 13.7246,13.7246 0 0 1 0.07356,-0.04311 13.7246,13.7246 0 0 1 0.07404,-0.04266 13.7246,13.7246 0 0 1 0.07424,-0.04207 13.7246,13.7246 0 0 1 0.07443,-0.04175 13.7246,13.7246 0 0 1 0.0748,-0.04121 13.7246,13.7246 0 0 1 0.07489,-0.04078 13.7246,13.7246 0 0 1 0.07517,-0.0403 13.7246,13.7246 0 0 1 0.07546,-0.03988 13.7246,13.7246 0 0 1 0.0757,-0.03928 13.7246,13.7246 0 0 1 0.07595,-0.03899 13.7246,13.7246 0 0 1 0.0762,-0.0384 13.7246,13.7246 0 0 1 0.0764,-0.038 13.7246,13.7246 0 0 1 0.07668,-0.03742 13.7246,13.7246 0 0 1 0.07697,-0.03708 13.7246,13.7246 0 0 1 0.07705,-0.03651 13.7246,13.7246 0 0 1 0.07744,-0.03606 13.7246,13.7246 0 0 1 0.07754,-0.03549 13.7246,13.7246 0 0 1 0.07783,-0.03521 13.7246,13.7246 0 0 1 0.07801,-0.03444 13.7246,13.7246 0 0 1 0.07829,-0.03415 13.7246,13.7246 0 0 1 0.0784,-0.03355 13.7246,13.7246 0 0 1 0.07877,-0.03315 13.7246,13.7246 0 0 1 0.07889,-0.03268 13.7246,13.7246 0 0 1 0.07906,-0.0321 13.7246,13.7246 0 0 1 0.07934,-0.03168 13.7246,13.7246 0 0 1 0.07946,-0.03121 13.7246,13.7246 0 0 1 0.07961,-0.03065 13.7246,13.7246 0 0 1 0.07969,-0.03017 13.7246,13.7246 0 0 1 0.07998,-0.0296 13.7246,13.7246 0 0 1 0.08018,-0.02917 13.7246,13.7246 0 0 1 0.08049,-0.02873 13.7246,13.7246 0 0 1 0.08049,-0.02814 13.7246,13.7246 0 0 1 0.08077,-0.02772 13.7246,13.7246 0 0 1 0.08095,-0.02715 13.7246,13.7246 0 0 1 0.08104,-0.02665 13.7246,13.7246 0 0 1 0.08123,-0.0261 13.7246,13.7246 0 0 1 0.08152,-0.02563 13.7246,13.7246 0 0 1 0.08152,-0.02522 13.7246,13.7246 0 0 1 0.08159,-0.02464 13.7246,13.7246 0 0 1 0.08196,-0.02421 13.7246,13.7246 0 0 1 0.08196,-0.0236 13.7246,13.7246 0 0 1 0.08227,-0.02315 13.7246,13.7246 0 0 1 0.08227,-0.02257 13.7246,13.7246 0 0 1 0.08235,-0.02197 13.7246,13.7246 0 0 1 0.08265,-0.02176 13.7246,13.7246 0 0 1 0.08265,-0.02088 13.7246,13.7246 0 0 1 0.08283,-0.02043 13.7246,13.7246 0 0 1 0.08294,-0.0202 13.7246,13.7246 0 0 1 0.08311,-0.01956 13.7246,13.7246 0 0 1 0.08311,-0.01888 13.7246,13.7246 0 0 1 0.08339,-0.01868 13.7246,13.7246 0 0 1 0.08339,-0.01801 13.7246,13.7246 0 0 1 0.08358,-0.01735 13.7246,13.7246 0 0 1 0.08357,-0.0167 13.7246,13.7246 0 0 1 0.08387,-0.01648 13.7246,13.7246 0 0 1 0.08387,-0.01582 13.7246,13.7246 0 0 1 0.08387,-0.01515 13.7246,13.7246 0 0 1 0.08413,-0.01471 13.7246,13.7246 0 0 1 0.08415,-0.0145 13.7246,13.7246 0 0 1 0.08413,-0.01361 13.7246,13.7246 0 0 1 0.08425,-0.01317 13.7246,13.7246 0 0 1 0.08443,-0.01274 13.7246,13.7246 0 0 1 0.08444,-0.01208 13.7246,13.7246 0 0 1 0.08452,-0.01165 13.7246,13.7246 0 0 1 0.08462,-0.01099 13.7246,13.7246 0 0 1 0.08472,-0.01077 13.7246,13.7246 0 0 1 0.08473,-0.0099 13.7246,13.7246 0 0 1 0.08473,-0.0097 13.7246,13.7246 0 0 1 0.0849,-0.009 13.7246,13.7246 0 0 1 0.08492,-0.0085 13.7246,13.7246 0 0 1 0.085,-0.0077 13.7246,13.7246 0 0 1 0.08502,-0.0074 13.7246,13.7246 0 0 1 0.08501,-0.0071 13.7246,13.7246 0 0 1 0.08519,-0.0066 13.7246,13.7246 0 0 1 0.08519,-0.0062 13.7246,13.7246 0 0 1 0.08519,-0.0054 13.7246,13.7246 0 0 1 0.08519,-0.0049 13.7246,13.7246 0 0 1 0.08519,-0.0041 13.7246,13.7246 0 0 1 0.08529,-0.0036 13.7246,13.7246 0 0 1 0.08527,-0.0031 13.7246,13.7246 0 0 1 0.08527,-0.0025 13.7246,13.7246 0 0 1 0.08527,-0.0024 13.7246,13.7246 0 0 1 0.08529,-0.002 13.7246,13.7246 0 0 1 0.08527,-0.0013 13.7246,13.7246 0 0 1 0.08527,-5.68e-4 13.7246,13.7246 0 0 1 0.05117,-1.47e-4 z"
       inkscape:export-xdpi="96"
       inkscape:export-ydpi="96"
       inkscape:connector-curvature="0" />
    <path
       inkscape:export-ydpi="96"
       inkscape:export-xdpi="96"
       style="fill:#3b0040;fill-opacity:0.41395348;stroke:none;stroke-width:0.07505631px;stroke-linecap:butt;stroke-linejoin:miter;stroke-opacity:1"
       d="m 34.298284,38.734526 c 0,0 -4.37661,-2.007532 -2.375207,-7.750956 0,0 -4.796425,4.727664 2.375207,7.750956 z"
       id="path6627"
       inkscape:connector-curvature="0" />
    <path
       inkscape:export-ydpi="96"
       inkscape:export-xdpi="96"
       style="fill:#3b0040;fill-opacity:0.41395348;stroke:none;stroke-width:0.07505631px;stroke-linecap:butt;stroke-linejoin:miter;stroke-opacity:1"
       d="m 23.092227,29.586621 c 0,0 -1.273524,0.557711 -0.966321,1.442155 0,0 0.316001,0.657178 0.597292,0.250749 0,0 -0.579695,-0.705304 0.369029,-1.692904 z"
       id="path6629"
       inkscape:transform-center-x="-0.028876216"
       inkscape:transform-center-y="-0.02318887"
       inkscape:connector-curvature="0" />
    <path
       inkscape:export-ydpi="96"
       inkscape:export-xdpi="96"
       style="fill:#3b0040;fill-opacity:0.41395348;stroke:none;stroke-width:0.07505631px;stroke-linecap:butt;stroke-linejoin:miter;stroke-opacity:1"
       d="m 25.972464,28.150245 c 0,0 -2.973939,-0.09863 -4.789258,1.787976 0,0 2.367255,-3.643061 4.789258,-1.787976 z"
       id="path6631"
       inkscape:connector-curvature="0" />
    <path
       inkscape:export-ydpi="96"
       inkscape:export-xdpi="96"
       style="fill:#3b0040;fill-opacity:0.41395348;stroke:none;stroke-width:0.07505631px;stroke-linecap:butt;stroke-linejoin:miter;stroke-opacity:1"
       d="m 18.268585,29.125892 c 6.042795,-4.292902 8.818014,-0.335211 8.818014,-0.335211 0,0 -0.241468,-2.200004 -3.712501,-2.742692 0,0 -2.129034,-0.427075 -5.105513,3.077903 z"
       id="path6633"
       inkscape:connector-curvature="0" />
    <path
       inkscape:export-ydpi="96"
       inkscape:export-xdpi="96"
       style="fill:#3b0040;fill-opacity:0.41395348;stroke:none;stroke-width:0.07505631px;stroke-linecap:butt;stroke-linejoin:miter;stroke-opacity:1"
       d="m 21.596582,28.447913 c -2.305301,0.93822 -2.278501,2.81461 -2.278501,2.81461 0,0 -0.455694,0.214396 -0.56292,-0.696935 0,0 0.107218,-1.527937 2.841421,-2.117675 z"
       id="path6635"
       inkscape:connector-curvature="0" />
    <path
       inkscape:export-ydpi="96"
       inkscape:export-xdpi="96"
       style="fill:#3b0040;fill-opacity:0.41395348;stroke:none;stroke-width:0.07505631px;stroke-linecap:butt;stroke-linejoin:miter;stroke-opacity:1"
       d="m 37.765879,27.284536 c -0.884598,1.688776 -2.86822,1.286698 -2.86822,1.286698 -3.082682,-0.294881 -3.833246,1.527935 -3.833246,1.527935 0,0 -0.02684,-2.76101 4.315743,-2.385733 0,0 0.991822,0.160797 2.385723,-0.4289 z"
       id="path6637"
       inkscape:connector-curvature="0" />
    <path
       inkscape:export-ydpi="96"
       inkscape:export-xdpi="96"
       style="fill:#3b0040;fill-opacity:0.41395348;stroke:none;stroke-width:0.07505631px;stroke-linecap:butt;stroke-linejoin:miter;stroke-opacity:1"
       d="m 31.628185,30.366789 c 0,0 1.234039,-1.840981 3.093458,-1.290101 0,0 -1.140382,0.0087 -3.093458,1.290101 z"
       id="path6639"
       inkscape:connector-curvature="0" />
    <path
       inkscape:export-ydpi="96"
       inkscape:export-xdpi="96"
       style="fill:#3b0040;fill-opacity:0.41395348;stroke:none;stroke-width:0.07505631px;stroke-linecap:butt;stroke-linejoin:miter;stroke-opacity:1"
       d="m 32.830875,29.776809 c 0,0 0.998311,0.146957 1.099602,1.351587 0,0 0.01758,0.29556 0.276304,0.391907 0,0 1.030308,-1.430471 -1.375906,-1.743494 z"
       id="path6641"
       inkscape:connector-curvature="0" />
    <path
       inkscape:export-ydpi="96"
       inkscape:export-xdpi="96"
       style="fill:#3b0040;fill-opacity:0.41395348;stroke:none;stroke-width:0.07505631px;stroke-linecap:butt;stroke-linejoin:miter;stroke-opacity:1"
       d="m 34.425863,29.55231 c 0,0 1.527938,-0.0536 1.608361,1.099058 0.08036,1.152631 0.777358,0.991814 0.884591,0.911396 0.107219,-0.0804 0.107219,-2.680592 -2.492952,-2.010454 z"
       id="path6643"
       inkscape:connector-curvature="0" />
    <path
       inkscape:export-ydpi="96"
       inkscape:export-xdpi="96"
       style="fill:#3b0040;fill-opacity:0.41395348;stroke:none;stroke-width:0.07505631px;stroke-linecap:butt;stroke-linejoin:miter;stroke-opacity:1"
       d="m 36.386011,29.148825 c 0,0 2.067414,0.577832 2.210863,2.212197 0.143441,1.634361 0.67692,1.175568 0.67692,1.175568 0,0 0.504058,-0.914319 -0.198907,-1.955714 -0.702963,-1.041396 -1.940488,-1.811636 -2.688876,-1.432051 z"
       id="path6645"
       inkscape:connector-curvature="0" />
    <path
       inkscape:export-ydpi="96"
       inkscape:export-xdpi="96"
       style="fill:#3b0040;fill-opacity:0.41395348;stroke:none;stroke-width:0.07505631px;stroke-linecap:butt;stroke-linejoin:miter;stroke-opacity:1"
       d="m 37.712271,28.694534 c 0,0 1.795992,0.294857 1.983635,1.554733 0.187638,1.259877 1.447518,1.367096 1.447518,1.367096 0,0 -0.938212,-0.241239 -0.965009,-1.340275 -0.02684,-1.099057 -1.152658,-2.144474 -2.466144,-1.581554 z"
       id="path6647"
       inkscape:connector-curvature="0" />
    <path
       inkscape:export-ydpi="96"
       inkscape:export-xdpi="96"
       style="fill:#3b0040;fill-opacity:0.41395348;stroke:none;stroke-width:0.07505631px;stroke-linecap:butt;stroke-linejoin:miter;stroke-opacity:1"
       d="m 20.42255,26.668 c 0,0 -1.73872,0.175292 -2.663401,1.886495 0,0 -0.08907,-2.625607 2.663401,-1.886495 z"
       id="path6649"
       inkscape:connector-curvature="0" />
    <path
       inkscape:export-ydpi="96"
       inkscape:export-xdpi="96"
       style="fill:#3b0040;fill-opacity:0.41395348;stroke:none;stroke-width:0.07505631px;stroke-linecap:butt;stroke-linejoin:miter;stroke-opacity:1"
       d="m 37.681311,17.613762 c 0,0 0.530735,3.601374 -3.563464,5.648471 -4.094201,2.047106 -3.525558,4.73866 -3.525558,4.73866 0,0 0.03791,-2.350389 5.989662,-5.231481 0,0 2.009182,-1.251007 1.09936,-5.15565 z"
       id="path6651"
       inkscape:connector-curvature="0" />
    <path
       inkscape:export-ydpi="96"
       inkscape:export-xdpi="96"
       style="fill:#3b0040;fill-opacity:0.41395348;stroke:none;stroke-width:0.07505631px;stroke-linecap:butt;stroke-linejoin:miter;stroke-opacity:1"
       d="m 31.957017,27.356433 c 0,0 3.184375,-1.137279 5.458931,-0.606543 2.274552,0.530716 -0.113763,-0.909836 -0.113763,-0.909836 0,0 -3.010438,-0.663439 -5.345199,1.516379 z"
       id="path6653"
       inkscape:connector-curvature="0" />
    <path
       inkscape:export-ydpi="96"
       inkscape:export-xdpi="96"
       style="fill:#3b0040;fill-opacity:0.41395348;stroke:none;stroke-width:0.07505631px;stroke-linecap:butt;stroke-linejoin:miter;stroke-opacity:1"
       d="m 36.54404,23.717142 c 0,0 2.843188,-1.364727 3.14646,-4.587016 0,0 0.568638,-1.213089 0.454915,1.28892 -0.113746,2.502004 -3.601375,3.298096 -3.601375,3.298096 z"
       id="path6655"
       inkscape:connector-curvature="0" />
    <path
       inkscape:export-ydpi="96"
       inkscape:export-xdpi="96"
       style="fill:#3b0040;fill-opacity:0.41395348;stroke:none;stroke-width:0.07505631px;stroke-linecap:butt;stroke-linejoin:miter;stroke-opacity:1"
       d="m 26.564479,26.902801 c 0,0 -2.772969,-2.086872 -0.94248,-5.377223 1.830485,-3.29035 0.317068,-5.256967 0.317068,-5.256967 0,0 -0.515077,-0.389186 -0.549175,1.05545 -0.03414,1.44463 0.02659,2.542323 -1.157941,4.468138 -1.184501,1.92582 0.181686,3.976508 2.332528,5.110602 z"
       id="path6657"
       inkscape:connector-curvature="0" />
    <path
       inkscape:export-ydpi="96"
       inkscape:export-xdpi="96"
       style="fill:#3b0040;fill-opacity:0.41395348;stroke:none;stroke-width:0.07505631px;stroke-linecap:butt;stroke-linejoin:miter;stroke-opacity:1"
       d="m 23.876263,25.57318 c 0,0 -2.426188,-0.417015 -3.108557,-2.085015 -0.682376,-1.668008 -1.251004,-2.502007 -1.66801,-2.539919 0,0 0.341188,-0.644454 1.099374,0 0.758176,0.644456 1.061459,2.047101 1.061459,2.047101 0,0 0.303268,1.40264 2.615734,2.577833 z"
       id="path6659"
       inkscape:connector-curvature="0" />
    <path
       inkscape:export-ydpi="96"
       inkscape:export-xdpi="96"
       style="fill:#3b0040;fill-opacity:0.41395348;stroke:none;stroke-width:0.07505631px;stroke-linecap:butt;stroke-linejoin:miter;stroke-opacity:1"
       d="m 18.117187,21.317558 c 0,0 1.259872,0.214438 1.849599,1.903216 0.589727,1.688774 0.991824,1.903209 0.991824,1.903209 0,0 -3.029067,-2.305297 -2.841423,-3.806425 z"
       id="path6661"
       inkscape:connector-curvature="0" />
    <path
       inkscape:export-ydpi="96"
       inkscape:export-xdpi="96"
       style="fill:#3b0040;fill-opacity:0.41395348;stroke:none;stroke-width:0.07505631px;stroke-linecap:butt;stroke-linejoin:miter;stroke-opacity:1"
       d="m 18.090379,24.775513 c 0,0 -0.96502,-1.447513 0.13404,-1.206261 1.099037,0.241254 0.616538,1.930011 2.841422,2.14447 2.224884,0.214397 -1.983637,0.670138 -2.975451,-0.938209 z"
       id="path6663"
       inkscape:connector-curvature="0" />
    <path
       inkscape:export-ydpi="96"
       inkscape:export-xdpi="96"
       style="fill:#3b0040;fill-opacity:0.41395348;stroke:none;stroke-width:0.07505631px;stroke-linecap:butt;stroke-linejoin:miter;stroke-opacity:1"
       d="m 18.980333,26.174782 c 0,0 -1.125852,-0.160797 -1.447524,0.348479 0,0 -1.040068,-0.278781 -0.24125,-0.938195 0.79882,-0.659439 1.688774,0.589716 1.688774,0.589716 z"
       id="path6665"
       inkscape:connector-curvature="0" />
    <path
       inkscape:export-ydpi="96"
       inkscape:export-xdpi="96"
       style="fill:#3b0040;fill-opacity:0.41395348;stroke:none;stroke-width:0.07505631px;stroke-linecap:butt;stroke-linejoin:miter;stroke-opacity:1"
       d="m 23.59094,24.577152 c 0,0 -2.25169,-1.769182 -1.876406,-4.288936 0.375279,-2.519752 0.643334,0.268058 0.643334,0.268058 0,0 -0.107218,2.546557 1.233072,4.020878 z"
       id="path6667"
       inkscape:connector-curvature="0" />
    <path
       inkscape:export-ydpi="96"
       inkscape:export-xdpi="96"
       style="fill:#3b0040;fill-opacity:0.41395348;stroke:none;stroke-width:0.07505631px;stroke-linecap:butt;stroke-linejoin:miter;stroke-opacity:1"
       d="m 21.327863,21.110234 c 0,0 -0.702454,-0.950854 -0.303981,-2.344768 0,0 -0.408338,-1.060084 -0.956893,0.07442 -0.548567,1.134503 0.447078,1.51964 1.260874,2.270358 z"
       id="path6669"
       inkscape:connector-curvature="0" />
    <path
       inkscape:export-ydpi="96"
       inkscape:export-xdpi="96"
       style="fill:#3b0040;fill-opacity:0.41395348;stroke:none;stroke-width:0.07505631px;stroke-linecap:butt;stroke-linejoin:miter;stroke-opacity:1"
       d="m 23.296078,23.022411 c 0,0 -0.830978,-0.938201 -0.562922,-4.181712 0,0 0.160842,-0.938203 -0.965018,-2.412529 0,0 2.090858,0.294868 1.715586,3.24351 -0.375292,2.948645 -0.321676,2.70739 -0.187642,3.350731 z"
       id="path6671"
       inkscape:connector-curvature="0" />
    <path
       inkscape:export-ydpi="96"
       inkscape:export-xdpi="96"
       style="fill:#3b0040;fill-opacity:0.41395348;stroke:none;stroke-width:0.07505631px;stroke-linecap:butt;stroke-linejoin:miter;stroke-opacity:1"
       d="m 21.165014,16.937484 c 0,0 -0.107219,1.032026 1.273278,2.345512 0,0 0.134039,-1.447516 -1.273278,-2.345512 z"
       id="path6673"
       inkscape:connector-curvature="0" />
    <path
       inkscape:export-ydpi="96"
       inkscape:export-xdpi="96"
       style="fill:#3b0040;fill-opacity:0.41395348;stroke:none;stroke-width:0.07505631px;stroke-linecap:butt;stroke-linejoin:miter;stroke-opacity:1"
       d="m 30.158371,26.802038 c 0,0 -0.214436,-2.814612 2.921847,-3.886846 0,0 0.830985,-1.045429 -1.206261,-0.482507 -2.037246,0.562921 -1.715586,4.369353 -1.715586,4.369353 z"
       id="path6675"
       inkscape:connector-curvature="0" />
    <path
       inkscape:export-ydpi="96"
       inkscape:export-xdpi="96"
       style="fill:#3b0040;fill-opacity:0.41395348;stroke:none;stroke-width:0.07505631px;stroke-linecap:butt;stroke-linejoin:miter;stroke-opacity:1"
       d="m 29.649069,26.185502 c 0,0 -0.938207,-3.109476 0.4825,-4.744635 1.420714,-1.63516 0.241255,-5.62923 0.241255,-5.62923 0,0 -1.340288,-3.109479 -1.340288,0.696951 0,0 0.696949,1.635158 0.294858,3.886854 -0.40208,2.251688 -1.099041,2.680584 0.321675,5.79006 z"
       id="path6677"
       inkscape:connector-curvature="0" />
    <path
       inkscape:export-ydpi="96"
       inkscape:export-xdpi="96"
       style="fill:#3b0040;fill-opacity:0.41395348;stroke:none;stroke-width:0.07505631px;stroke-linecap:butt;stroke-linejoin:miter;stroke-opacity:1"
       d="m 28.710342,25.587151 c 0,0 -1.610494,-0.617661 -1.50335,-4.830361 0.107152,-4.212701 0.691843,0.98523 0.691843,0.98523 0,0 0.03082,1.079971 0.811507,3.845131 z"
       id="path6679"
       inkscape:connector-curvature="0" />
    <path
       inkscape:export-ydpi="96"
       inkscape:export-xdpi="96"
       style="fill:#3b0040;fill-opacity:0.41395348;stroke:none;stroke-width:0.07505631px;stroke-linecap:butt;stroke-linejoin:miter;stroke-opacity:1"
       d="m 26.681851,26.036962 c 0,0 -1.526371,-1.019186 -1.184225,-2.928929 0.34214,-1.909735 0.470726,0.418826 0.470726,0.418826 0,0 -0.01538,1.712582 0.713499,2.510103 z"
       id="path6681"
       inkscape:connector-curvature="0" />
    <path
       inkscape:export-ydpi="96"
       inkscape:export-xdpi="96"
       style="fill:#3b0040;fill-opacity:0.41395348;stroke:none;stroke-width:0.07505631px;stroke-linecap:butt;stroke-linejoin:miter;stroke-opacity:1"
       d="m 27.831508,31.5701 c 0,0 1.146341,4.998865 -2.312468,6.684828 0,0 1.815841,-1.669576 2.312468,-6.684828 z"
       id="path6683"
       inkscape:connector-curvature="0" />
    <path
       inkscape:export-ydpi="96"
       inkscape:export-xdpi="96"
       style="fill:#3b0040;fill-opacity:0.41395348;stroke:none;stroke-width:0.07505631px;stroke-linecap:butt;stroke-linejoin:miter;stroke-opacity:1"
       d="m 28.241914,21.158272 c 0,0 -0.341181,-4.226875 -2.558865,-5.856972 0,0 -1.118328,-1.857553 0.777131,-0.77714 1.89546,1.080414 1.781734,6.634112 1.781734,6.634112 z"
       id="path6685"
       inkscape:connector-curvature="0" />
    <path
       inkscape:export-ydpi="96"
       inkscape:export-xdpi="96"
       style="fill:#3b0040;fill-opacity:0.41395348;stroke:none;stroke-width:0.07505631px;stroke-linecap:butt;stroke-linejoin:miter;stroke-opacity:1"
       d="m 29.863512,30.474448 c 0,0 0.05363,-1.742397 1.018628,-2.010434 0.965006,-0.268081 -1.072235,2.117654 -1.072235,2.117654"
       id="path6687"
       inkscape:connector-curvature="0" />
    <path
       inkscape:export-ydpi="96"
       inkscape:export-xdpi="96"
       style="fill:#3b0040;fill-opacity:0.41395348;stroke:none;stroke-width:0.07505631px;stroke-linecap:butt;stroke-linejoin:miter;stroke-opacity:1"
       d="m 38.041453,21.518405 c 0,0 0.834001,-1.686955 0.265363,-3.999418 -0.568646,-2.312461 1.13727,-1.004596 0.852958,0.568639 -0.28432,1.573233 -1.118321,3.430779 -1.118321,3.430779 z"
       id="path6689"
       inkscape:connector-curvature="0" />
    <path
       inkscape:export-ydpi="96"
       inkscape:export-xdpi="96"
       style="fill:#3b0040;fill-opacity:0.41395348;stroke:none;stroke-width:0.07505631px;stroke-linecap:butt;stroke-linejoin:miter;stroke-opacity:1"
       d="m 29.782635,23.673482 c 0,0 0.900544,-2.55829 3.683669,-2.71179 0,0 -1.895116,-2.360117 -3.683669,2.71179 z"
       id="path6691"
       inkscape:connector-curvature="0" />
    <path
       inkscape:export-ydpi="96"
       inkscape:export-xdpi="96"
       style="fill:#3b0040;fill-opacity:0.41395348;stroke:none;stroke-width:0.07505631px;stroke-linecap:butt;stroke-linejoin:miter;stroke-opacity:1"
       d="m 32.411931,21.707958 c 0,0 2.539923,0.398043 3.260195,-1.781737 0.720271,-2.179779 0.03792,-3.544512 0.03792,-3.544512 0,0 -0.739235,-2.653642 1.042498,0.454914 1.781732,3.108552 -1.194143,5.439975 -4.340603,4.871335 z"
       id="path6693"
       inkscape:connector-curvature="0" />
    <path
       inkscape:export-ydpi="96"
       inkscape:export-xdpi="96"
       style="fill:#3b0040;fill-opacity:0.41395348;stroke:none;stroke-width:0.07505631px;stroke-linecap:butt;stroke-linejoin:miter;stroke-opacity:1"
       d="m 33.871435,20.722313 c 0,0 3.506594,-2.558868 -2.956914,-5.269378 0,0 -2.293508,-1.611141 1.250999,-0.34118 3.544516,1.269954 4.302702,3.847781 1.705915,5.610558 z"
       id="path6695"
       inkscape:connector-curvature="0" />
    <path
       inkscape:export-ydpi="96"
       inkscape:export-xdpi="96"
       style="fill:#3b0040;fill-opacity:0.41395348;stroke:none;stroke-width:0.07505631px;stroke-linecap:butt;stroke-linejoin:miter;stroke-opacity:1"
       d="m 31.17988,20.210539 c 0,0 1.02355,-3.184375 -0.03791,-3.999416 -1.061451,-0.815054 0.549687,-0.09477 0.70132,0.07583 0.151658,0.170572 1.251008,0.871907 -0.663414,3.923602 z"
       id="path6697"
       inkscape:connector-curvature="0" />
    <path
       inkscape:export-ydpi="96"
       inkscape:export-xdpi="96"
       style="fill:#3b0040;fill-opacity:0.41395348;stroke:none;stroke-width:0.07505631px;stroke-linecap:butt;stroke-linejoin:miter;stroke-opacity:1"
       d="m 31.748524,20.077859 c 0,0 0.663407,-2.748417 2.312455,-1.705913 1.649057,1.042503 -0.360139,0.473863 -0.549683,0.473863 -0.189528,0 -1.213093,-0.189548 -1.762772,1.23205 z"
       id="path6699"
       inkscape:connector-curvature="0" />
    <path
       inkscape:export-ydpi="96"
       inkscape:export-xdpi="96"
       style="fill:#3b0040;fill-opacity:0.41395348;stroke:none;stroke-width:0.07505631px;stroke-linecap:butt;stroke-linejoin:miter;stroke-opacity:1"
       d="m 32.16552,20.191588 c 0,0 2.255596,0.322225 2.141869,-0.568637 -0.113743,-0.890867 -2.141869,0.568637 -2.141869,0.568637 z"
       id="path6701"
       inkscape:connector-curvature="0" />
    <path
       inkscape:export-ydpi="96"
       inkscape:export-xdpi="96"
       style="fill:#3b0040;fill-opacity:0.41395348;stroke:none;stroke-width:0.07505631px;stroke-linecap:butt;stroke-linejoin:miter;stroke-opacity:1"
       d="m 32.544616,17.917037 c 0,0 0.09475,-1.213097 0.682358,-0.96669 0.5876,0.246409 -0.682358,0.96669 -0.682358,0.96669 z"
       id="path6703"
       inkscape:connector-curvature="0" />
    <path
       inkscape:export-ydpi="96"
       inkscape:export-xdpi="96"
       style="fill:#3b0040;fill-opacity:0.41395348;stroke:none;stroke-width:0.07505631px;stroke-linecap:butt;stroke-linejoin:miter;stroke-opacity:1"
       d="m 35.274079,16.798714 c 0,0 -2.122923,-2.615738 -3.847786,-2.84319 -1.724863,-0.227457 0.05683,-1.649052 0.90982,-0.454912 0.852954,1.194137 2.653644,0.834002 2.937966,3.298102 z"
       id="path6705"
       inkscape:connector-curvature="0" />
    <path
       inkscape:export-ydpi="96"
       inkscape:export-xdpi="96"
       style="fill:#3b0040;fill-opacity:0.41395348;stroke:none;stroke-width:0.07505631px;stroke-linecap:butt;stroke-linejoin:miter;stroke-opacity:1"
       d="m 29.208602,14.258796 c 0,0 -0.435956,-0.985641 0.398046,-1.042508 0.834006,-0.05686 0.739229,0.417008 0.739229,0.417008 0,0 -0.07583,0.587588 -1.137275,0.6255 z"
       id="path6707"
       inkscape:connector-curvature="0" />
    <path
       inkscape:export-ydpi="96"
       inkscape:export-xdpi="96"
       style="fill:#3b0040;fill-opacity:0.41395348;stroke:none;stroke-width:0.07505631px;stroke-linecap:butt;stroke-linejoin:miter;stroke-opacity:1"
       d="m 32.279245,26.124389 c 0,0 2.028144,-2.502018 3.639292,-2.274565 1.611137,0.227459 0,0.663415 0,0.663415 0,0 -2.331422,0.360135 -3.639292,1.61115 z"
       id="path6709"
       inkscape:connector-curvature="0" />
    <path
       inkscape:export-ydpi="96"
       inkscape:export-xdpi="96"
       style="fill:#3b0040;fill-opacity:0.41395348;stroke:none;stroke-width:0.07505631px;stroke-linecap:butt;stroke-linejoin:miter;stroke-opacity:1"
       d="m 34.366897,25.434946 c 0,0 3.565187,-0.241261 6.755075,-4.128107 0,0 2.278499,-0.455699 0.241259,1.474322 -2.037248,1.930021 -6.996334,2.653785 -6.996334,2.653785 z"
       id="path6711"
       inkscape:connector-curvature="0" />
    <path
       inkscape:export-ydpi="96"
       inkscape:export-xdpi="96"
       style="fill:#3b0040;fill-opacity:0.41395348;stroke:none;stroke-width:0.07505631px;stroke-linecap:butt;stroke-linejoin:miter;stroke-opacity:1"
       d="m 27.036106,38.288076 c 0,0 2.312456,-3.487646 1.250997,-7.240649 0,0 -1.061457,-2.653661 0.303272,-3.108569 0,0 -0.720269,0.265357 0.682367,5.117748 1.402647,4.852392 -2.236636,5.23147 -2.236636,5.23147 z"
       id="path6713"
       inkscape:connector-curvature="0" />
    <path
       inkscape:export-ydpi="96"
       inkscape:export-xdpi="96"
       style="fill:#3b0040;fill-opacity:0.41395348;stroke:none;stroke-width:0.07505631px;stroke-linecap:butt;stroke-linejoin:miter;stroke-opacity:1"
       d="m 30.151594,30.766077 c 0,0 -0.492823,1.383679 -0.398047,3.336011 0.09477,1.95233 -0.303279,2.141882 0.606553,3.677195 0.909811,1.535337 0.284309,-0.701328 0.284309,-0.701328 0,0 -0.473867,-1.497402 -0.492814,-3.222266 -0.01889,-1.724866 0.28432,-0.568654 -1e-6,-3.089612 z"
       id="path6715"
       inkscape:connector-curvature="0" />
    <path
       inkscape:export-ydpi="96"
       inkscape:export-xdpi="96"
       style="fill:#3b0040;fill-opacity:0.41395348;stroke:none;stroke-width:0.07505631px;stroke-linecap:butt;stroke-linejoin:miter;stroke-opacity:1"
       d="m 38.823514,27.801984 c 0,0 2.341419,-1.283578 2.972316,-0.150472 0.630892,1.133194 0.345854,-0.88563 -0.188803,-0.979186 -0.534647,-0.09357 -1.209053,-0.371567 -2.783513,1.12957 z"
       id="path6717"
       inkscape:connector-curvature="0" />
    <path
       inkscape:export-ydpi="96"
       inkscape:export-xdpi="96"
       style="fill:#3b0040;fill-opacity:0.41395348;stroke:none;stroke-width:0.07505631px;stroke-linecap:butt;stroke-linejoin:miter;stroke-opacity:1"
       d="m 38.591133,27.204798 c 0,0 1.307869,-1.705929 3.260193,-1.345788 1.952329,0.360144 1.857552,-1.288908 0.815045,-1.099362 -1.042504,0.18955 -2.691553,0.01888 -4.075238,2.44515 z"
       id="path6719"
       inkscape:connector-curvature="0" />
    <path
       inkscape:export-ydpi="96"
       inkscape:export-xdpi="96"
       style="fill:#3b0040;fill-opacity:0.41395348;stroke:none;stroke-width:0.07505631px;stroke-linecap:butt;stroke-linejoin:miter;stroke-opacity:1"
       d="m 37.548628,25.347231 c 0,0 3.506604,-0.530721 4.909243,-2.501997 0,0 0.909831,-0.132679 0.341188,0.815048 -0.568644,0.947726 -3.354973,1.592185 -5.250431,1.686949 z"
       id="path6721"
       inkscape:connector-curvature="0" />
    <path
       inkscape:export-ydpi="96"
       inkscape:export-xdpi="96"
       style="fill:#3b0040;fill-opacity:0.41395348;stroke:none;stroke-width:0.06576896px;stroke-linecap:butt;stroke-linejoin:miter;stroke-opacity:1"
       d="m 39.696094,27.834779 c 0,0 0.692138,1.188662 1.853582,1.001131 1.161442,-0.187594 1.548954,1.066854 0.806324,1.13649 -0.742641,0.06964 -1.976732,-0.574275 -2.659906,-2.137621 z"
       id="path6723"
       inkscape:connector-curvature="0" />
    <path
       inkscape:export-ydpi="96"
       inkscape:export-xdpi="96"
       style="fill:#3b0040;fill-opacity:0.41395348;stroke:#627f3d;stroke-width:0.07505631;stroke-opacity:1"
       id="path6725"
       d="m 29.907521,30.321318 c -0.0011,0.0087 -0.0023,0.01758 -0.0026,0.02482 -0.0011,0.0087 -0.0023,0.01758 -0.0023,0.02593 0,0 0.01495,-0.0068 0.01495,-0.0068 v 0 c 6.5e-5,-0.0087 5.65e-4,-0.01758 0.0011,-0.02549 0.0011,-0.0087 0.0023,-0.01758 0.0036,-0.02524 0,0 -0.01538,0.0087 -0.01538,0.0087 z"
       inkscape:connector-curvature="0" />
    <path
       inkscape:export-ydpi="96"
       inkscape:export-xdpi="96"
       style="fill:#3b0040;fill-opacity:0.41395348;stroke:#627f3d;stroke-width:0.07505631;stroke-opacity:1"
       id="path6727"
       d="m 29.873137,30.425002 c -5.68e-4,0.0087 -0.0023,0.01758 -0.0036,0.02636 -0.0011,0.0087 -0.0026,0.01758 -0.0046,0.02702 -5.68e-4,0.0043 -2.29e-4,0.0021 -0.0011,0.0043 0,0 0.01517,-0.0069 0.01517,-0.0069 v 0 c 5.69e-4,-0.0024 2.84e-4,-0.0016 0.0011,-0.0044 0.0011,-0.0087 0.0023,-0.01758 0.0036,-0.02679 0.0023,-0.0087 0.0026,-0.01758 0.0046,-0.0268 0,0 -0.01538,0.0068 -0.01538,0.0068 z"
       inkscape:connector-curvature="0" />
    <path
       inkscape:export-ydpi="96"
       inkscape:export-xdpi="96"
       style="fill:#3b0040;fill-opacity:0.41395348;stroke:#627f3d;stroke-width:0.07505631;stroke-opacity:1"
       id="path6729"
       d="m 29.931272,30.34792 c -0.0036,0.0068 -0.0085,0.01317 -0.01295,0.01977 -0.0046,0.0068 -0.01056,0.01318 -0.01495,0.02195 -0.0036,0.0044 -0.0058,0.01099 -0.0094,0.01758 -0.0036,0.0068 -0.0074,0.01538 -0.01099,0.02194 -0.0026,0.0068 -0.0058,0.01099 -0.0085,0.01758 -0.0023,0.0044 -0.0036,0.0087 -0.0058,0.01098 -0.0011,0.0021 -0.0023,0.0024 -0.0026,0.0044 -0.0011,0.0021 -0.0011,0.0043 -0.0023,0.0043 -1.51e-4,5.71e-4 -2.82e-4,0.0013 -5.66e-4,0.0018 0,0 0.01538,-0.0068 0.01538,-0.0068 v 0 c 1.5e-4,-5.73e-4 2.83e-4,-8.77e-4 5.66e-4,-0.0018 0.0023,-0.0044 0.0026,-0.0068 0.0046,-0.0087 0.0023,-0.0044 0.0036,-0.0087 0.0058,-0.01099 0.0026,-0.0069 0.0058,-0.01099 0.0085,-0.01758 0.0036,-0.0068 0.0068,-0.01538 0.01099,-0.02195 0.0026,-0.0069 0.0058,-0.01098 0.0094,-0.01758 0.0046,-0.0068 0.0099,-0.01318 0.01494,-0.02195 0.0048,-0.0068 0.0094,-0.01319 0.01362,-0.01977 0,0 -0.01605,0.0069 -0.01605,0.0069 z"
       inkscape:connector-curvature="0" />
    <path
       inkscape:export-ydpi="96"
       inkscape:export-xdpi="96"
       style="fill:#3b0040;fill-opacity:0.41395348;stroke:none;stroke-width:0.07505631px;stroke-linecap:butt;stroke-linejoin:miter;stroke-opacity:1"
       d="m 29.085465,29.482807 c 0,0 0.750567,-1.501135 -1.527935,-2.466154 -2.278499,-0.964995 0.214439,-0.616539 0.214439,-0.616539 0,0 3.002259,0.50932 1.313496,3.082693 z"
       id="path6731"
       inkscape:connector-curvature="0" />
    <path
       inkscape:export-ydpi="96"
       inkscape:export-xdpi="96"
       style="fill:#3b0040;fill-opacity:0.41395348;stroke:none;stroke-width:0.07505631px;stroke-linecap:butt;stroke-linejoin:miter;stroke-opacity:1"
       d="m 23.789365,21.190082 c 0,0 0.928777,-1.44055 -0.265363,-4.605975 -1.194139,-3.165412 0.701316,-0.606545 0.701316,-0.606545 0,0 1.611141,2.710509 -0.435953,5.21252 z"
       id="path6733"
       inkscape:connector-curvature="0" />
    <path
       inkscape:export-ydpi="96"
       inkscape:export-xdpi="96"
       style="fill:#3b0040;fill-opacity:0.41395348;stroke:none;stroke-width:0.07505631px;stroke-linecap:butt;stroke-linejoin:miter;stroke-opacity:1"
       d="m 27.889386,25.699291 c 0,0 -1.476891,0.647204 -1.675164,-4.248463 0,0 0.270743,-2.371516 0.64883,0.0097 0.378094,2.38106 -0.05002,3.777915 1.026334,4.238931 z"
       id="path6735"
       inkscape:connector-curvature="0" />
    <path
       inkscape:export-ydpi="96"
       inkscape:export-xdpi="96"
       style="fill:#3b0040;fill-opacity:0.41395348;stroke:none;stroke-width:0.07505631px;stroke-linecap:butt;stroke-linejoin:miter;stroke-opacity:1"
       d="m 28.62279,18.669119 c 0,0 -0.454908,-2.691557 -1.402635,-4.226879 -0.947739,-1.535325 1.099365,-1.781733 1.137274,-0.09475 0.03791,1.68696 0.227453,3.847785 0.265361,4.321647 z"
       id="path6737"
       inkscape:connector-curvature="0" />
    <path
       inkscape:export-ydpi="96"
       inkscape:export-xdpi="96"
       style="fill:#3b0040;fill-opacity:0.41395348;stroke:none;stroke-width:0.07505631px;stroke-linecap:butt;stroke-linejoin:miter;stroke-opacity:1"
       d="m 20.925697,29.681738 c 0,0 -1.175188,0.587605 -0.644455,1.630099 0.530725,1.042518 0.928771,0.246401 0.625501,-0.227442 -0.303281,-0.473887 -0.473867,-0.739244 0.01889,-1.402657 z"
       id="path6739"
       inkscape:connector-curvature="0" />
  </g>
</svg>
